<svg xmlns="http://www.w3.org/2000/svg" xmlns:xlink="http://www.w3.org/1999/xlink" viewBox="0 0 3191.46 4633.65"><defs><style>.cls-1{mask:url(#mask);filter:url(#luminosity-noclip-3);}.cls-2,.cls-4{mix-blend-mode:multiply;}.cls-2{fill:url(#linear-gradient);}.cls-3{mask:url(#mask-2);filter:url(#luminosity-noclip-4);}.cls-4{fill:url(#linear-gradient-2);}.cls-5{fill:#fff;}.cls-6{fill:#371a45;}.cls-7{opacity:0.3;}.cls-8{opacity:0.35;}.cls-9{fill:#22a7f0;}.cls-10{opacity:0.5;}.cls-11{fill:#111a28;}.cls-12{fill:#111827;}.cls-13{mask:url(#mask-3);}.cls-14{fill:#f2e500;stroke:#111827;stroke-miterlimit:10;stroke-width:2px;}.cls-15{mask:url(#mask-4);}.cls-16{fill:#0af;}.cls-17{fill:#0689ea;}.cls-18{fill:#0077e2;}.cls-19{fill:#69dcff;}.cls-20{fill:#ff9100;}.cls-21{fill:#caf8ff;}.cls-22{fill:#ffec90;}.cls-23{opacity:0.41;}.cls-24{fill:#e6f7ff;}.cls-25{opacity:0.7;}.cls-26{fill:#0098ff;}.cls-27{fill:#acf962;}.cls-28{fill:#8de233;}.cls-29{fill:none;}.cls-30{fill:#ffd243;}.cls-31{fill:#fcac38;}.cls-32{fill:#ff8a3b;}.cls-33{opacity:0.6;}.cls-34{filter:url(#luminosity-noclip-2);}.cls-35{filter:url(#luminosity-noclip);}</style><filter id="luminosity-noclip" x="198.85" y="-11136.9" width="2817.57" height="32766" filterUnits="userSpaceOnUse" color-interpolation-filters="sRGB"><feFlood flood-color="#fff" result="bg"/><feBlend in="SourceGraphic" in2="bg"/></filter><mask id="mask" x="198.85" y="-11136.9" width="2817.57" height="32766" maskUnits="userSpaceOnUse"><g class="cls-35"/></mask><linearGradient id="linear-gradient" x1="1677.48" y1="2316.17" x2="1523.06" y2="4174.95" gradientUnits="userSpaceOnUse"><stop offset="0" stop-color="#fff"/><stop offset="1"/></linearGradient><filter id="luminosity-noclip-2" x="15.81" y="-11136.9" width="3051.59" height="32766" filterUnits="userSpaceOnUse" color-interpolation-filters="sRGB"><feFlood flood-color="#fff" result="bg"/><feBlend in="SourceGraphic" in2="bg"/></filter><mask id="mask-2" x="15.81" y="-11136.9" width="3051.59" height="32766" maskUnits="userSpaceOnUse"><g class="cls-34"/></mask><linearGradient id="linear-gradient-2" x1="1350.22" y1="2759.49" x2="1962.19" y2="5390.39" xlink:href="#linear-gradient"/><filter id="luminosity-noclip-3" x="197.21" y="2335.27" width="2821.01" height="1240.34" filterUnits="userSpaceOnUse" color-interpolation-filters="sRGB"><feFlood flood-color="#fff" result="bg"/><feBlend in="SourceGraphic" in2="bg"/></filter><mask id="mask-3" x="197.21" y="2335.27" width="2821.01" height="1240.34" maskUnits="userSpaceOnUse"><g class="cls-1"><path class="cls-2" d="M3016.42,2795.67c-248.14,37.9-632.25,127.54-980.52,338.13-573.8,347-728.87,467.69-859.77,435.93-129.14-31.35-54.63-237.66-243.41-203.35-133.11,24.22-403.1,160.49-733.87,151.6,26.66-49.6,48.2-99.59,57.24-153.27,5-29.44,7.2-61,7.85-93.95,427.73-75.92,608.77-484.66,833.38-539.83,289.78-71.19-21.73,373.62,371.68,149.92,292.26-166.13,634.62-412.21,925.77-544.48,80.38,37.25,147.18,93.53,198.54,158.66,106.72,135.28,217.94,133.9,341.14,222.4C2966.17,2740.23,2994,2765.55,3016.42,2795.67Z"/></g></mask><filter id="luminosity-noclip-4" x="14.81" y="3124.68" width="3053.84" height="1321.31" filterUnits="userSpaceOnUse" color-interpolation-filters="sRGB"><feFlood flood-color="#fff" result="bg"/><feBlend in="SourceGraphic" in2="bg"/></filter><mask id="mask-4" x="14.81" y="3124.68" width="3053.84" height="1321.31" maskUnits="userSpaceOnUse"><g class="cls-3"><path class="cls-4" d="M3064.77,3141.08c-15.82,86.63-31.3,164.07-13.31,270-745.23,99.67-1388.53,807.34-1601.26,846.8-287.72,53.38-388.07-138.4-576.85-104.09C767.93,4173,504,4319.3,291.55,4444.82,103.53,4323.53,31.24,4161,18.47,4033A519.37,519.37,0,0,1,16,3968.74c347.93,123.85,641.59-42.24,912-108.63,289.78-71.18,420.68,19.07,667.6-40.68,411.71-99.59,1114.62-596.75,1471.81-693.37Q3066.14,3133.49,3064.77,3141.08Z"/></g></mask></defs><g id="Capa_2" data-name="Capa 2"><g id="Layer_1" data-name="Layer 1"><rect class="cls-5" x="1069.11" y="1166.18" width="1053.25" height="1004.96" rx="164.35"/><path class="cls-6" d="M1958,1166.18a164.35,164.35,0,0,1,164.35,164.34v676.27A164.35,164.35,0,0,1,1958,2171.13H1233.46a164.35,164.35,0,0,1-164.35-164.34V1330.52a164.35,164.35,0,0,1,164.35-164.34H1958m0-34.76H1233.46c-109.79,0-199.1,89.32-199.1,199.1v676.27c0,109.78,89.31,199.1,199.1,199.1H1958c109.79,0,199.11-89.32,199.11-199.1V1330.52c0-109.78-89.32-199.1-199.11-199.1Z"/><path class="cls-6" d="M1438.54,2732.29a17.28,17.28,0,0,1-9.23-2.67c-88.69-55.71-218.88-31.08-220.18-30.82a17.38,17.38,0,0,1-6.71-34.1c5.86-1.16,144.86-27.65,245.38,35.49a17.38,17.38,0,0,1-9.26,32.1Z"/><path class="cls-5" d="M2108,2826.21c-.26,2.65,5.91,105.74-269.28,95.45-116.65-4.39-196-26.72-224.39-88.11-25.42-55-21.77-270.1-21.77-270.1v-346h-.39v346s1.35,79.5-3.3,154.19c-3,48.18-8.52,94.36-18.47,115.91-28.41,61.39-94.75,83.72-211.4,88.11-275.19,10.29-282-92.8-282.27-95.45a96.2,96.2,0,0,1,4.17-39.58c23.2-71.43,124.82-104.88,124.82-104.88S1141,2435.63,1118.7,2226c-7-65.82-10.47-132.42-11.17-198.67-2.87-272.67,41.67-540.47,83.81-731.11,12.9-58.17,25.54-109.18,36.54-150.88,20.59-78,35.49-123.69,35.49-123.69h658.07s15.68,48.13,37.15,129.9c10.77,41,22.94,90.5,35.36,146.58,42,190.6,86.24,457.79,83.37,729.72-.69,66.08-4.21,132.46-11.21,198.15-22.28,209.67-87.06,455.79-87.06,455.79S2118,2727.54,2108,2826.21Z"/><g class="cls-7"><path class="cls-6" d="M2108,2826.21c-.26,2.65-7.09,105.74-282.27,95.45-116.65-4.39-183-26.72-211.41-88.11-10-21.55-15.46-67.73-18.46-115.91l-2.56-155.37-4.39,155.37c-3,48.18-8.52,94.36-18.47,115.91-28.41,61.39-94.75,83.72-211.4,88.11-275.19,10.29-282-92.8-282.27-95.45a96.2,96.2,0,0,1,4.17-39.58c10,16.38,39.67,40,126.91,52,141.59,19.42,293.65,2.13,319.45-92,19.42-70.86,51.4-422.2-56.22-468.17-166.39-71.12-227.48-128.29-181.21-137.5,23.51-4.7,85.46,14.81,302.51,14.81s279-19.51,302.52-14.81c46.27,9.21-14.82,66.38-181.22,137.5-107.61,46-75.64,397.31-56.21,468.17,25.8,94.15,177.86,111.44,319.45,92,87.24-12,117-35.58,126.91-52A96.2,96.2,0,0,1,2108,2826.21Z"/></g><path class="cls-6" d="M1876.44,2939.76q-18.53,0-38.34-.75c-92-3.44-202.29-17.71-239.49-98.15a114.28,114.28,0,0,1-6.2-17.71,114.28,114.28,0,0,1-6.2,17.71c-30,64.81-95.6,93.25-226.53,98.15-275.72,10.38-298.45-90.86-300.21-111.25-9.19-91.05,87.18-140.66,125.64-156.71-14.35-57-64.66-264.38-83.69-443.25-28.05-263.68-4.47-565.55,72.1-922.86a17.38,17.38,0,1,1,34,7.29c-75.79,353.65-99.19,651.93-71.53,911.9,21.91,205.89,86,450.75,86.61,453.2l4.16,15.81-15.53,5.12c-1.24.41-125.57,42.69-117.16,126.19.11,1.21,10.73,89.35,264.32,79.83,115.8-4.34,172.67-26.94,196.28-78,15.65-33.82,19.82-144.63,20.35-217.43-.06-11.56,0-21.58,0-29.41,0-5.8-.1-11.07-.18-15.7V2200.05h34.76l.36,17.38v346c-.08,4.71-.14,10.09-.18,16,.06,7.8.08,17.8,0,29.35.53,73,4.71,183.68,20.34,217.48,22.84,49.38,87.38,73.44,209.26,78,147.92,5.54,209-21.84,234.24-45.8,15.57-14.78,16.95-28.31,17-32.11l.08-1.78c8.43-83.64-115.9-125.92-117.16-126.34l-15.48-5.14,4.13-15.78c.65-2.45,64.7-247.31,86.61-453.2,27.15-255.17,4.95-547.81-67.87-894.64a17.38,17.38,0,0,1,34-7.14c73.57,350.44,96,646.61,68.41,905.45-19,178.87-69.34,386.27-83.69,443.25,38.36,16,134.35,65.44,125.69,156.21-.23,9.73-3.54,33.37-27.81,56.42C2058.36,2920.94,1984.05,2939.76,1876.44,2939.76Z"/><path class="cls-6" d="M1975.68,2698.8c-8.52-2.26-18.38-4.3-27.81-5.87s-19.18-2.94-28.87-4a429.3,429.3,0,0,0-58.52-2,326.71,326.71,0,0,0-58.36,7.57,249.69,249.69,0,0,0-55.86,20.41,254.34,254.34,0,0,1,53.27-28.7,337.87,337.87,0,0,1,59-16.54,448.05,448.05,0,0,1,61.26-6.75c10.3-.41,20.63-.54,31-.26s20.47.77,31.64,2a17.43,17.43,0,1,1-3.92,34.64,17.22,17.22,0,0,1-2.4-.44Z"/><path class="cls-6" d="M1204.47,2664.7c11.18-1.27,21.16-1.81,31.65-2s20.69-.15,31,.26a448.23,448.23,0,0,1,61.26,6.75,337.87,337.87,0,0,1,59,16.54,254.34,254.34,0,0,1,53.27,28.7,250,250,0,0,0-55.86-20.41,326.71,326.71,0,0,0-58.36-7.57,429.3,429.3,0,0,0-58.52,2c-9.69,1-19.33,2.31-28.87,4s-19.29,3.61-27.8,5.87l-.32.08a17.43,17.43,0,1,1-8.91-33.71A17,17,0,0,1,1204.47,2664.7Z"/><path class="cls-5" d="M1357.8,1952.16c-61.55,25.88-156.79,20.46-221.73,12.3-38.94-4.89-66.28-42.21-60.55-82.52h0c5.24-36.77,36.41-63.52,72.17-61.78,60.74,3,151.84,4.34,209.53-9"/><g class="cls-8"><path class="cls-6" d="M1357.82,1952.15c-61.55,25.88-156.84,20.5-221.76,12.31-38.92-4.87-66.27-42.21-60.55-82.54a73.07,73.07,0,0,1,7.66-23.86c10.36,19.93,29.56,34.48,52.89,37.43,64.83,8.14,159.94,13.57,221.48-12.21Z"/></g><path class="cls-6" d="M1235.41,1988.58c-35.68,0-71.14-3.06-101.51-6.87a85.85,85.85,0,0,1-57.82-33.55,92.33,92.33,0,0,1-17.76-68.67c6.54-45.9,45.33-78.86,90.21-76.69,89.34,4.35,162.06,1.32,204.79-8.53,8.68-2,30.23-2.3,43.19,37.85,14.61,45.26,11.62,117.73-32,136.06C1328.23,1983.45,1281.64,1988.58,1235.41,1988.58Zm-91-151.12c-25.81,0-47.78,19.76-51.65,46.93a56.59,56.59,0,0,0,11,42.68,51.35,51.35,0,0,0,34.54,20.15c92.58,11.63,168.16,7.7,212.82-11.08h0c8.68-3.65,15-16.29,17.47-34.68,4.32-32.82-5-64.06-11.3-72.45-58.68,12.6-146.43,11.62-210.39,8.51C1146,1837.48,1145.19,1837.46,1144.38,1837.46Z"/><g class="cls-7"><path class="cls-6" d="M2093.14,2020c-62.29,7.71-149.57,13.09-215.25-4.82v33.14c0,45.8-36.06,83.24-80.15,83.24h-437.5c-44.14,0-80.15-37.44-80.15-83.24V1801.55c0-45.71,36-83.19,80.15-83.19h437.5c35.22,0,65.35,23.88,76,56.85a86.31,86.31,0,0,1,4.11,26.34v55.65c62.16,9.34,145.54,7.83,203.56,5,.74,0,1.45,0,2.15,0C2088.37,1914.09,2091.73,1967,2093.14,2020Z"/></g><path class="cls-5" d="M1828.54,1952.16c61.55,25.88,156.79,20.46,221.73,12.3,38.94-4.89,66.28-42.21,60.54-82.52h0c-5.23-36.77-36.4-63.52-72.16-61.78-60.74,3-151.84,4.34-209.54-9"/><g class="cls-8"><path class="cls-6" d="M2050.28,1964.46c-65,8.19-160.21,13.57-221.75-12.31l.27-68.73c61.54,25.78,156.61,20.35,221.48,12.21,23.34-3,42.58-17.59,52.94-37.52a74.27,74.27,0,0,1,7.61,23.81C2116.56,1922.25,2089.21,1959.59,2050.28,1964.46Z"/></g><path class="cls-6" d="M1950.93,1988.58c-46.24,0-92.81-5.13-129.12-20.4-43.61-18.33-46.59-90.8-32-136.07,13-40.14,34.52-39.83,43.19-37.84,42.73,9.85,115.46,12.89,204.78,8.53,44.89-2.17,83.68,30.78,90.22,76.69a92.33,92.33,0,0,1-17.76,68.67,85.84,85.84,0,0,1-57.83,33.55C2022.07,1985.52,1986.6,1988.58,1950.93,1988.58ZM1829.11,1829c-6.26,8.39-15.62,39.64-11.3,72.45,2.42,18.39,8.79,31,17.47,34.68h0c44.65,18.78,120.23,22.72,212.82,11.08a51.35,51.35,0,0,0,34.54-20.15,56.63,56.63,0,0,0,11-42.68c-4-28-27.25-48.21-54.12-46.87C1975.54,1840.63,1887.79,1841.61,1829.11,1829Z"/><path class="cls-5" d="M1852.32,1764.62v225.9c0,41.92-33,76.22-73.35,76.22H1378.4c-40.36,0-73.34-34.3-73.34-76.22v-225.9c0-41.87,33-76.17,73.34-76.17H1779c32.22,0,59.79,21.9,69.56,52.08A78.48,78.48,0,0,1,1852.32,1764.62Z"/><g class="cls-7"><path class="cls-6" d="M1852.32,1764.62v225.9c0,41.92-33,76.22-73.35,76.22H1378.4c-40.36,0-73.34-34.3-73.34-76.22v-76c69.11,39.72,206,99.38,343.44,50.16,67.13-24.07,144.09-106.54,144.09-106.54s3,86.53,15.33,85.17c34.37-3.8,34.12-178.88,40.61-202.75A78.48,78.48,0,0,1,1852.32,1764.62Z"/></g><path class="cls-6" d="M1777.56,2084.09H1379.78a92.22,92.22,0,0,1-92.12-92.12V1763.2a92.23,92.23,0,0,1,92.12-92.13h397.78a92.24,92.24,0,0,1,92.13,92.13V1992A92.23,92.23,0,0,1,1777.56,2084.09Zm-397.78-378.26a57.44,57.44,0,0,0-57.37,57.37V1992a57.44,57.44,0,0,0,57.37,57.37h397.78a57.43,57.43,0,0,0,57.37-57.37V1763.2a57.43,57.43,0,0,0-57.37-57.37Z"/><ellipse class="cls-9" cx="1720.58" cy="1877.58" rx="63.26" ry="65.69"/><path class="cls-5" d="M1783.86,1877.6a67.29,67.29,0,0,1-1.25,13c-5.84-30.08-31.41-52.72-62-52.72s-56.19,22.64-62,52.72a67.29,67.29,0,0,1-1.25-13c0-36.28,28.31-65.72,63.24-65.72S1783.86,1841.32,1783.86,1877.6Z"/><g class="cls-8"><path class="cls-6" d="M1783.84,1877.57c0,36.31-28.34,65.69-63.26,65.69s-63.25-29.38-63.25-65.69a68.24,68.24,0,0,1,2.3-17.59c7.43,27.7,31.94,48,60.95,48s53.53-20.35,61-48A68.24,68.24,0,0,1,1783.84,1877.57Z"/></g><path class="cls-6" d="M1720.58,1956.31c-42.06,0-76.29-35.32-76.29-78.73s34.23-78.73,76.29-78.73,76.29,35.32,76.29,78.73S1762.65,1956.31,1720.58,1956.31Zm0-131.39c-27.69,0-50.22,23.63-50.22,52.66s22.53,52.66,50.22,52.66,50.22-23.62,50.22-52.66S1748.28,1824.92,1720.58,1824.92Z"/><path class="cls-6" d="M1541.32,2084.09a17.37,17.37,0,0,1-17.37-17.37V1951.1c0-23.16-10.58-45.26-28.3-59.11l-10.17-8c-26.08-20.39-41.64-52.72-41.64-86.49v-109.1a17.38,17.38,0,1,1,34.75,0v109.1c0,23.16,10.58,45.25,28.3,59.11l10.17,7.95c26.08,20.38,41.64,52.72,41.64,86.49v115.62A17.38,17.38,0,0,1,1541.32,2084.09Z"/><path class="cls-6" d="M1360,2413.17c-73.88,0-155.56-12.82-230.32-52.93a12.5,12.5,0,1,1,11.82-22c192.77,103.42,444.25,12.32,446.77,11.39a12.5,12.5,0,0,1,8.69,23.44C1590.18,2375.55,1486.53,2413.17,1360,2413.17Z"/><path class="cls-6" d="M1825,2413.17c-126.56,0-230.2-37.62-237-40.13a12.5,12.5,0,0,1,8.7-23.44c2.51.93,254,92,446.76-11.39a12.5,12.5,0,1,1,11.82,22C1980.59,2400.35,1898.89,2413.17,1825,2413.17Z"/><path class="cls-5" d="M1416.13,2208.67s71.49,31.95,176.28,31.95,176.65-31.95,176.65-31.95-47.49-37.5-176.65-37.5S1416.13,2208.67,1416.13,2208.67Z"/><g class="cls-7"><path class="cls-6" d="M1416.13,2208.67s71.49,31.95,176.28,31.95,176.65-31.95,176.65-31.95-47.49-37.5-176.65-37.5S1416.13,2208.67,1416.13,2208.67Z"/></g><path class="cls-6" d="M1392,2200.61a974.8,974.8,0,0,0,101.58,18.23,917.34,917.34,0,0,0,102.1,7.09,837.34,837.34,0,0,0,102.31-6,776.76,776.76,0,0,0,101.41-19.33l.33-.08a5.82,5.82,0,0,1,4.38,10.67c-16,9.13-32.42,15.89-49.37,22-8.42,3.16-17,5.65-25.67,8.21l-13,3.63-13.13,3.06a507.65,507.65,0,0,1-107.26,12.39,484.24,484.24,0,0,1-107.46-11.18,418.1,418.1,0,0,1-51.84-15.17c-16.92-6.31-33.38-13.27-49.12-22.94a5.84,5.84,0,0,1,4.4-10.66Z"/><path class="cls-5" d="M2226.26,1955.86c-45.84,59.83-98.41,79.12-148.94,72-106.48-15.17-203.8-148.24-209.53-268.11-52.75,11.3-136.6,10.3-173-29.15-50-54.26-6.52-128.25-6.52-128.25s-97.58,6.13-97.58-63.78c0-38.4,147.8-92.15,283.36-82.15,31.75,2.3,88,14.25,130.55,42.23-6.56-58.09-21.29-114.18-34.67-161.32,0,0-12.43,1-32.32,2.17-81,4.65-285.75,10.87-276.8-45.44,11.17-70.12,292.87-148.76,292.87-148.76,1.61,2.09,3.26,4.17,4.87,6.26,26.28,33.8,52.44,70.29,77.81,108.53C2199.32,1505.5,2328.48,1822.53,2226.26,1955.86Z"/><path class="cls-6" d="M1958.27,1141.69c45,41,81.11,89.71,114.16,140,33.23,50.33,61.79,103.55,89.07,157.32q20.23,40.45,38.68,81.86c12,27.73,23.51,55.72,33.74,84.27s19.33,57.56,27,87.11c7.41,29.61,13.33,59.76,16.55,90.53s3.7,62.24-1.3,93.81c-5,31.37-16,63.34-36.35,90.11-19.25,25-43.42,47.83-73.16,63a154,154,0,0,1-97.9,14,180.9,180.9,0,0,1-46.76-15.26l-5.53-2.57-5.31-2.93c-3.51-2-7.08-3.91-10.54-6-6.65-4.47-13.58-8.62-19.78-13.62-25.6-19.15-47.24-42.48-65.63-67.89a359,359,0,0,1-44.59-82.57,307.67,307.67,0,0,1-20.16-92.49l21,16.16a320.3,320.3,0,0,1-84.15,6,247.38,247.38,0,0,1-42.51-6.44c-14.14-3.49-28.37-8.65-41.75-16.94a103.07,103.07,0,0,1-18.88-14.94,31,31,0,0,1-4.05-4.43l-3.71-4.6-3.66-4.64c-1.19-1.56-2.11-3.36-3.16-5-1.94-3.48-4.27-6.75-5.79-10.44l-4.58-11.06-3.11-11.5c-.93-3.84-1.26-7.75-1.87-11.64a136.12,136.12,0,0,1,3.11-45.46,171.83,171.83,0,0,1,6.44-21.28c1.36-3.43,2.7-6.87,4.27-10.25s3.06-6.53,5.3-10.54l16.07,26.15c-4,.21-7,.19-10.46.14s-6.63-.22-9.93-.47a177.64,177.64,0,0,1-19.84-2.54c-13.22-2.52-26.7-6.56-39.56-14.2a79,79,0,0,1-17.94-14.51,69.37,69.37,0,0,1-12.88-20.32,77.57,77.57,0,0,1-5.14-22.82l-.24-5.62,0-.71.07-1.13.21-2.34a39.86,39.86,0,0,1,.72-4.56,46.39,46.39,0,0,1,2.81-7.65,49.68,49.68,0,0,1,3.62-6.17c5.16-7.4,10.79-12.26,16.39-16.61a150.36,150.36,0,0,1,17-11.3,276.51,276.51,0,0,1,34.9-16.46c23.53-9.31,47.55-16,71.81-21.45,48.54-10.52,98.29-15.14,148.27-12.26,25.67,1.36,50.61,6.48,74.86,13.71,24.23,7.4,48.24,16.78,70.69,30.85l-28.42,17.45c-1.75-13.24-3.79-26.48-5.9-39.74l-6.55-39.94c-2.18-13.37-4.33-26.82-6-40.48a398.43,398.43,0,0,1-3.53-41.62,6,6,0,0,1,11.14-3.17,281.64,281.64,0,0,1,18.28,38,373.7,373.7,0,0,1,13.54,39.76c3.73,13.52,7,27.2,9.64,41s4.59,27.86,5.94,42l.06.66a18.25,18.25,0,0,1-28.48,16.79c-17.93-12.28-38.76-21.73-60.53-28.36s-44.43-11.13-66.87-12.27c-46.18-2.69-93.22,1.63-138.75,11.51-22.71,5.07-45.2,11.39-66.45,19.82a241.67,241.67,0,0,0-30.39,14.29,116,116,0,0,0-13,8.61c-3.93,3-7.36,6.27-9,8.82-.63.7-.55,1.09-1,1.59s-.08.56-.35.79c0,0,.12-.07.09-.11a.2.2,0,0,0,0-.09s0-.06,0,0l0,.42.15,3.39a43.34,43.34,0,0,0,2.69,12.28c3,7.32,8.51,13.32,16.44,18.06,15.69,9.44,39.46,12.85,59.78,12.23a17.66,17.66,0,0,1,18.23,17.1,17.87,17.87,0,0,1-2.16,9c-1,1.8-2.49,4.72-3.62,7.3s-2.3,5.42-3.39,8.16a136.91,136.91,0,0,0-5.12,16.88,101.68,101.68,0,0,0-2.41,33.74c.48,2.67.62,5.44,1.28,8l2.08,7.78,3.08,7.36c1,2.49,2.67,4.61,3.91,7a40,40,0,0,0,2.08,3.42l2.57,3.16,2.54,3.18,1.25,1.61,1.4,1.31a68.89,68.89,0,0,0,12.35,9.73c9.25,5.77,20.3,10,32,12.79a213.26,213.26,0,0,0,36.28,5.46,286.5,286.5,0,0,0,74.61-5.27,17.43,17.43,0,0,1,21,16v.17c3.18,55.45,25.21,110.52,58.22,156.38,16.58,22.92,36,43.81,58.33,60.44,5.41,4.41,11.36,7.89,17.07,11.78l9,5,4.49,2.5,4.63,2.13a146.7,146.7,0,0,0,38.07,12.48,118.83,118.83,0,0,0,76.15-10.92c23.54-12,44.14-30.94,61.18-53.16,15.9-21,25.24-47,29.59-74.42s4-56.17,1-84.75-8.57-57.21-15.65-85.51c-7.31-28.28-16.18-56.26-26-84A1352.43,1352.43,0,0,0,2130.12,1455q-20.4-39.36-43-77.56c-14.87-25.56-30.4-50.72-45.83-76s-31.66-50-47-75.36c-15.55-25.27-31.08-50.58-45.17-77.33l0-.07a5.87,5.87,0,0,1,9.15-7.08Z"/><path class="cls-6" d="M2132.42,1660.66a510.53,510.53,0,0,0-27.87-43.45c-10-14-20.66-27.59-31.9-40.45a389.34,389.34,0,0,0-36-35.64,235.78,235.78,0,0,0-40.46-27.36l-.38-.2a17.4,17.4,0,1,1,16.13-30.83c.41.21.83.46,1.22.7a266.9,266.9,0,0,1,44.1,35.33,417,417,0,0,1,35.68,41.6q16.14,21.86,29.85,45A525.31,525.31,0,0,1,2148,1653a8.69,8.69,0,0,1-15.44,7.94Z"/><path class="cls-5" d="M1493.2,1602.3s43.53,74-6.52,128.25c-36.36,39.45-120.21,40.45-173,29.15-5.64,118.57-101,250.12-206.19,267.59-51.53,8.55-105.4-10.26-152.28-71.43-102.74-134,28.29-453.61,192.38-699.6,26.16-39.23,53.14-76.55,80.16-111l.09,0,225.48,126.42-216.93,58.83-24.89,6.73c-13.43,47.14-28.15,103.23-34.67,161.32,42.53-28,98.8-39.93,130.55-42.23,135.55-10,283.31,43.75,283.31,82.15C1590.73,1608.43,1493.2,1602.3,1493.2,1602.3Z"/><g class="cls-7"><path class="cls-6" d="M1493.2,1602.3s43.53,74-6.52,128.25c-36.36,39.45-120.21,40.45-173,29.15-5.64,118.57-101,250.12-206.19,267.59-51.53,8.55-105.4-10.26-152.28-71.43-32.36-42.23-41.53-102.92-33.75-173.87,4.56,34.24,15.42,64,33.75,87.89,46.88,61.17,100.75,80,152.28,71.43,105.18-17.47,162.88-141.11,168.53-259.68,52.74,11.3,134.63,40.23,171,.78,50-54.26-28.37-122.69-28.37-122.69s112.74,21.08,168,1.35C1568.14,1607,1493.2,1602.3,1493.2,1602.3Z"/></g><g class="cls-7"><path class="cls-6" d="M1686.25,1602.3s-43.53,74,6.52,128.25c36.36,39.45,120.21,40.45,173,29.15,5.64,118.57,101,250.12,206.19,267.59,51.53,8.55,105.4-10.26,152.28-71.43,32.36-42.23,41.53-102.92,33.75-173.87-4.56,34.24-15.42,64-33.75,87.89-46.88,61.17-100.75,80-152.28,71.43-105.18-17.47-162.88-141.11-168.53-259.68-52.74,11.3-134.63,40.23-171,.78-50.05-54.26,28.37-122.69,28.37-122.69s-112.74,21.08-168,1.35C1611.31,1607,1686.25,1602.3,1686.25,1602.3Z"/></g><path class="cls-6" d="M1232.34,1148.84c-14.09,26.75-29.62,52.06-45.17,77.33-15.32,25.41-31.67,50-47,75.36s-31,50.39-45.83,76q-22.68,38.13-43,77.56a1354.1,1354.1,0,0,0-71.09,161.89c-9.81,27.69-18.69,55.67-26,84-7.07,28.3-12.66,56.89-15.65,85.51s-3.32,57.3,1,84.75,13.69,53.42,29.59,74.42c17,22.22,37.64,41.11,61.18,53.16a118.83,118.83,0,0,0,76.15,10.92,146.58,146.58,0,0,0,38.07-12.48l4.63-2.13,4.49-2.5,9-5c5.71-3.89,11.66-7.37,17.07-11.78,22.29-16.63,41.76-37.52,58.34-60.44,33-45.86,55-100.93,58.21-156.38v-.07a17.47,17.47,0,0,1,18.44-16.43,16.6,16.6,0,0,1,2.56.34A286.5,286.5,0,0,0,1392,1748a213.38,213.38,0,0,0,36.29-5.46c11.65-2.83,22.71-7,32-12.79a69.16,69.16,0,0,0,12.34-9.73l1.4-1.31,1.26-1.61,2.53-3.18,2.57-3.16a40,40,0,0,0,2.08-3.42c1.25-2.36,2.95-4.48,3.91-7l3.08-7.36,2.08-7.78c.66-2.6.8-5.37,1.28-8a101.68,101.68,0,0,0-2.41-33.74,136.85,136.85,0,0,0-5.11-16.88c-1.1-2.74-2.16-5.51-3.4-8.16s-2.63-5.5-3.62-7.3a17.67,17.67,0,0,1,7-24,17.85,17.85,0,0,1,9-2.16c20.32.62,44.09-2.79,59.79-12.23,7.92-4.74,13.4-10.74,16.43-18.06a43.34,43.34,0,0,0,2.69-12.28l.15-3.39,0-.42s-.06,0-.06,0a.18.18,0,0,0,0,.09s.11.16.09.11c-.28-.23,0-.28-.36-.79s-.33-.89-1-1.59c-1.68-2.55-5.11-5.86-9-8.82a115.05,115.05,0,0,0-13-8.61,242.19,242.19,0,0,0-30.38-14.29c-21.26-8.43-43.75-14.75-66.46-19.82-45.53-9.88-92.57-14.2-138.75-11.51-22.44,1.14-45,5.76-66.87,12.27S1204.9,1501.7,1187,1514a18.25,18.25,0,0,1-28.48-16.77l.06-.68q2-21.18,5.94-42c2.63-13.85,5.91-27.53,9.64-41a373.7,373.7,0,0,1,13.54-39.76,284.06,284.06,0,0,1,18.28-38,6,6,0,0,1,11.14,3.17,398.43,398.43,0,0,1-3.53,41.62c-1.63,13.66-3.78,27.11-6,40.48l-6.55,39.94c-2.11,13.26-4.15,26.5-5.9,39.74l-28.42-17.45c22.45-14.07,46.46-23.45,70.69-30.85,24.25-7.23,49.19-12.35,74.86-13.71,50-2.88,99.73,1.74,148.27,12.26,24.26,5.42,48.28,12.14,71.81,21.45a276.51,276.51,0,0,1,34.9,16.46,150.47,150.47,0,0,1,17,11.3c5.59,4.35,11.23,9.21,16.38,16.61a47.32,47.32,0,0,1,3.62,6.17,45.5,45.5,0,0,1,2.81,7.65,37.77,37.77,0,0,1,.72,4.56l.21,2.34.07,1.13,0,.71-.25,5.62a77.57,77.57,0,0,1-5.14,22.82,69.37,69.37,0,0,1-12.88,20.32,79,79,0,0,1-17.94,14.51c-12.85,7.64-26.34,11.68-39.55,14.2a177.81,177.81,0,0,1-19.85,2.54c-3.3.25-6.61.39-9.93.47s-6.42.07-10.46-.14l16.07-26.15c2.24,4,3.73,7,5.3,10.54s2.91,6.82,4.27,10.25a171.87,171.87,0,0,1,6.45,21.28,136.12,136.12,0,0,1,3.1,45.46c-.61,3.89-.94,7.8-1.87,11.64l-3.11,11.5-4.58,11.06c-1.52,3.69-3.85,7-5.79,10.44-1,1.68-2,3.48-3.15,5l-3.67,4.64-3.7,4.6a31.12,31.12,0,0,1-4.06,4.43,103.35,103.35,0,0,1-18.87,14.94c-13.39,8.29-27.62,13.45-41.76,16.94a247.38,247.38,0,0,1-42.51,6.44,320.33,320.33,0,0,1-84.15-6l21-16.16a308,308,0,0,1-20.17,92.49,358.94,358.94,0,0,1-44.58,82.57c-18.4,25.41-40,48.74-65.64,67.89-6.2,5-13.13,9.15-19.78,13.62-3.46,2.06-7,4-10.54,6l-5.3,2.93-5.54,2.57a180.65,180.65,0,0,1-46.76,15.26,154,154,0,0,1-97.9-14c-29.74-15.21-53.9-38-73.16-63-20.32-26.77-31.37-58.74-36.34-90.11-5-31.57-4.46-63.07-1.3-93.81s9.14-60.92,16.54-90.53c7.64-29.55,16.84-58.53,27-87.11s21.71-56.54,33.73-84.27q18.48-41.37,38.69-81.86c27.27-53.77,55.84-107,89.06-157.32,33-50.34,69.14-99.1,114.16-140a5.88,5.88,0,0,1,9.16,7.07Z"/><path class="cls-6" d="M1033.48,1653a525.31,525.31,0,0,1,25.25-47.62q13.77-23.11,29.85-45a417,417,0,0,1,35.68-41.6,266.57,266.57,0,0,1,44.11-35.33,17.4,17.4,0,0,1,18.56,29.43c-.39.25-.78.48-1.18.69l-.41.21a235.46,235.46,0,0,0-40.47,27.36,389.34,389.34,0,0,0-36,35.64c-11.24,12.86-21.88,26.4-31.89,40.45a508.19,508.19,0,0,0-27.88,43.45l-.13.25a8.69,8.69,0,0,1-15.46-7.92Z"/><path class="cls-5" d="M2229.71,859.52h0a13.25,13.25,0,0,1-13.8-12.84L2196,454.61a13.51,13.51,0,0,1,12.42-14.38h0c76-4.48,140.81,55.83,144.81,134.69l6.79,133.7C2364,787.49,2305.68,855.05,2229.71,859.52Z"/><path class="cls-6" d="M2229,862.67a15.79,15.79,0,0,1-10.61-4.09,16.75,16.75,0,0,1-5.55-11.74l-19.91-392.07a16.67,16.67,0,0,1,15.36-17.66A136.67,136.67,0,0,1,2308,472.25c29.16,26.13,46.34,62.54,48.37,102.52l6.79,133.69c4.08,80.45-55.69,149.61-133.25,154.18h0C2229.58,862.66,2229.26,862.67,2229,862.67Zm-12.6-419.55c-2.57,0-5.16.07-7.75.22a10.41,10.41,0,0,0-9.48,11.11L2219,846.53a10.61,10.61,0,0,0,3.48,7.4,9.48,9.48,0,0,0,7,2.48h0c74.15-4.37,131.29-70.59,127.38-147.63l-6.79-133.7c-1.94-38.3-18.39-73.17-46.3-98.18A130.45,130.45,0,0,0,2216.35,443.12Z"/><g class="cls-8"><path class="cls-6" d="M2356.84,645.93l3.19,62.7c4,78.84-54.34,146.42-130.33,150.92a13.27,13.27,0,0,1-13.8-12.87l-5.33-104.22a13,13,0,0,0,12.34,7.37l9-.55C2291.9,745.76,2341,702.79,2356.84,645.93Z"/></g><path class="cls-6" d="M2228.93,876.93a30,30,0,0,1-20.11-7.73,31,31,0,0,1-10.27-21.63l-19.91-392.08c-.86-17,12-31.63,28.76-32.61a150.83,150.83,0,0,1,110.09,38.75c32,28.69,50.87,68.61,53.1,112.41l6.78,133.7c4.49,88.23-61.3,164.11-146.64,169.13h0C2230.13,876.91,2229.52,876.93,2228.93,876.93ZM2213.54,457.4l19.52,384.44c64.22-6.21,113-64.62,109.6-132.34l-6.79-133.69c-1.75-34.48-16.51-65.84-41.57-88.3A116.3,116.3,0,0,0,2213.54,457.4Z"/><path class="cls-5" d="M961.75,513.65h0a13.27,13.27,0,0,1,13.81,12.84l19.9,392.07A13.51,13.51,0,0,1,983,932.94h0c-76,4.48-140.81-55.83-144.81-134.69l-6.79-133.7C827.44,585.68,885.78,518.12,961.75,513.65Z"/><path class="cls-6" d="M975.1,936.3a136.64,136.64,0,0,1-91.62-35.38c-29.16-26.13-46.34-62.54-48.37-102.52l-6.79-133.7C824.24,584.26,884,515.1,961.57,510.53h0a16,16,0,0,1,11.56,4.07,16.74,16.74,0,0,1,5.54,11.73L998.58,918.4a16.67,16.67,0,0,1-15.36,17.66Q979.16,936.3,975.1,936.3ZM961.93,516.77c-74.14,4.36-131.28,70.58-127.37,147.62l6.79,133.7c1.94,38.3,18.39,73.17,46.3,98.18,26.44,23.7,60.23,35.63,95.21,33.55a10.39,10.39,0,0,0,9.48-11.1l-19.9-392.07a10.53,10.53,0,0,0-3.48-7.4,9.62,9.62,0,0,0-7-2.48Z"/><g class="cls-8"><path class="cls-6" d="M990,809.79l5.51,108.77A13.56,13.56,0,0,1,983,933c-39.87,2.33-76.72-13.16-103.28-39.86a144.29,144.29,0,0,1-41.5-94.82l-2.87-56.34c24.08,48.16,73.88,79.76,129.58,76.49l13.78-.81A13.37,13.37,0,0,0,990,809.79Z"/></g><path class="cls-6" d="M975.08,950.55a150.72,150.72,0,0,1-101.11-39c-32-28.69-50.87-68.61-53.1-112.41l-6.78-133.7c-4.48-88.24,61.3-164.11,146.64-169.13A30,30,0,0,1,982.64,504a30.87,30.87,0,0,1,10.27,21.63l19.91,392.07c.86,17-12,31.63-28.76,32.61C981.06,950.47,978.06,950.55,975.08,950.55ZM958.4,531.34c-64.22,6.2-113,64.61-109.6,132.32l6.79,133.7c1.75,34.48,16.51,65.84,41.57,88.29a116.29,116.29,0,0,0,80.76,30.11Zm4.37-.34Z"/><g class="cls-7"><path class="cls-6" d="M2036.4,1260q-20.4,20-42.45,38a641.19,641.19,0,0,1-56.3,41.36c-102.36,67-223.88,105.06-353.65,103.14-128.77-1.95-248.08-43-347.57-112q-23.27-16.17-45.09-34.37-22.75-19-43.71-39.92c26.16-39.23,53.14-76.55,80.16-111l.09,0c20.59-78,35.49-123.69,35.49-123.69h658.07s15.68,48.13,37.15,129.9C1984.87,1185.31,2011,1221.8,2036.4,1260Z"/></g><ellipse class="cls-5" cx="1595.81" cy="686.58" rx="669.27" ry="644.44" transform="translate(825.39 2243.65) rotate(-86.95)"/><path class="cls-6" d="M1593.37,1358.9c-3.15,0-6.26,0-9.42-.07-168.39-2.5-326.72-71.64-445.83-194.69C1012.45,1034.32,945,861.29,948.29,676.94c6.54-370.67,302.2-667.87,659.38-662.61C1776.06,16.83,1934.4,86,2053.5,209c125.67,129.83,193.09,302.85,189.83,487.2l-3.12-.06,3.12.06C2236.84,1063.61,1946.15,1358.9,1593.37,1358.9Zm4.89-1338.4C1248.83,20.5,961,313,954.53,677.06c-3.23,182.67,63.57,354.12,188.07,482.74,118,121.84,274.72,190.31,441.44,192.79,3.11,0,6.23.07,9.33.07,349.42,0,637.29-292.54,643.72-656.55h0C2240.31,513.43,2173.52,342,2049,213.36,1931.07,91.52,1774.3,23.05,1607.58,20.57Q1602.92,20.49,1598.26,20.5Z"/><g class="cls-8"><path class="cls-6" d="M2235.67,603.44a689.6,689.6,0,0,1,4.55,92.73c-6.57,369.54-300.35,664.82-656.23,659.56S944.89,1046.54,951.38,677c.19-10.63.61-21.26,1.29-31.72,37.69,326.37,302.42,581.15,628,586C1926.36,1236.4,2213.38,958,2235.67,603.44Z"/></g><path class="cls-6" d="M1593.37,1373.16c-3.22,0-6.4,0-9.63-.07-172.21-2.56-334.11-73.25-455.87-199C999.55,1041.49,930.71,864.86,934,676.69,940.66,301.53,1237.72,0,1598.26,0c3.21,0,6.39,0,9.62.07,172.21,2.56,334.1,73.25,455.86,199,128.33,132.57,197.17,309.2,193.84,497.37C2251,1071.63,1953.9,1373.16,1593.37,1373.16Zm4.89-1338.4c-341.68,0-623.19,286.3-629.47,642.55-3.16,178.86,62.2,346.69,184.06,472.57,115.29,119.11,268.5,186,431.4,188.46q4.56.06,9.11.06c341.68,0,623.18-286.3,629.47-642.55h0C2226,517,2160.62,349.16,2038.77,223.28c-115.29-119.11-268.5-186-431.41-188.46Q1602.8,34.76,1598.26,34.76Z"/><path class="cls-6" d="M2237.84,713.32c-.4,130.95-41.72,252.56-112.05,353.21-52.73,75.45-268.92,207.61-535.39,210.32-247.07,2.5-471.43-134.09-523.69-209.46a613.68,613.68,0,0,1-109.86-353c1.07-346.54,288.27-490.44,642-490.73S2238.92,366.78,2237.84,713.32Z"/><g class="cls-10"><ellipse class="cls-5" cx="2029.83" cy="671.41" rx="118.37" ry="82.68" transform="translate(1030.94 2561.7) rotate(-80.45)"/></g><g class="cls-10"><ellipse class="cls-5" cx="1927.85" cy="906.09" rx="54.25" ry="45.02" transform="translate(545.01 2526.38) rotate(-74.69)"/></g><g class="cls-8"><path class="cls-11" d="M2114.28,390.13c78,77.51,124,184,123.56,323.17-.41,131-41.75,252.58-112,353.23-52.74,75.45-269,207.61-535.42,210.34-94.09,1-184.85-18.24-264.11-46.61,327.5-10.61,590.86-172.81,656.25-266.4,89.27-127.74,141.7-282.1,142.19-448.27A702.27,702.27,0,0,0,2114.28,390.13Z"/></g><path class="cls-6" d="M1006,441.14a17.36,17.36,0,0,1-14.17-27.37C1105.6,241,1325.58,141.85,1595.47,141.63h.9c267.58,0,486.53,95.49,601,262.14a17.38,17.38,0,0,1-25.25,23.69l-1.59-1.41-1.3-1.84c-107.77-157.52-316.56-247.83-572.9-247.83h-.87c-258.2.22-467.74,93.85-574.88,256.9l-.89,1.22A17.43,17.43,0,0,1,1006,441.14Z"/><g class="cls-10"><path class="cls-5" d="M1100.05,925.4s-102.31-341.77,75.56-478.15,433.15-136,427.13-119c0,0-282.85,71.27-394.15,303.35C1122.76,810.54,1100.05,925.4,1100.05,925.4Z"/></g><path class="cls-6" d="M2229.28,1657.88a12.48,12.48,0,0,1-10.72-6.06c-30.59-50.88-117.85-54.51-118.72-54.54a12.49,12.49,0,0,1-12.06-12.92,12.32,12.32,0,0,1,12.89-12.06c4.14.13,101.69,4.06,139.31,66.64a12.5,12.5,0,0,1-10.7,18.94Z"/><path class="cls-6" d="M950.69,1657.88a12.33,12.33,0,0,1-6.42-1.79,12.5,12.5,0,0,1-4.28-17.15c37.63-62.58,135.18-66.51,139.31-66.64a12.5,12.5,0,1,1,.83,25c-1.4,0-88.22,3.82-118.71,54.54A12.49,12.49,0,0,1,950.69,1657.88Z"/><path class="cls-12" d="M18.49,4033c21.93,219.74,219.17,541.26,876.69,581.29S1643.54,4343.05,1976.43,4338s426.58,199.4,787.76,160.09c400.36-43.57,492-548.57,345.59-897-92.05-219.1-68.91-329-45-460,42.77-234.17-19.95-344.38-130.32-423.65C2811.26,2629,2700,2630.32,2593.29,2495s-280.16-232.52-503.14-200.12-80.16,123.65-470.48-9.44C1084.46,2103,965,2277.75,784.59,2384c-207.09,122-391.15,139.73-487.85,362.55-80,184.4-10.64,440-40.66,618.13C220.21,3577.51-11.54,3732.23,18.49,4033Z"/><g class="cls-13"><path class="cls-14" d="M3016.42,2795.67c-248.14,37.9-632.25,127.54-980.52,338.13-573.8,347-728.87,467.69-859.77,435.93-129.14-31.35-54.63-237.66-243.41-203.35-133.11,24.22-403.1,160.49-733.87,151.6,26.66-49.6,48.2-99.59,57.24-153.27,5-29.44,7.2-61,7.85-93.95,427.73-75.92,608.77-484.66,833.38-539.83,289.78-71.19-21.73,373.62,371.68,149.92,292.26-166.13,634.62-412.21,925.77-544.48,80.38,37.25,147.18,93.53,198.54,158.66,106.72,135.28,217.94,133.9,341.14,222.4C2966.17,2740.23,2994,2765.55,3016.42,2795.67Z"/></g><g class="cls-15"><path class="cls-14" d="M3064.77,3141.08c-15.82,86.63-31.3,164.07-13.31,270-745.23,99.67-1388.53,807.34-1601.26,846.8-287.72,53.38-388.07-138.4-576.85-104.09C767.93,4173,504,4319.3,291.55,4444.82,103.53,4323.53,31.24,4161,18.47,4033A519.37,519.37,0,0,1,16,3968.74c347.93,123.85,641.59-42.24,912-108.63,289.78-71.18,420.68,19.07,667.6-40.68,411.71-99.59,1114.62-596.75,1471.81-693.37Q3066.14,3133.49,3064.77,3141.08Z"/></g><path class="cls-6" d="M1006.73,4633.65q-53.46,0-112.51-3.53c-297.57-18.11-528.35-94.46-685.93-226.93C48,4268.43,10.68,4114.41,2.72,4034.6c-18.61-186.39,61.84-320.51,132.81-438.85,46.88-78.16,91.15-152,104.93-233.67,11.61-68.9,8-149.86,4.14-235.59-6-133.48-12.18-271.51,37.6-386.21,72.43-166.89,192.25-222.55,331-287,52.56-24.41,106.92-49.66,163.36-82.91,26-15.33,50.35-31.83,76.1-49.29,151.41-102.7,308-208.9,772.15-50.63,254.9,86.91,275.25,76.55,324.44,51.53,26.29-13.37,62.3-31.68,138.64-42.77,202.66-29.44,391.4,45.63,517.87,206,64,81.16,130.22,111.58,200.32,143.77,44.16,20.28,89.82,41.26,137.64,75.6,134.4,96.53,175.27,227.92,136.66,439.35l-1.59,8.71c-22.84,124.7-42.56,232.4,45.62,442.28,97.09,231.08,88.06,512.31-22.48,699.8-75.23,127.59-191.42,203.36-336,219.09-197.13,21.48-318.15-29-435.16-77.85-99.53-41.52-202.46-84.28-354.06-82.15-129.07,2-220.9,51.49-327.24,108.82C1506.58,4539.64,1332.22,4633.65,1006.73,4633.65ZM1224.11,2222c-169,0-262.3,63.3-353.66,125.28-25,17-50.92,34.53-77.82,50.38-57.77,34-112.84,59.61-166.09,84.35-138.35,64.26-247.63,115-315.26,270.86-46.87,108-40.84,242.3-35,372.19,3.92,87.46,7.62,170.06-4.55,242.27-14.77,87.58-60.53,163.89-109,244.69-71.79,119.7-146,243.47-128.47,419.43,7.49,75,42.71,219.94,194.44,347.49C381,4507,605.51,4580.82,896.14,4598.51c390.44,23.75,575.22-75.86,738.25-163.77,110-59.3,205-110.52,341.8-112.61,158.07-2.48,264.24,41.82,366.76,84.6,118.53,49.45,230.46,96.16,419.52,75.59,134.25-14.61,242.18-85,312.13-203.69,105.71-179.31,114-449.14,20.57-671.46-91.83-218.57-71.32-330.56-47.58-460.24l1.6-8.69c45.24-247.77-32.85-342.5-124-407.95-45.34-32.56-89.58-52.89-132.38-72.54-73.66-33.84-143.23-65.79-212-152.94-119.27-151.22-297.3-222-488.42-194.25-71.18,10.34-103.14,26.6-128.82,39.66-57.64,29.32-81.51,41.44-349-49.78C1448.45,2243.8,1323.26,2222,1224.11,2222Z"/><path class="cls-16" d="M1577.22,3349.85a258.67,258.67,0,0,1-10.79,30.49c-54.24-1.25-148.68-18.7-253.72-48.72s-194.44-65.12-241.14-92.72a262,262,0,0,1,7-31.59c.14-.5.28-1,.43-1.47q2-6.95,4.4-13.67a259.48,259.48,0,0,1,12.91-30.37c.2-.39.39-.79.6-1.18a259.38,259.38,0,0,1,489.68,137.31c-.09,1.31-.2,2.61-.33,3.92a258.22,258.22,0,0,1-5.09,32.6q-1.33,6-3,12.1C1577.84,3347.65,1577.54,3348.75,1577.22,3349.85Z"/><path class="cls-17" d="M1509.7,3463.54a259.4,259.4,0,0,1-405.65-54,261.15,261.15,0,0,1-28.3-70.08c58.87,28.93,131.63,56.79,211.92,79.74S1444.44,3457,1509.7,3463.54Z"/><path class="cls-17" d="M1566.43,3380.34c-54.22-1.25-148.68-18.7-253.71-48.73s-194.45-65.12-241.16-92.72a267.89,267.89,0,0,1,7-31.59c.14-.5.28-1,.43-1.47q2-6.95,4.4-13.66a261.09,261.09,0,0,1,12.91-30.38c.19-.39.39-.79.6-1.17a259.53,259.53,0,0,1,259.47-139.84c-88.42,5.44-251.17,119.78-124.54,250,76.36,78.52,299.86,98.91,337.47,102C1567,3379.81,1569.28,3373.63,1566.43,3380.34Z"/><path class="cls-18" d="M1287.67,3419.24c80.28,22.94,156.77,37.75,222,44.3a257.19,257.19,0,0,1-24,20.81c-51.24-3.85-126-18.35-207.63-41.68-78.18-22.34-146.75-48.25-192.4-71.32a259.45,259.45,0,0,1-9.94-31.85C1134.62,3368.43,1207.38,3396.29,1287.67,3419.24Z"/><path class="cls-18" d="M1578.13,3346.55c-.29,1.1-.59,2.2-.91,3.3a258.67,258.67,0,0,1-10.79,30.49c-54.24-1.25-148.68-18.7-253.72-48.72s-194.44-65.12-241.14-92.72a262,262,0,0,1,7-31.59c.14-.5.28-1,.43-1.47,42.3,28.51,132.3,65.43,239.38,96C1429.63,3333.69,1528.89,3350,1578.13,3346.55Z"/><path class="cls-18" d="M1116.45,3126.55l12-12.73c25.77,24.25,115.28,61.63,217.67,90.89,122.15,34.92,211.64,45,236.91,36.85l5.35,16.64c-33.44,10.74-132.72-4-247.06-36.68C1234.84,3191.09,1144.48,3152.93,1116.45,3126.55Z"/><path class="cls-18" d="M1183.36,3067.63l9.23-14.85c34.13,21.2,102,47.71,177.16,69.19,78.73,22.51,152,35.85,191.3,34.84l.45,17.48c-40.91,1.05-116.23-12.55-196.55-35.51C1288.36,3116.89,1218.78,3089.63,1183.36,3067.63Z"/><path class="cls-18" d="M1091.17,3167.26l11.37-13.28c30.82,26.38,123.57,64.69,230.81,95.35,112.48,32.15,215.76,48.64,251.13,40.1l4.11,17c-38.62,9.32-143.13-6.88-260-40.29C1217.4,3234.37,1124.23,3195.56,1091.17,3167.26Z"/><path class="cls-18" d="M1101.47,3413.11l2.58-3.52,1-4.28.89.2.74.54c28.39,20.76,93.39,47.5,165.58,68.14,72.6,20.75,140,32.13,175.77,29.71l.59,8.72c-36.76,2.49-105.26-9-178.76-30C1195.58,3461.37,1131.08,3434.75,1101.47,3413.11Z"/><path class="cls-6" d="M1327.61,3553.7a275.07,275.07,0,0,1-267.26-210.46l-8-32.87,30.36,14.93c60.15,29.55,132.51,56.77,209.29,78.71s152.58,37.08,219.25,43.77l33.65,3.38-24.13,23.68A276,276,0,0,1,1327.61,3553.7Zm-225.73-184.47A243.5,243.5,0,0,0,1471.82,3475c-59.11-8.11-123.53-21.92-188.51-40.5S1156.35,3393.58,1101.88,3369.23Z"/><path class="cls-19" d="M1708.59,3425.61c-10.44,36.53-88.66,49-198.89,37.93-65.26-6.55-141.75-21.36-222-44.3s-153.05-50.81-211.92-79.74c-99.42-48.85-159.24-100.77-148.79-137.3,9.48-33.18,74.84-46.5,169.3-40.4a259.48,259.48,0,0,0-12.91,30.37c-27.14-.48-43.84,3.23-46.24,11.62-2.44,8.54,10.29,20.82,34.46,35.11,46.7,27.6,136.11,62.7,241.14,92.72s199.48,47.47,253.72,48.72c28.06.64,45.36-3.05,47.8-11.6,2.39-8.37-9.83-20.36-33.11-34.29a258.22,258.22,0,0,0,5.09-32.6C1669.63,3346.59,1718.08,3392.44,1708.59,3425.61Z"/><path class="cls-19" d="M1084.87,3187.94c-.51,1.41-1,2.82-1.52,4.25-27.14-.49-43.85,3.2-46.24,11.59-2.45,8.56,10.3,20.85,34.46,35.12,31,18.3,80.76,39.92,141.44,61.16a37.64,37.64,0,0,0-9.55,11.2c-23.23-8.43-45.26-17.17-65.67-26-88.74-38.5-125.12-70.13-121.37-83.24C1018.6,3194.34,1037.76,3186.7,1084.87,3187.94Z"/><path class="cls-20" d="M1087.82,3173.89l-.12,3.54c-23.8-1.13-43.35-.66-59.12,1C1042.61,3174.54,1062.3,3173.06,1087.82,3173.89Z"/><path class="cls-20" d="M1087.59,3181l.11-3.52c.42,0,.87,0,1.32.07Z"/><path class="cls-19" d="M1028.58,3178.41c-14.65,4-23.14,10.54-25.77,19.71-2.54,8.94,1.3,18.46,9.58,28.17,21.61,25.32,73.39,51.82,119.76,71.92,21,9.11,43.66,18.08,67.55,26.75-.27,7.35,2,15.2,6.47,23.46-35.44-12.65-68.74-26.18-98.83-40.15-107.28-49.82-139.33-88.49-134.2-106.47C976,3191.82,992.49,3182.12,1028.58,3178.41Z"/><path class="cls-19" d="M1282.73,3417.81c-78.34-22.65-149.32-50-207-78.31C976.32,3290.65,916.5,3238.72,927,3202.18c9.48-33.16,74.85-46.47,169.31-40.38q-2.17,4.34-4.19,8.79l.39-7.1c-55.29-3-123.25.53-132.91,34.42-3.75,13.11,2.12,26.93,13.79,40.61,27.49,32.19,87.05,63.55,128,82.58,36,16.71,76.44,32.76,119.53,47.47C1235.16,3384.3,1256.17,3401,1282.73,3417.81Z"/><path class="cls-21" d="M1199.7,3325c-23.89-8.67-46.57-17.64-67.55-26.75-46.37-20.1-98.15-46.6-119.76-71.92-8.28-9.71-12.12-19.23-9.58-28.17,2.63-9.17,11.12-15.74,25.77-19.71,15.77-1.64,35.32-2.11,59.12-1l-.11,3.52c-.93,2.32-1.83,4.65-2.72,7-47.11-1.24-66.27,6.4-68.45,14.06-3.75,13.11,32.63,44.74,121.37,83.24,20.41,8.85,42.44,17.59,65.67,26a29.63,29.63,0,0,0-2.62,6.31A30,30,0,0,0,1199.7,3325Z"/><path class="cls-22" d="M1087.7,3177.43c-23.8-1.13-43.35-.66-59.12,1,14-3.87,33.72-5.35,59.24-4.52Z"/><path class="cls-22" d="M1087.59,3181l-.22,7.06c-.84,0-1.68-.06-2.5-.07C1085.76,3185.6,1086.66,3183.27,1087.59,3181Z"/><path class="cls-21" d="M1483.65,3398.7c-54.1-8.07-115.91-21.79-178.76-39.76-36.54-10.45-72-21.91-105.19-34a30,30,0,0,1,1.14-7.39,29.63,29.63,0,0,1,2.62-6.31c33.13,12.12,68.7,23.62,105.32,34.09,62.27,17.78,123.46,31.39,176.94,39.34,95.69,14.21,143.29,6.57,147-6.51,2.22-7.83-10.48-24.88-52.86-49.35l5.33-9.21,1.76-3.06c22.21,12.83,38.19,24.53,48.07,35.24,10.2,11.08,13.9,21.11,11.3,30.26C1637.12,3414.39,1552.77,3409,1483.65,3398.7Z"/><path class="cls-21" d="M1220.9,3368.57c-43.09-14.71-83.57-30.76-119.53-47.47-41-19-100.54-50.39-128-82.58-11.67-13.68-17.54-27.5-13.79-40.61,9.66-33.89,77.62-37.42,132.91-34.42l-.39,7.1c-1.06,2.3-2.08,4.59-3,6.91-.45,0-.9-.07-1.32-.07l.12-3.54c-25.52-.83-45.21.65-59.24,4.52-36.09,3.71-52.59,13.41-55.44,23.39-5.13,18,26.92,56.65,134.2,106.47,30.09,14,63.39,27.5,98.83,40.15A106.36,106.36,0,0,0,1220.9,3368.57Z"/><path class="cls-19" d="M1087.82,3173.89l-.12,3.54c-23.8-1.13-43.35-.66-59.12,1C1042.61,3174.54,1062.3,3173.06,1087.82,3173.89Z"/><path class="cls-22" d="M1092.07,3170.59l-.38,7c-.91,0-1.8-.09-2.67-.12C1090,3175.18,1091,3172.89,1092.07,3170.59Z"/><path class="cls-21" d="M1497.67,3434.38c-61.4-7.51-131.32-22.19-202.21-42.46-25.46-7.26-50.41-15.09-74.56-23.35a106.36,106.36,0,0,1-14.73-20.15c29.8,10.67,61.11,20.72,93.2,29.9,70.18,20.07,139.34,34.59,200,42,117.41,14.39,165.06-1.51,170.2-19.47,2.84-10-6-26.88-34.54-49.07-12.56-9.75-28.94-20.53-49.83-32.18-1.16-.63-2.33-1.28-3.5-1.94l6.82-12.39c48.52,26.66,104.33,65.58,94.66,99.45C1670.63,3448.77,1561.58,3442.21,1497.67,3434.38Z"/><path class="cls-6" d="M1581.31,3483.24c-26.18,0-51.89-1.81-73.19-3.94-68.52-6.88-146.26-22.39-224.81-44.84s-152.74-50.37-214.55-80.75c-66-32.43-174.2-95.82-157-155.86,14.81-51.8,109.09-56.81,185.56-51.85l23.87,1.54-10.73,21.36a246.62,246.62,0,0,0-12.12,28.53l-3.79,10.78-11.44-.2c-12.94-.25-21,.59-25.94,1.5,3.82,3.5,10.6,8.72,22.51,15.76,47,27.78,138,62.7,237.43,91.13s195.14,46.86,249.73,48.12c13.82.3,22.32-.54,27.41-1.49-3.68-3.37-10.11-8.34-21.23-15l-9.81-5.87,2.48-11.15a242.4,242.4,0,0,0,4.78-30.62l2.18-23.82,21.1,11.31c67.53,36.23,144.93,90.28,130.13,142.07h0C1711.66,3472.54,1645.1,3483.24,1581.31,3483.24Zm-526.95-307c-71.15,0-107.56,14.2-112.17,30.34-6,21,35.43,67.09,140.55,118.75,60.15,29.55,132.51,56.77,209.29,78.71s152.58,37.08,219.25,43.77c116.56,11.71,176.08-5.54,182.08-26.52,4.94-17.28-22.26-52-92.61-93.13,18,12.15,33.75,27.35,28.71,45-6.17,21.6-37.14,23.69-63.38,23.09-58-1.34-154.32-19.78-257.73-49.34s-194.93-64.81-244.85-94.31c-22.62-13.38-47.8-31.51-41.63-53.09,5-17.63,26.48-22.2,48.19-23Q1061.95,3176.21,1054.36,3176.21Zm654.24,249.4h0Z"/><g class="cls-23"><path class="cls-5" d="M1565.91,3381.06q-9.48-.21-20.52-1.09c2.56-6.76,4.87-13.71,6.9-20.78l.9-3.29q1.66-6.06,3-12.11a260.09,260.09,0,0,0,5.1-32.6c.12-1.31.22-2.61.32-3.91a255.85,255.85,0,0,0-.86-48.06A259.45,259.45,0,0,0,1229,3039.31a259.29,259.29,0,0,1,357,259.34c-.08,1.31-.2,2.61-.32,3.92a257.51,257.51,0,0,1-5.09,32.59q-1.33,6.08-3,12.1c-.29,1.11-.59,2.21-.92,3.31A261.1,261.1,0,0,1,1565.91,3381.06Z"/></g><path class="cls-6" d="M1576.81,3396.42l-10.74-.24c-58-1.34-154.31-19.78-257.72-49.34s-194.93-64.81-244.85-94.31l-9.24-5.46,1.65-10.6a277.71,277.71,0,0,1,7.38-33.51c1.54-5.42,3.27-10.82,5.12-16.06a275.78,275.78,0,0,1,13.69-32.2c59.24-117.82,194.41-177,321.4-140.69S1614,3172,1602,3303.28a275.32,275.32,0,0,1-5.41,34.6c-1.2,5.42-2.59,10.92-4.13,16.32h0a278.54,278.54,0,0,1-11.44,32.34Zm-487.67-165.76c49.12,26.81,134.82,59.12,227.93,85.74s182.93,44.47,238.8,47.67c2.27-6.09,4.32-12.3,6.12-18.57,1.36-4.78,2.59-9.65,3.66-14.46a243.27,243.27,0,0,0,4.78-30.64c10.6-116.18-63.28-223.82-175.65-255.94s-232,20.22-284.36,124.45a245.74,245.74,0,0,0-12.12,28.52c-1.64,4.64-3.17,9.43-4.54,14.23C1092,3217.92,1090.42,3224.28,1089.14,3230.66Zm488.08,119.19h0Z"/><path class="cls-24" d="M1080.28,3726.76V2836.88H854.54L719.89,3155.37,537.12,3587.59l-58.85,139.17v188.11H873.35v238.92h206.93V3914.87h97.85V3726.76Zm-206.93,0h-207L705.83,3627l105.66-267,58.1-146.88h3.76Z"/><polygon class="cls-5" points="1080.28 2856.4 1080.28 3137.07 873.35 3308.71 873.35 3213.15 869.59 3213.15 811.49 3360.03 537.12 3587.59 719.89 3155.37 1080.28 2856.4"/><polygon class="cls-5" points="666.39 3726.76 835.45 3726.76 608.64 3914.87 478.27 3914.87 478.27 3815.78 705.83 3627 666.39 3726.76"/><polygon class="cls-5" points="1080.28 3316.43 1080.28 3523.67 873.35 3695.31 873.35 3488.07 1080.28 3316.43"/><path class="cls-24" d="M1886.31,3064.32q-16.51-98-74.21-159.72a243.87,243.87,0,0,0-34.22-30.38q-76.34-56.13-199-56.15-152.37,0-233.3,86.53t-80.87,244.59v692.34q0,126.88,52.19,207.71a258.75,258.75,0,0,0,28.68,36.83q80.91,86.55,233.3,86.54t233.26-86.54q80.91-86.49,80.91-244.54V3149.19A506.31,506.31,0,0,0,1886.31,3064.32Zm-200.23,790.35q0,129.81-107.24,129.82-77.64,0-99.09-68.08-8.14-25.89-8.16-61.74V3136c0-4.2.08-8.32.28-12.28q4.94-117.49,107-117.5a138.47,138.47,0,0,1,32.71,3.6q74.49,18,74.53,126.18Z"/><g class="cls-25"><path class="cls-5" d="M1264.67,3292.67l207.2-169c-.2,4-.28,8.08-.28,12.28v266.45l-206.92,168.71Z"/></g><g class="cls-25"><path class="cls-5" d="M1686.08,3227.56V3136q0-108.24-74.53-126.18l166.33-135.6a243.87,243.87,0,0,1,34.22,30.38q57.68,61.72,74.21,159.72Z"/></g><g class="cls-25"><path class="cls-5" d="M1471.59,3854.67q0,35.82,8.16,61.74l-162.89,132.83q-52.21-80.79-52.19-207.71v-28.2l206.92-168.71Z"/></g><g class="cls-25"><polygon class="cls-5" points="1893.01 3301.07 1893.01 3579.51 1686.08 3748.22 1686.08 3469.73 1893.01 3301.07"/></g><path class="cls-6" d="M1080.29,4169.65H873.35a15.84,15.84,0,0,1-15.85-15.84V3930.72H478.27a15.85,15.85,0,0,1-15.85-15.84V3726.75a15.88,15.88,0,0,1,1.25-6.16l376.26-889.87a15.85,15.85,0,0,1,14.6-9.67h225.76a15.84,15.84,0,0,1,15.85,15.83v874h82a15.84,15.84,0,0,1,15.84,15.83v188.13a15.84,15.84,0,0,1-15.84,15.84h-82v223.09A15.85,15.85,0,0,1,1080.29,4169.65ZM889.19,4138h175.25v-223.1a15.84,15.84,0,0,1,15.85-15.83h82V3742.59h-82a15.85,15.85,0,0,1-15.85-15.84v-874H865L494.11,3730v169.09H873.35a15.84,15.84,0,0,1,15.84,15.83Zm-15.84-395.39h-207a15.83,15.83,0,0,1-14.74-21.66l203.18-513.6a15.86,15.86,0,0,1,14.74-10h3.77a15.84,15.84,0,0,1,15.84,15.84v513.6A15.84,15.84,0,0,1,873.35,3742.59ZM689.7,3710.92H857.5V3286.76Z"/><path class="cls-24" d="M2585.31,3726.76V2836.88H2359.57l-134.65,318.49-182.77,432.22-58.85,139.17v188.11h395.08v238.92h206.93V3914.87h97.85V3726.76Zm-206.93,0h-207l39.44-99.76,105.66-267,58.1-146.88h3.76Z"/><polygon class="cls-5" points="2585.31 2856.4 2585.31 3137.07 2378.38 3308.71 2378.38 3213.15 2374.62 3213.15 2316.52 3360.03 2042.15 3587.59 2224.92 3155.37 2585.31 2856.4"/><polygon class="cls-5" points="2171.42 3726.76 2340.48 3726.76 2113.68 3914.87 1983.3 3914.87 1983.3 3815.78 2210.86 3627 2171.42 3726.76"/><polygon class="cls-5" points="2585.31 3316.43 2585.31 3523.67 2378.38 3695.31 2378.38 3488.07 2585.31 3316.43"/><path class="cls-6" d="M2585.32,4169.65H2378.38a15.84,15.84,0,0,1-15.85-15.84V3930.72H1983.3a15.85,15.85,0,0,1-15.85-15.84V3726.75a15.88,15.88,0,0,1,1.25-6.16L2345,2830.72a15.85,15.85,0,0,1,14.6-9.67h225.76a15.84,15.84,0,0,1,15.85,15.83v874h82a15.84,15.84,0,0,1,15.84,15.83v188.13a15.84,15.84,0,0,1-15.84,15.84h-82v223.09A15.85,15.85,0,0,1,2585.32,4169.65ZM2394.22,4138h175.25v-223.1a15.84,15.84,0,0,1,15.85-15.83h82V3742.59h-82a15.85,15.85,0,0,1-15.85-15.84v-874H2370.06L1999.14,3730v169.09h379.24a15.84,15.84,0,0,1,15.84,15.83Zm-15.84-395.39h-207a15.83,15.83,0,0,1-14.74-21.66l203.19-513.6a15.84,15.84,0,0,1,14.73-10h3.77a15.84,15.84,0,0,1,15.84,15.84v513.6A15.84,15.84,0,0,1,2378.38,3742.59Zm-183.65-31.67h167.8V3286.77Z"/><path class="cls-6" d="M1578.83,4188.46c-105.7,0-188.09-30.81-244.86-91.56h0c-56.51-60.42-85.17-146.34-85.17-255.39V3149.18c0-109,28.66-194.92,85.17-255.38,56.79-60.76,139.18-91.56,244.86-91.56s188,30.8,244.86,91.56c56.51,60.49,85.17,146.41,85.17,255.38v692.33c0,109-28.66,194.93-85.17,255.38C1766.9,4157.66,1684.52,4188.46,1578.83,4188.46Zm0-1354.55c-96.55,0-171.14,27.42-221.7,81.51-50.85,54.4-76.64,133-76.64,233.76v692.33c0,100.75,25.79,179.4,76.63,233.76a0,0,0,0,1,0,0c50.53,54.08,125.12,81.51,221.7,81.51s171.14-27.43,221.7-81.52c50.85-54.39,76.63-133,76.63-233.76V3149.18c0-100.69-25.78-179.34-76.63-233.76C1750,2861.33,1675.36,2833.91,1578.83,2833.91Zm0,1166.42c-56.15,0-123.08-25.27-123.08-145.65V3136c0-120.37,66.93-145.64,123.08-145.64s123.08,25.27,123.08,145.64v718.67C1701.91,3975.06,1635,4000.33,1578.83,4000.33Zm0-978.29c-39.23,0-91.39,11.82-91.39,114v718.67c0,102.16,52.16,114,91.39,114s91.39-11.82,91.39-114V3136C1670.22,3033.86,1618.06,3022,1578.83,3022Z"/><path class="cls-16" d="M2990.18,4276.91c-76.07,76.07-199.4,76.07-275.48,0q-5.38-5.38-10.28-11.1a193.22,193.22,0,0,1-25-37.1h0a195.27,195.27,0,0,1-6.62-164.88,192.91,192.91,0,0,1,14.11-27.35q4.62-7.42,10-14.53a195.33,195.33,0,0,1,138.5-76.81c6.48-.56,13-.8,19.48-.73a195.28,195.28,0,0,1,45.69,6c.89.22,1.8.46,2.69.7a193.52,193.52,0,0,1,54.13,23.91h0a194.68,194.68,0,0,1,32.83,301.91Z"/><path class="cls-26" d="M3025.71,4139.17a173.27,173.27,0,1,1-346.53,0s77.57,63.23,173.26,63.23S3025.71,4139.17,3025.71,4139.17Z"/><path class="cls-26" d="M2679.17,4139.17s35.26,28.74,87.57,47.47c-5.9,11.14-11.56,22.88-17.2,34.29-2.67,5.38-6.35,8.87-10.55,10.62-6.11,2.54-9.86,7.66-13.16,12.33-1.52,2.13-3,4.44-4.29,6.71-.24.4-.49.81-.76,1.21A172.52,172.52,0,0,1,2679.17,4139.17Z"/><path class="cls-26" d="M2969.64,4185.2c4.37,5.73,2,12-3.19,15.52s-10.58,6.91-15.59,10.48a63.92,63.92,0,0,0-22.85,29.22c-3.91,10.41-11.16,19.71-20,27.1-9.09,7.59-17.4,16.28-27,23.4-8,6-16.7,11.81-27.26,14.63-4.75,1.28-9.25,1.19-12.86-1.41-3.44-2.47-4.11-6.62-1.78-12.41a78.2,78.2,0,0,1,4.07-8.76,47.47,47.47,0,0,0,5.64-19.67c1.14-16,5.85-30.83,12.39-45.32a59.79,59.79,0,0,0,4.8-16c35.91-2.2,68.78-12.8,95.21-24.66a35.42,35.42,0,0,0,2.58,2.63,15.33,15.33,0,0,1,1.12,1.16,1,1,0,0,1,.88.82A9.41,9.41,0,0,1,2969.64,4185.2Z"/><path class="cls-26" d="M2993.75,4160.57a18.61,18.61,0,0,1-2.76,12.19,16.91,16.91,0,0,1-6.51,6.47,7.81,7.81,0,0,1-3.82,1.55,5.94,5.94,0,0,1-4.74.69c-4.78.07-8.57-2.1-11.63-5.54C2975.39,4170.81,2985.29,4165.51,2993.75,4160.57Z"/><path class="cls-26" d="M3025.71,4139.17a173.59,173.59,0,0,1-6.59,47.52,97.29,97.29,0,0,0-8.62-24.46,74.88,74.88,0,0,0-5.2-8.73A239.24,239.24,0,0,0,3025.71,4139.17Z"/><path class="cls-27" d="M2691.24,4088.31c-2.1,2.13-4.16,1.16-6.16.22a11.64,11.64,0,0,1-5.88-6c-1.47-3.42-3.1-6.83-3.58-10.52a21.84,21.84,0,0,0-2.85-8.2,192.91,192.91,0,0,1,14.11-27.35c.41.17.82.32,1.24.48,4.21,1.64,5.4,5.1,3.34,10-.76,1.79-1.85,3.51-2.8,5.25-1.06,1.91-.93,3.06,1.07,3.8,4.42,1.62,5.6,4,4.73,8.47-.08.36-.16.73-.25,1.11,0,0,0,0,0,0a49.9,49.9,0,0,0-1.45,8.46q.51,3.06,1,6.15A9,9,0,0,1,2691.24,4088.31Z"/><path class="cls-27" d="M2824.68,3985.35c-2.91,6.87-9.17,13.63-17.82,15.35a31.18,31.18,0,0,1-12.62-.46c-9.86-2.14-19.88,2-27.25,6-11.72,6.36-23.47,12.73-35.25,19-3.67,2-6.62,4.49-8,8.43a19,19,0,0,1-1.18,2.45c-1.82,3.64-4.32,6.48-8.3,7s-6.58-1.32-8-4.53c-1.06-2.38-1.14-5.17-1.78-7.67-1.14-4.53-3.26-7.94-7.66-9a195.33,195.33,0,0,1,138.5-76.81c-1.52,1-3,2-4.58,3a37.07,37.07,0,0,0-4.28,3.42c-3.25,3-4.28,5.09-3.46,7.68s2,4.85,2.89,7.47A26.45,26.45,0,0,1,2824.68,3985.35Z"/><path class="cls-27" d="M2900.52,3950.38l-.73.44c-.69.48-1.38,1-2.08,1.43-7.27,4.06-14.35,7.13-23.58,7.71-4.31.27-8.81,2.06-13.27,6.66-3.92,4-8,6.88-11.79,5.43-4-1.5-5-5.42-3.65-10.69.86-3.5,2.87-7,5.11-10.41,1.41-2.19,2.95-4.36,4.3-6.56A195.28,195.28,0,0,1,2900.52,3950.38Z"/><path class="cls-27" d="M3028.7,4222.22c-3.48.48-6.18-1.51-7.36-5.65a22.48,22.48,0,0,1-.45-7.07,94.13,94.13,0,0,0-10.38-47.27,79.28,79.28,0,0,0-18.63-23.8c-1.09-1-2.23-2.13-3.65-1s-1.45,3.17-1.35,5a10.72,10.72,0,0,0,1.22,4.42c.9,1.74,1.82,3.51,2.78,5.15,4,6.79,4,14.65.1,20.68a16.76,16.76,0,0,1-6.49,6.48,7.89,7.89,0,0,1-3.84,1.56,5.84,5.84,0,0,1-4.74.67c-5.66.1-9.93-2.95-13.23-7.55-6.37-8.86-7-19.88-7.06-29.36,0-3,.29-6.08-.52-8.87-.45-1.53-.9-3.48-2.62-3.1s-1.88,2.5-2.06,4.22c-1.41,14.08.51,31.16,13.4,43.14.39.36.76.79,1.12,1.17a1,1,0,0,1,.88.83,9.3,9.3,0,0,1,3.82,3.26c4.36,5.74,2,12.05-3.19,15.53s-10.59,6.9-15.6,10.46a64,64,0,0,0-22.84,29.24c-3.91,10.39-11.16,19.7-20,27.08-9.09,7.6-17.4,16.29-27,23.41-8,6-16.69,11.81-27.25,14.63-4.75,1.27-9.25,1.18-12.86-1.41-3.44-2.48-4.11-6.62-1.78-12.41a77.23,77.23,0,0,1,4.07-8.75,47.71,47.71,0,0,0,5.64-19.68c1.15-16,5.84-30.84,12.4-45.32,5.34-11.8,6.78-23.9,4.29-37.42a69.77,69.77,0,0,0-2.68-9.58c-1.87-5.63-5.53-8.52-10.54-9.44-23.88-4.36-25.16-26.66-22.9-41.56,3.43-22.63,24.44-54.21,51.11-58.48,14.88-2.38,26.21,1.93,36.07,13.24,6.67,7.67,12.82,16.2,21.84,21.75a34.31,34.31,0,0,0,13.43,5,3.33,3.33,0,0,0,.76.08c2.12-.19,4.73-.06,5.56-3.16.73-2.74-1.54-4-3-4.92-7.07-4.44-7.85-12.09-6.94-18.48.52-3.63-.72-6.21-3-7.22-7.82-3.44-13.29-8.27-19.27-14.43-7.12-7.34-16.44-5.7-23.18-2.58-4.24,2-10.62,5.15-16.29,4.87a14.11,14.11,0,0,1-9.3-3.76c-6.88-6.67-2.65-17.5,2.72-22.61a38,38,0,0,1,12.5-7.73c9.53-3.76,15.61-10.94,20.6-18.41,4-5.9,8-12.51,13.4-17.35,7.2-6.41,16.33-12.15,28.5-11.14.83.07,1.67.18,2.49.31a0,0,0,0,1,0,0,195.06,195.06,0,0,1,71.35,247.22Z"/><path class="cls-27" d="M2707.83,4263.75a14.18,14.18,0,0,0-3.41,2.05,193.22,193.22,0,0,1-25-37.1h0c0-.28.06-.56.1-.84.79-7.41,1.64-14.92,2.74-22.33.68-4.51,1.23-9.09,1.59-13.8a28.56,28.56,0,0,0-2.14-14c-3.84-8.91-8.22-18.09-10.45-27-2.78-11.05-2.54-21,2.67-30.42,4.55-8.27,10.63-16.88,15.48-25.18,3.72-6.38,11.69-12.09,21.35-8.18,18.14,7.34,27.63,22.54,33.05,37.46,2,5.45,3.18,11.54,5.06,16.8s4.77,10.82,10.58,14.55c4.1,2.62,8,5.8,10.36,11.09a18.68,18.68,0,0,1-.57,15.18c-6.81,12.46-13.25,25.87-19.68,38.88-2.65,5.37-6.33,8.87-10.54,10.61-6.12,2.55-9.87,7.67-13.16,12.33-1.51,2.13-2.95,4.44-4.29,6.71C2718.41,4255.84,2714.1,4261.05,2707.83,4263.75Z"/><path class="cls-28" d="M2969.64,4185.2c4.37,5.73,2,12-3.19,15.52s-10.58,6.91-15.59,10.48a63.92,63.92,0,0,0-22.85,29.22c-3.91,10.41-11.16,19.71-20,27.1-9.09,7.59-17.4,16.28-27,23.4-8,6-16.7,11.81-27.26,14.63-4.75,1.28-9.25,1.19-12.86-1.41-3.44-2.47-4.11-6.62-1.78-12.41a78.2,78.2,0,0,1,4.07-8.76,47.47,47.47,0,0,0,5.64-19.67c1.14-16,5.85-30.83,12.39-45.32a59.79,59.79,0,0,0,4.8-16c35.91-2.2,68.78-12.8,95.21-24.66a35.42,35.42,0,0,0,2.58,2.63,15.33,15.33,0,0,1,1.12,1.16,1,1,0,0,1,.88.82A9.41,9.41,0,0,1,2969.64,4185.2Z"/><path class="cls-28" d="M2993.75,4160.57a18.61,18.61,0,0,1-2.76,12.19,16.91,16.91,0,0,1-6.51,6.47,7.81,7.81,0,0,1-3.82,1.55,5.94,5.94,0,0,1-4.74.69c-4.78.07-8.57-2.1-11.63-5.54C2975.39,4170.81,2985.29,4165.51,2993.75,4160.57Z"/><path class="cls-28" d="M3025.71,4139.17a173.59,173.59,0,0,1-6.59,47.52,97.29,97.29,0,0,0-8.62-24.46,74.88,74.88,0,0,0-5.2-8.73A239.24,239.24,0,0,0,3025.71,4139.17Z"/><path class="cls-28" d="M2766.74,4186.64c-5.9,11.14-11.56,22.88-17.2,34.29-2.67,5.38-6.35,8.87-10.55,10.62-6.11,2.54-9.86,7.66-13.16,12.33-1.52,2.13-3,4.44-4.29,6.71-.24.4-.49.81-.76,1.21a172.52,172.52,0,0,1-41.61-112.63S2714.43,4167.91,2766.74,4186.64Z"/><circle class="cls-29" cx="2852.44" cy="4139.17" r="194.79"/><path class="cls-6" d="M2852.44,4349.79a209.26,209.26,0,0,1-148.94-61.69c-82.13-82.12-82.13-215.74,0-297.86a210.64,210.64,0,0,1,297.88,0c82.12,82.12,82.12,215.74,0,297.86A209.26,209.26,0,0,1,2852.44,4349.79Zm0-389.57a177.73,177.73,0,0,0-126.52,52.41c-69.78,69.78-69.78,183.31,0,253.08a178.94,178.94,0,0,0,253,0c69.77-69.78,69.77-183.31,0-253.09A177.76,177.76,0,0,0,2852.44,3960.22Z"/><polygon class="cls-5" points="2506.88 2606.11 2482.39 2611.69 2476.8 2650.4 2471.22 2611.69 2446.73 2606.11 2471.22 2600.53 2476.8 2561.83 2482.39 2600.53 2506.88 2606.11"/><polygon class="cls-5" points="1392.59 2720.3 1368.1 2725.88 1362.52 2764.58 1356.93 2725.88 1332.44 2720.3 1356.93 2714.71 1362.52 2676.01 1368.1 2714.71 1392.59 2720.3"/><polygon class="cls-5" points="481.48 2910.03 454.88 2916.09 448.82 2958.13 442.76 2916.09 416.16 2910.03 442.76 2903.96 448.82 2861.93 454.88 2903.96 481.48 2910.03"/><polygon class="cls-5" points="739.45 2618.63 722.35 2622.52 718.45 2649.55 714.55 2622.52 697.45 2618.63 714.55 2614.73 718.45 2587.7 722.35 2614.73 739.45 2618.63"/><polygon class="cls-5" points="852.26 3606.74 827.77 3612.32 822.19 3651.02 816.61 3612.32 792.12 3606.74 816.61 3601.16 822.19 3562.45 827.77 3601.16 852.26 3606.74"/><polygon class="cls-5" points="739.4 3972.43 722.34 3976.32 718.45 4003.29 714.56 3976.32 697.5 3972.43 714.56 3968.54 718.45 3941.58 722.34 3968.54 739.4 3972.43"/><polygon class="cls-5" points="470 3464.49 452.93 3468.38 449.05 3495.35 445.16 3468.38 428.09 3464.49 445.16 3460.61 449.05 3433.64 452.93 3460.61 470 3464.49"/><polygon class="cls-5" points="214.5 3909.51 180.45 3917.27 172.7 3971.07 164.94 3917.27 130.89 3909.51 164.94 3901.76 172.7 3847.95 180.45 3901.76 214.5 3909.51"/><polygon class="cls-5" points="945.82 4444.82 921.32 4450.4 915.74 4489.11 910.16 4450.4 885.67 4444.82 910.16 4439.24 915.74 4400.53 921.32 4439.24 945.82 4444.82"/><polygon class="cls-5" points="2577.03 4333.96 2560.26 4337.78 2556.43 4364.29 2552.61 4337.78 2535.84 4333.96 2552.61 4330.14 2556.43 4303.63 2560.26 4330.14 2577.03 4333.96"/><polygon class="cls-5" points="2140.73 4099.95 2116.23 4105.53 2110.65 4144.23 2105.07 4105.53 2080.58 4099.95 2105.07 4094.37 2110.65 4055.66 2116.23 4094.37 2140.73 4099.95"/><polygon class="cls-5" points="1686.07 4286.65 1661.57 4292.23 1655.99 4330.93 1650.41 4292.23 1625.92 4286.65 1650.41 4281.07 1655.99 4242.36 1661.57 4281.07 1686.07 4286.65"/><polygon class="cls-5" points="2899.6 3759.49 2875.11 3765.07 2869.52 3803.78 2863.94 3765.07 2839.45 3759.49 2863.94 3753.91 2869.52 3715.21 2875.11 3753.91 2899.6 3759.49"/><polygon class="cls-5" points="2811.49 3156.69 2776.49 3164.67 2768.51 3219.99 2760.54 3164.67 2725.53 3156.69 2760.54 3148.72 2768.51 3093.4 2776.49 3148.72 2811.49 3156.69"/><polygon class="cls-5" points="2054.6 3248.18 2035.23 3252.59 2030.82 3283.2 2026.4 3252.59 2007.03 3248.18 2026.4 3243.76 2030.82 3213.15 2035.23 3243.76 2054.6 3248.18"/><polygon class="cls-5" points="1602.87 3794.5 1573.31 3801.23 1566.57 3847.95 1559.84 3801.23 1530.27 3794.5 1559.84 3787.76 1566.57 3741.04 1573.31 3787.76 1602.87 3794.5"/><path class="cls-30" d="M619,4184.94a163.36,163.36,0,1,1-248.94-156.4c3.65-2.29,7.4-4.42,11.21-6.4A164,164,0,0,1,447.52,4004l.61,0c1.42-.08,2.83-.14,4.26-.17q4.23-.12,8.46,0a163.75,163.75,0,0,1,75.08,20.54c1.27.71,2.53,1.43,3.78,2.17.75.44,1.5.9,2.23,1.36A163.35,163.35,0,0,1,619,4184.94Z"/><path class="cls-31" d="M619,4185a163,163,0,0,1-19.61,61.48,163.36,163.36,0,0,1-304.87-99.73,163.37,163.37,0,0,0,321.24,16.68,161.35,161.35,0,0,0,2.94-16.58A163.84,163.84,0,0,1,619,4185Z"/><path class="cls-31" d="M556,4185c-4.46,19.9,1.65,36,13.64,36s26.41-15.68,30.87-35.58-2.73-36.52-14.72-36.49S560.41,4165.1,556,4185Z"/><path class="cls-32" d="M547.13,4171.85c-7.48,18.5-5.42,46.67,14.34,56.06a1.2,1.2,0,0,1-.34,2.34c-26.58-2.47-33.26-43-16.42-60.05a1.5,1.5,0,0,1,2.42,1.65Z"/><path class="cls-31" d="M382,4055.62c-9,.37-16,6.86-15.77,14.51s7.71,13.54,16.66,13.17,16-6.86,15.77-14.5S390.94,4055.25,382,4055.62Z"/><ellipse class="cls-30" cx="386.04" cy="4074.11" rx="12.2" ry="9.84" transform="translate(-1390.26 387.35) rotate(-20.31)"/><path class="cls-32" d="M382.93,4084.66c-11.39,2-23.59-9.76-17.92-21.18,4.95-10.66,20.1-13.48,29.21-6.63,6.26,4.19,8.41,13.67,3.59,19.63a.6.6,0,0,1-1-.64c7.05-13.69-11.07-23.59-22.09-17-13.92,7.48-6.38,24.18,8.15,24.32a.73.73,0,0,1,.06,1.46Z"/><path class="cls-32" d="M403.4,4059.65c10.45,12.49-.53,30.11-14.9,32.75-10.37,2.4-22.51-1.19-28.25-10.54a18.64,18.64,0,0,1-2.64-10.08.59.59,0,0,1,.62-.56.6.6,0,0,1,.56.53c4.94,30,57.71,18.13,43.4-11.26a.74.74,0,0,1,1.21-.84Z"/><path class="cls-32" d="M338.56,4106.23c21.53,1.24,34,26.32,28.31,45.81-4.37,19.44-23.15,36.22-43.49,34.13a1.19,1.19,0,0,1,0-2.36c36.62-3.53,53.46-61.13,14.63-74.7a1.48,1.48,0,0,1,.54-2.88Z"/><ellipse class="cls-31" cx="327.94" cy="4145.99" rx="28.16" ry="23.34" transform="translate(-3811.65 3745.26) rotate(-79.95)"/><path class="cls-30" d="M327.11,4170c8.31.1,16.75-5.55,21.09-15.05,5.77-12.65,2.07-27.34-8.26-32.81a17.52,17.52,0,0,0-4.51-1.65c-6.1,2.48-11.56,7.7-14.88,14.95C314.69,4148.32,317.69,4163.07,327.11,4170Z"/><path class="cls-32" d="M304.9,4135.5c6.07-17.4,30.88-25.15,43.29-9.38,11.77,14.87,3.73,38.4-13,45.32-10.59,5.08-25.27,1.14-29.95-10a1.19,1.19,0,0,1,2-1.19,19.23,19.23,0,0,0,25.13,5.35c11.95-6.36,18-23.51,9.71-34.73-9.21-11.89-27.05-6.35-34.56,5.92a1.48,1.48,0,0,1-2.62-1.32Z"/><path class="cls-32" d="M521.69,4138.37c8.26,56.31-65.41,75.68-94.68,30.9a52.49,52.49,0,0,1-7.3-17.79,1.18,1.18,0,0,1,2.27-.64,56.42,56.42,0,0,0,22.15,27.26c31.91,20.95,75.8.2,74.65-39.42a1.47,1.47,0,0,1,2.91-.31Z"/><ellipse class="cls-31" cx="469.85" cy="4140.82" rx="35.91" ry="32.74" transform="translate(-1104.11 282.09) rotate(-15.72)"/><path class="cls-30" d="M440.39,4149.85c3.05,11.19,13.12,20.15,26.28,22,17.53,2.41,33.92-8.76,36.62-24.94a27.05,27.05,0,0,0,.28-6.76,35.49,35.49,0,0,0-23.78-13.66C462,4124,445.24,4134.26,440.39,4149.85Z"/><path class="cls-32" d="M473.75,4106c35.6,4,44.68,54.16,9.28,66.68-32.47,11.38-64.35-28.89-40.41-55.54a1.18,1.18,0,0,1,1.82,1.5c-8,11.2-6.42,26.75,2,36.42,12,15.23,38,16.11,48.1-1.09,10.56-17.29-1.8-40.3-21.32-45.09a1.47,1.47,0,0,1,.53-2.88Z"/><path class="cls-30" d="M360.28,4250c-6.07,13.65-1.77,28.74,9.35,42a77,77,0,0,0,30.22,21.41c31.75,12.86,65.65,5,75.72-17.66,0,0,16.4-38.65-30.8-62.35C384.45,4203.16,360.28,4250,360.28,4250Z"/><path class="cls-32" d="M362.08,4250.82c-7.75,26.83,18.08,49.26,40.83,58.13,23.29,9.18,56.35,9.81,71.21-13.79a1.59,1.59,0,0,1,2.89,1.28,36.4,36.4,0,0,1-13.35,17.71c-37.5,25.19-99.11,1.8-108.81-42.78a33.41,33.41,0,0,1,3.64-22.15,2,2,0,0,1,2.69-.75,2,2,0,0,1,.9,2.35Z"/><ellipse class="cls-31" cx="417.94" cy="4272.63" rx="34.25" ry="47.12" transform="translate(-3819.47 3583.89) rotate(-75.18)"/><ellipse class="cls-30" cx="420.19" cy="4282.19" rx="25.19" ry="39.94" transform="translate(-3868.99 3940.69) rotate(-79.84)"/><path class="cls-32" d="M448,4301.81c25.19-16.23,6.91-45.69-15.11-54.37-18.76-9.44-54.15-8.47-56.28,17.83-.08,16.25,14.16,29.78,28.24,36.94a1.59,1.59,0,0,1-1.19,2.93c-47.51-14.83-49.28-73.06,6-73.77,19.15.49,37.9,9,49.78,24.4,13.21,16,10.88,41.34-9.65,49.51a2,2,0,0,1-1.83-3.47Z"/><path class="cls-30" d="M518.83,4077.45a29.14,29.14,0,0,0,12-15.06c3.73-11.2-.81-22.74-10.58-32.34a60.9,60.9,0,0,0-25.41-14.51c-26-7.68-52,1.14-58.19,19.7-2.3,6.91-1.52,14.19,1.7,21,5.43,11.5,18,21,34.3,25.85"/><path class="cls-32" d="M529.49,4061.93c5-32.72-40.76-50.71-67.5-44.07-10,2.25-19.73,8-24.17,17.76a1.19,1.19,0,0,1-2.24-.75c14.4-42.38,86.91-28.45,97.78,10.36a26.81,26.81,0,0,1-1.1,17.65,1.47,1.47,0,0,1-2.77-1Z"/><ellipse class="cls-31" cx="483.8" cy="4049.04" rx="27.06" ry="37.23" transform="translate(-3590.39 3876.47) rotate(-80.76)"/><ellipse class="cls-30" cx="481.3" cy="4041.7" rx="19.9" ry="31.56" transform="translate(-3585.91 4198.93) rotate(-85.42)"/><path class="cls-32" d="M457.91,4028.33c-18.75,14.49-2,36.87,16,41.88,15.65,6.07,43.52,2.44,43.2-18.59-1.16-12.89-13.6-22.38-25.26-26.92a1.18,1.18,0,0,1,.67-2.26c22.63,3.74,43.95,31.33,22.25,50-23.15,18.78-70.25,4-70.61-28.2a22.86,22.86,0,0,1,12.11-18.4,1.48,1.48,0,0,1,1.61,2.45Z"/><ellipse class="cls-30" cx="573.47" cy="4183.78" rx="31.7" ry="16.52" transform="translate(-3572.73 3382.56) rotate(-71.26)"/><path class="cls-32" d="M598.32,4159.63c-12.53-18.15-32.82,3.1-37.19,17.57-5.57,12.81-7.07,41.2,13,39.07,11.48-2.67,19.72-14.14,24.63-24.63a1.19,1.19,0,0,1,2.23.78c-3.63,19.09-29.37,44.31-45.93,22.54-14.37-22.23,1.55-63.8,28.56-67.6a17.42,17.42,0,0,1,17.31,10.9,1.47,1.47,0,0,1-2.59,1.37Z"/><g class="cls-33"><path class="cls-5" d="M535.1,4077.31c.81,19.75,33.08,35.93,45.61,87.25,5.32,21.77,23.07-3.08,5.6-43.91C570.13,4082.81,534.52,4063.4,535.1,4077.31Z"/></g><g class="cls-33"><path class="cls-5" d="M486.69,4050.64c4.59,5.79,18.88,7.8,31.58,16.27,13.57,9.05,23.27,1.29,2.81-17.92C499.27,4028.52,478.05,4039.72,486.69,4050.64Z"/></g><path class="cls-6" d="M456.34,4338.42a171.31,171.31,0,0,1-90.48-316.6c3.76-2.35,7.72-4.61,11.75-6.7a173,173,0,0,1,69.47-19l.87-.05c1.24-.07,2.74-.13,4.25-.17,2.93-.08,5.89-.08,8.85,0a169.48,169.48,0,0,1,59.79,12.48,174.64,174.64,0,0,1,18.94,9.06c1.37.77,2.69,1.52,4,2.31.72.42,1.53.91,2.32,1.4a171.88,171.88,0,0,1,80.76,164.68,169.32,169.32,0,0,1-3.4,20,171.69,171.69,0,0,1-167.13,132.66ZM447.52,4004l.45,7.91a157,157,0,0,0-63.06,17.27c-3.65,1.89-7.23,3.94-10.65,6.08a155.41,155.41,0,1,0,236.86,148.83h0a156,156,0,0,0-73.31-149.48c-.71-.44-1.4-.87-2.1-1.27-1.26-.76-2.46-1.43-3.66-2.11a155.15,155.15,0,0,0-17.17-8.2,153.53,153.53,0,0,0-54.23-11.33c-2.67-.06-5.36-.06-8,0-1.37,0-2.71.09-4,.16Z"/></g></g></svg>