<svg xmlns="http://www.w3.org/2000/svg" viewBox="0 0 27.2 62.71"><defs><style>.cls-1{fill:#fff;}</style></defs><g id="Capa_2" data-name="Capa 2"><g id="Layer_5" data-name="Layer 5"><path class="cls-1" d="M27,51a10.18,10.18,0,0,0-4.88-6.38A84.32,84.32,0,0,0,25,32.28,43.32,43.32,0,0,0,25.69,23a36.18,36.18,0,0,0-1.64-8.91A25.62,25.62,0,0,0,14,.27L13.59,0l-.4.27C12.64.65,11.68,1.38,11,2a27.33,27.33,0,0,0-3.43,3.6,25.92,25.92,0,0,0-4.38,8.09,34.34,34.34,0,0,0-1.69,9.09A47.74,47.74,0,0,0,2.16,32,75,75,0,0,0,5.08,44.65a10.6,10.6,0,0,0-2.19,1.68A10,10,0,0,0,.24,51c-.71,2.81.26,7.8,1.41,8.81A.6.6,0,0,0,2.3,60,2.16,2.16,0,0,0,3,59.49a8.74,8.74,0,0,0,1.64-3.41,7.3,7.3,0,0,1,.59-1.53,1.64,1.64,0,0,1,.26-.33,5.45,5.45,0,0,1,3.15-1.13l.6,1.07.66,1.08a3.62,3.62,0,0,0,.22.32,5.19,5.19,0,0,1,.32.51,1.27,1.27,0,0,0,1.21.62c.48,3.18,1.14,6,1.94,6a.52.52,0,0,0,.37-.18h0c.61-.61,1.16-3.09,1.58-5.86a1.4,1.4,0,0,0,1.06-.38,1,1,0,0,0,.2-.25c.22-.34.42-.69.61-1s.29-.51.44-.77.44-.75.66-1.15c1.39.14,2.87.53,3.45,1.46a7.91,7.91,0,0,1,.59,1.53c.48,1.51,1.08,3.4,2.35,3.9a.64.64,0,0,0,.71-.22C26.74,58.64,27.66,53.75,27,51ZM4.3,36.13a93.28,93.28,0,0,0,18.53,0l-.15.67a84.26,84.26,0,0,1-18.24,0C4.39,36.58,4.35,36.36,4.3,36.13ZM21.8,12.06c.09.21.19.42.27.64a95.68,95.68,0,0,0-17,0c.09-.21.16-.43.25-.64A83.36,83.36,0,0,1,21.8,12.06ZM8.69,6.42A25.17,25.17,0,0,1,12,3c.47-.41,1.13-.93,1.64-1.3a23.62,23.62,0,0,1,7.59,9,89.71,89.71,0,0,0-15.2,0A24.28,24.28,0,0,1,8.69,6.42ZM2.92,22.8a32.72,32.72,0,0,1,1.59-8.62,90.38,90.38,0,0,1,18.09,0c0,.11.07.21.11.32A33.75,33.75,0,0,1,24.28,23a41.43,41.43,0,0,1-.71,9c-.13.8-.28,1.64-.44,2.49A88.65,88.65,0,0,1,4,34.53c-.16-.89-.31-1.79-.45-2.71A46.69,46.69,0,0,1,2.92,22.8ZM16.66,53.52c-.16.26-.31.53-.46.8l-.41.69c.37-2.88.6-5.73.6-6.84,0-2.59-1.25-4.7-2.79-4.7a2,2,0,0,0-1.42.65,5.91,5.91,0,0,0-1.36,4.05c0,.83.21,3.78.6,6.8a2.39,2.39,0,0,1-.13-.21l-.19-.27c-.22-.34-.43-.69-.64-1a43.32,43.32,0,0,1-2.1-4.15A61.38,61.38,0,0,1,4.78,38.35a89.7,89.7,0,0,0,17.57,0,58.92,58.92,0,0,1-3.57,11A38.42,38.42,0,0,1,16.66,53.52Z"/><path class="cls-1" d="M13.59,33a8.77,8.77,0,1,0-6.21-2.57A8.71,8.71,0,0,0,13.59,33ZM8.37,19a7.39,7.39,0,1,1-2.16,5.22A7.36,7.36,0,0,1,8.37,19Z"/><path class="cls-1" d="M13.59,30a5.71,5.71,0,1,0-5.71-5.71A5.71,5.71,0,0,0,13.59,30Z"/></g></g></svg>