<svg xmlns="http://www.w3.org/2000/svg" viewBox="0 0 307.67 204.57"><defs><style>.cls-1{fill:#dfdfdf;}</style></defs><g id="Capa_2" data-name="Capa 2"><g id="Capa_1-2" data-name="Capa 1"><path class="cls-1" d="M307.52,174.72c-3.27-31.55-3.28-31.67-11.63-112.28A69.14,69.14,0,0,0,189.18,11.31c-24.42,11.36-46.26,11.36-70.68,0A69.15,69.15,0,0,0,11.78,62.44C3.43,143.05,3.42,143.17.15,174.72A26.64,26.64,0,0,0,0,177.57a27,27,0,0,0,45.52,19.64h0l43.67-41.16c45.48-14.39,83.81-14.39,129.29,0l43.67,41.16h0a27,27,0,0,0,45.36-22.49ZM108.46,92.26a27.07,27.07,0,0,1,15.27,15.49H108.46ZM35.82,56.34A26.21,26.21,0,1,1,62,82.55,26.2,26.2,0,0,1,35.82,56.34Zm53.07,35.8v15.61H73.28A27.08,27.08,0,0,1,88.89,92.14Zm0,50.42a27,27,0,0,1-15.46-15.23H88.89Zm19.57-.12V127.33h15.13A27.07,27.07,0,0,1,108.46,142.44Zm18.27-20a2.3,2.3,0,0,1-2.31,2.31H105.89v18.53a2.32,2.32,0,0,1-2.32,2.32H93.73a2.32,2.32,0,0,1-2.32-2.32V124.75H72.88a2.31,2.31,0,0,1-2.31-2.31v-9.85a2.32,2.32,0,0,1,2.31-2.31H91.41V91.75a2.32,2.32,0,0,1,2.32-2.32h9.84a2.32,2.32,0,0,1,2.32,2.32v18.53h18.53a2.31,2.31,0,0,1,2.31,2.31Zm26.94-44a15.57,15.57,0,1,1,15.57-15.57A15.57,15.57,0,0,1,153.67,78.46ZM202,141.05a23.34,23.34,0,1,1,23.35-23.34A23.34,23.34,0,0,1,202,141.05ZM222.41,70A11.2,11.2,0,1,1,233.6,58.8,11.19,11.19,0,0,1,222.41,70Zm25.16,25.17A11.2,11.2,0,1,1,258.77,84,11.2,11.2,0,0,1,247.57,95.16Zm0-50.33a11.2,11.2,0,1,1,11.2-11.2A11.19,11.19,0,0,1,247.57,44.83ZM272.74,70A11.2,11.2,0,1,1,283.93,58.8,11.2,11.2,0,0,1,272.74,70Z"/></g></g></svg>