<svg xmlns="http://www.w3.org/2000/svg" viewBox="0 0 1099.55 154.65"><defs><style>.cls-1{fill:#fff;}.cls-2{fill:#f2e500;}</style></defs><g id="Capa_2" data-name="Capa 2"><g id="Capa_1-2" data-name="Capa 1"><path class="cls-1" d="M555.45,91.55a91.19,91.19,0,0,0,9.63-8.64c.72-.78,4.49-5,5.93-9.13,2.32-6.61,5.31-26.68-1-39.81a43.65,43.65,0,0,0-12.75-15c-4.81-3.67-12.82-6.44-21.49-7.69a152.12,152.12,0,0,0-26.06-1.12H462.23V144.63h47.45V100.79l2.91-.05,20.54,43.69H581.7ZM512.74,62.7s-1.35,7.88-10,5.39c0,0-2.56-1.43,2.88-4.91,0,0,1.87-2.42-2-4.27,0,0-1.21-3.23-.91-11.2,0,0,2.14-1.66,2.14-3.46,0-1.33-2-2.88-2.72-3.12,0,0-3.59-1.8,1.05-3.07S511,42.33,511,42.33s18.67-1.35,24.2,6.52a6,6,0,0,1,.5,1.17S538.29,61.27,512.74,62.7Z"/><polygon class="cls-1" points="0.19 144.56 49.14 144.56 49.14 10.09 0.19 10.09 0.19 88.95 0.19 144.56"/><rect class="cls-1" x="78.96" y="10.09" width="48.95" height="134.48"/><polygon class="cls-1" points="678.11 10.29 662.4 56.04 646.69 10.29 597.32 10.29 637.55 87.24 637.55 144.36 684.6 144.36 684.6 86.11 723.22 10.29 678.11 10.29"/><polygon class="cls-1" points="378.68 10.19 378.68 75.08 351.29 9.98 340.65 9.98 340.65 10.19 298.21 10.19 298.21 144.67 340.88 144.67 340.88 70.4 377.22 144.67 378.68 144.67 421.34 144.67 421.34 10.19 378.68 10.19"/><polygon class="cls-1" points="265.27 105.95 215.2 105.95 215.2 48.66 262.39 48.66 262.39 10.09 215.2 10.09 168.43 10.09 168.43 48.66 168.43 105.95 168.21 105.95 168.21 144.53 168.43 144.53 168.43 144.56 215.2 144.56 215.2 144.53 265.27 144.53 265.27 105.95"/><path class="cls-2" d="M0,87.52v42.53S189,75.73,503.67,58.91c0,0-.37-1.4-.67-3.39a33.36,33.36,0,0,1-.28-4.42h-.46C480.52,51.34,211.68,54.84,0,87.52Z"/><path class="cls-2" d="M851.71,1.56V152.19H830.47V73.08l-16.53,79.11h-21L774.83,70.4v81.79h-21V1.56h26.82l23,103.7L825.34,1.56Z"/><path class="cls-2" d="M866.91,37.77C866.91,13.63,878.75,0,900.21,0S933.5,13.63,933.5,37.77v79.11c0,24.14-11.84,37.77-33.29,37.77s-33.3-13.63-33.3-37.77Zm46.26-1.56c0-6.93-3.58-14.76-13-14.76-9.61.23-12.52,8.5-12.74,14.76l.22,82.46c0,6.26,2.91,14.75,12.52,14.75,8.93,0,13-8.94,13-14.75Z"/><path class="cls-2" d="M948.48,37.77C948.48,13.63,960.32,0,981.78,0s33.3,13.63,33.3,37.77v79.11c0,24.14-11.85,37.77-33.3,37.77s-33.3-13.63-33.3-37.77Zm46.26-1.56c0-6.93-3.58-14.76-13-14.76-9.61.23-12.52,8.5-12.74,14.76l.22,82.46c0,6.26,2.91,14.75,12.52,14.75,8.94,0,13-8.94,13-14.75Z"/><path class="cls-2" d="M1099.55,152.42h-22.34l-26.82-93,.22,93h-21.23V1.79h23.69l25.7,89.39-.22-89.39h21Z"/></g></g></svg>