<svg xmlns="http://www.w3.org/2000/svg" viewBox="0 0 1101.05 156.65"><defs><style>.cls-1{fill:#111827;}.cls-2,.cls-3{fill:#f2e500;stroke:#111827;stroke-miterlimit:10;}.cls-3{stroke-width:2px;}</style></defs><g id="Capa_2" data-name="Capa 2"><g id="Capa_1-2" data-name="Capa 1"><path class="cls-1" d="M556,92.55a91.19,91.19,0,0,0,9.63-8.64c.72-.78,4.49-5,5.93-9.13,2.32-6.61,5.31-26.68-1-39.81a43.65,43.65,0,0,0-12.75-15c-4.81-3.67-12.82-6.44-21.49-7.69a152.12,152.12,0,0,0-26.06-1.12H462.73V145.63h47.45V101.79l2.91-.05,20.54,43.69H582.2ZM513.24,63.7s-1.35,7.88-10,5.39c0,0-2.56-1.43,2.88-4.91,0,0,1.87-2.42-2-4.27,0,0-1.21-3.23-.91-11.2,0,0,2.14-1.66,2.14-3.46,0-1.33-2-2.88-2.72-3.12,0,0-3.59-1.8,1.05-3.07s7.73,4.27,7.73,4.27,18.67-1.35,24.2,6.52a6,6,0,0,1,.5,1.17S538.79,62.27,513.24,63.7Z"/><polygon class="cls-1" points="0.69 145.56 49.64 145.56 49.64 11.09 0.69 11.09 0.69 89.95 0.69 145.56"/><rect class="cls-1" x="79.46" y="11.09" width="48.95" height="134.48"/><polygon class="cls-1" points="678.61 11.29 662.9 57.04 647.19 11.29 597.82 11.29 638.05 88.24 638.05 145.36 685.1 145.36 685.1 87.11 723.72 11.29 678.61 11.29"/><polygon class="cls-1" points="379.18 11.19 379.18 76.08 351.79 10.98 341.15 10.98 341.15 11.19 298.71 11.19 298.71 145.67 341.38 145.67 341.38 71.4 377.72 145.67 379.18 145.67 421.84 145.67 421.84 11.19 379.18 11.19"/><polygon class="cls-1" points="265.77 106.95 215.7 106.95 215.7 49.66 262.89 49.66 262.89 11.09 215.7 11.09 168.93 11.09 168.93 49.66 168.93 106.95 168.71 106.95 168.71 145.53 168.93 145.53 168.93 145.56 215.7 145.56 215.7 145.53 265.77 145.53 265.77 106.95"/><path class="cls-2" d="M.5,88.52v42.53s189-54.32,503.67-71.14c0,0-.37-1.4-.67-3.39a33.36,33.36,0,0,1-.28-4.42h-.46C481,52.34,212.18,55.84.5,88.52Z"/><path class="cls-3" d="M852.21,2.56V153.19H831V74.08l-16.53,79.11h-21L775.33,71.4v81.79h-21V2.56h26.82l23,103.7L825.84,2.56Z"/><path class="cls-3" d="M867.41,38.77C867.41,14.63,879.25,1,900.71,1S934,14.63,934,38.77v79.11c0,24.14-11.84,37.77-33.29,37.77s-33.3-13.63-33.3-37.77Zm46.26-1.56c0-6.93-3.58-14.76-13-14.76-9.61.23-12.52,8.5-12.74,14.76l.22,82.46c0,6.26,2.91,14.75,12.52,14.75,8.93,0,13-8.94,13-14.75Z"/><path class="cls-3" d="M949,38.77C949,14.63,960.82,1,982.28,1s33.3,13.63,33.3,37.77v79.11c0,24.14-11.85,37.77-33.3,37.77S949,142,949,117.88Zm46.26-1.56c0-6.93-3.58-14.76-13-14.76-9.61.23-12.52,8.5-12.74,14.76l.22,82.46c0,6.26,2.91,14.75,12.52,14.75,8.94,0,13-8.94,13-14.75Z"/><path class="cls-3" d="M1100.05,153.42h-22.34l-26.82-93,.22,93h-21.23V2.79h23.69l25.7,89.39-.22-89.39h21Z"/></g></g></svg>