<svg xmlns="http://www.w3.org/2000/svg" viewBox="0 0 139.15 149.11"><defs><style>.cls-1{isolation:isolate;}.cls-2{fill:#fff;}.cls-3,.cls-4{fill:#e6e6e6;}.cls-4{mix-blend-mode:multiply;}</style></defs><g class="cls-1"><g id="Capa_2" data-name="Capa 2"><g id="Layer_1" data-name="Layer 1"><path class="cls-2" d="M139.15,114.46c-36.68,27.79-86.87,9.07-103.07-23.23C20.32,62.5,26.66,20.39,58,0c-4.39,7.32-9.46,16.7-10.69,22.52-.2.88-.37,1.74-.5,2.57-8,33.76,16.19,85.28,63.67,91.77a68.82,68.82,0,0,0,7.49.61C123.6,117.68,131.84,116.35,139.15,114.46Z"/><path class="cls-3" d="M139.15,114.46a75.55,75.55,0,0,1-96.44,27.08l-.79-.39c-.87-.44-1.73-.88-2.58-1.34-.28-.15-.55-.31-.83-.45h0c-1.07-.61-2.12-1.23-3.16-1.88-.23-.15-.46-.29-.67-.44s-.36-.24-.55-.35-.51-.33-.75-.5c-.76-.5-1.49-1-2.21-1.54a1.33,1.33,0,0,0-.19-.14l-.69-.51c-.22-.17-.45-.33-.67-.51-1.06-.81-2.1-1.64-3.08-2.5a7.56,7.56,0,0,1-.63-.54C11.42,118.07,2.12,98.73.64,83.25c0-.08,0-.16,0-.24A75.52,75.52,0,0,1,25.91,16.55a.34.34,0,0,1,.09-.08A73.13,73.13,0,0,1,42.77,5.4a78.22,78.22,0,0,1,13.58-5C56.89.26,57.42.13,58,0,17,28.83,18.19,91.31,61.38,117.25a3.78,3.78,0,0,0,.43.26c.68.43,1.39.84,2.12,1.25C91,132.89,119,129.08,139.15,114.46Z"/><circle class="cls-3" cx="51.51" cy="100.76" r="8.93"/><path class="cls-4" d="M51.51,91.83a8.93,8.93,0,0,0-6.7,3A8.92,8.92,0,0,1,57.4,107.45a8.91,8.91,0,0,0-5.89-15.62Z"/><circle class="cls-3" cx="30.53" cy="62.07" r="6.9"/><path class="cls-4" d="M30.53,55.17a6.88,6.88,0,0,0-5.17,2.34,6.89,6.89,0,0,1,9.73,9.73,6.89,6.89,0,0,0-4.56-12.07Z"/><path class="cls-3" d="M43.1,28.81a3.19,3.19,0,1,1-3.19-3.19A3.19,3.19,0,0,1,43.1,28.81Z"/><path class="cls-4" d="M39.91,25.62a3.17,3.17,0,0,0-2.39,1.08,3.15,3.15,0,0,1,2.1-.8A3.19,3.19,0,0,1,42,31.2a3.18,3.18,0,0,0-2.1-5.58Z"/><path class="cls-3" d="M102.27,119a3.19,3.19,0,1,1-3.19-3.19A3.19,3.19,0,0,1,102.27,119Z"/><path class="cls-4" d="M99.08,115.76a3.2,3.2,0,0,0-2.39,1.08,3.19,3.19,0,0,1,4.5,4.5,3.19,3.19,0,0,0-2.11-5.58Z"/><path class="cls-3" d="M51.62,79.45a3.19,3.19,0,1,1-3.18-3.19A3.18,3.18,0,0,1,51.62,79.45Z"/><path class="cls-4" d="M48.44,76.26a3.14,3.14,0,0,0-2.39,1.09,3.13,3.13,0,0,1,2.1-.8,3.19,3.19,0,0,1,3.19,3.19,3.15,3.15,0,0,1-.8,2.1,3.19,3.19,0,0,0-2.1-5.58Z"/></g></g></g></svg>