<svg xmlns="http://www.w3.org/2000/svg" viewBox="0 0 48.77 62.71"><defs><style>.cls-1{fill:#fff;}</style></defs><g id="Capa_2" data-name="Capa 2"><g id="Layer_5" data-name="Layer 5"><path class="cls-1" d="M48.64,35.35a7.21,7.21,0,0,0,.09-.84,17.2,17.2,0,0,0-.87-6.37,21.75,21.75,0,0,0-2.94-5.83c-.35-.51-.73-1-1.12-1.48V16.35a.54.54,0,0,0-.54-.54h-2a10.63,10.63,0,0,0,.56-1.12l.3,0a3,3,0,0,0,3-3v-2a3,3,0,0,0-3-3h-.14l-.08-.21s0,0,0,0a10.55,10.55,0,0,0-19.57,0s0,0,0,0a2.34,2.34,0,0,0-.09.24,2.58,2.58,0,0,0-.39,0,3,3,0,0,0-3,3v2a3,3,0,0,0,3,3,3.31,3.31,0,0,0,.55-.05,10.1,10.1,0,0,0,.57,1.14h-2a.54.54,0,0,0-.54.54V20.8a23.48,23.48,0,0,0-2.63,4,19.59,19.59,0,0,0-2.39,8.43l-3.61-3.61h0L7.12,25a.54.54,0,0,0-.76,0l-6.2,6.2a.52.52,0,0,0-.14.52.54.54,0,0,0,.38.38l3.29.84.92,3.37a.54.54,0,0,0,.38.38l.14,0a.55.55,0,0,0,.38-.16l5.82-5.82,4.08,4.08c0,.17.05.35.08.53a4.43,4.43,0,0,0-.13,1.1c0,2.38,1.33,4.24,3,4.24a2.59,2.59,0,0,0,2-1V45a.54.54,0,0,0,.54.54H24a69.23,69.23,0,0,0-.69,7.27c0,1.05,0,2,0,2.91,0,.11,0,.23,0,.34a9,9,0,0,0,.07,1.15,4,4,0,0,0-1.07,2.69c0,2.86,3.05,2.86,4.68,2.86s4.68,0,4.68-2.86a4,4,0,0,0-.87-2.47.84.84,0,0,1,0-.17l0-.07A51.09,51.09,0,0,0,32,51.35l.15-1c.13.86.27,1.74.43,2.66.21,1.15.42,2.16.65,3.11,0,.13.06.27.1.41.07.3.15.59.23.89a4,4,0,0,0-.88,2.47c0,2.86,3,2.86,4.68,2.86s4.68,0,4.68-2.86A4,4,0,0,0,41,57.14a3.8,3.8,0,0,0,0-.46,49.11,49.11,0,0,0-.14-6.27c-.13-1.73-.31-3.35-.54-4.92h2.9A.54.54,0,0,0,43.8,45V39.67a2.54,2.54,0,0,0,1.94,1c1.7,0,3-1.86,3-4.24A4.26,4.26,0,0,0,48.64,35.35Zm-1-1.41a3.65,3.65,0,0,0-1.92-.43,3,3,0,0,0-2.41.85c-.43-1-.91-1.9-1.41-2.82L47,29.18A15.88,15.88,0,0,1,47.66,33.94Zm-6.51-3.78-.29-.52-.28-.47,5.53-2.55c.19.42.36.85.51,1.27l-5.36,2.47Zm1.57-13.27V19.6c-.27-.28-.54-.55-.8-.79l-.51-.45-.15-.11-.08-.06,0,0h0l-.49-.55a.55.55,0,0,0-.35-.19h-.07l-.11-.05c.14-.16.26-.32.38-.48ZM23.69,15a50.7,50.7,0,0,0,8.37.67A50.61,50.61,0,0,0,40.43,15a9.47,9.47,0,0,1-16.74,0Zm10-8.43-4.14,8c-.64,0-1.26-.07-1.88-.12l4.09-7.88h.29C32.61,6.53,33.16,6.55,33.7,6.57Zm-3.57,0-4,7.69c-.62-.07-1.22-.15-1.81-.25l3.8-7.33C28.78,6.63,29.44,6.59,30.13,6.57ZM44,9.78v2a1.87,1.87,0,0,1-1.8,1.87v0c0-.17.09-.34.13-.51s.09-.32.12-.48.07-.41.1-.62,0-.26,0-.39a9.23,9.23,0,0,0,0-1,8.94,8.94,0,0,0,0-1c0-.14,0-.27-.06-.41s0-.41-.09-.61-.08-.33-.12-.49a.29.29,0,0,1,0-.09A1.87,1.87,0,0,1,44,9.78Zm-11.9-8.7a9.48,9.48,0,0,1,8.37,5,52.62,52.62,0,0,0-16.74,0A9.5,9.5,0,0,1,32.06,1.08ZM19.91,11.76v-2A1.88,1.88,0,0,1,21.79,7.9h.06a.75.75,0,0,1,0,.16c0,.14-.07.29-.1.43s-.07.45-.1.67,0,.24-.05.35a9.22,9.22,0,0,0,0,2.1c0,.11,0,.23,0,.34s.06.46.11.68.07.28.1.42.09.38.15.57h-.17A1.88,1.88,0,0,1,19.91,11.76Zm1.51,5.13h2.21l.37.48a3.2,3.2,0,0,0-.78.54l-.59.53c-.39.35-.8.72-1.18,1.11l0,0ZM18,26.66l5.52,2.54-.69,1.18-5.34-2.46C17.65,27.48,17.82,27.05,18,26.66Zm-.94,2.55,5.12,2.36c-.22.42-.44.85-.64,1.28l-.28.58-.45.94a3,3,0,0,0-2.42-.86,3.63,3.63,0,0,0-2,.46A14.35,14.35,0,0,1,17.05,29.21Zm1.33,10.38c-1.05,0-1.94-1.45-1.94-3.16a3.32,3.32,0,0,1,0-.57L18,37.39a.52.52,0,0,0,.38.16.51.51,0,0,0,.38-.16.54.54,0,0,0,0-.76L17,34.88a2.43,2.43,0,0,1,1.37-.29c1.29,0,1.95.29,1.95,1.84C20.33,38.14,19.44,39.59,18.38,39.59Zm3,4.82V35.65c.25-.59.53-1.18.8-1.75.1-.2.19-.39.28-.59.47-1,1-2,1.57-2.93a33.28,33.28,0,0,0,1.66,7.69A7.25,7.25,0,0,0,25.08,40l-.07.29c-.33,1.34-.59,2.74-.83,4.17Zm3.13,5.88c0-.42.07-.84.11-1.25h6.58c0,.42-.1.84-.16,1.25ZM27,61.63c-2.69,0-3.6-.45-3.6-1.78A3.41,3.41,0,0,1,27,56.68a3.4,3.4,0,0,1,3.6,3.17C30.57,61.18,29.67,61.63,27,61.63Zm2.92-5.1a5.06,5.06,0,0,0-5.51-.22c0-.1,0-.21,0-.32v-.34c0-.89,0-1.82,0-2.85,0-.39.05-.77.08-1.16h6.42C30.6,53.47,30.27,55.08,29.89,56.53Zm2.28-12.12a.55.55,0,0,0-.54.51c-.06.92-.14,1.84-.23,2.77H24.8a59.9,59.9,0,0,1,1.26-7.2l.07-.29a5.68,5.68,0,0,1,.61-1.71l0-.05a.57.57,0,0,0,0-.49A33.37,33.37,0,0,1,25,28.61a.55.55,0,0,0-.41-.49.74.74,0,0,0-.21,0l-5.81-2.68.09-.17a21.37,21.37,0,0,1,3.56-5c.35-.37.72-.7,1.12-1.05l.6-.55a2.55,2.55,0,0,1,.83-.51,10.51,10.51,0,0,0,14.55,0,2.35,2.35,0,0,1,1,.65,1.43,1.43,0,0,0,.33.29l.07,0,.47.42c.31.29.62.6,1,1A21,21,0,0,1,44,22.92a24.44,24.44,0,0,1,1.5,2.48l-5.86,2.7h-.14a.54.54,0,0,0-.42.49,33.58,33.58,0,0,1-1.83,9.19.53.53,0,0,0,.1.54,2.8,2.8,0,0,1,.49.83A32.34,32.34,0,0,1,39,44c.21,1.2.39,2.44.53,3.72H32.94c-.1-.95-.18-1.88-.23-2.77A.55.55,0,0,0,32.17,44.41Zm7.64,5.88H33.28c-.07-.42-.13-.84-.18-1.25h6.6C39.74,49.45,39.77,49.87,39.81,50.29ZM37.39,61.63c-2.69,0-3.6-.45-3.6-1.78a3.41,3.41,0,0,1,3.6-3.17A3.4,3.4,0,0,1,41,59.85C41,61.18,40.09,61.63,37.39,61.63Zm0-6a5,5,0,0,0-2.91.93c0-.1,0-.19-.07-.28s-.07-.29-.1-.43c-.23-.92-.44-1.92-.64-3l-.18-1.14H39.9c.1,1.76.13,3.28.08,4.67A5,5,0,0,0,37.39,55.6Zm5.33-11.19H40.19c0-.21-.07-.42-.11-.63a31.91,31.91,0,0,0-1.2-5,3.26,3.26,0,0,0-.49-.92A33.73,33.73,0,0,0,40,30.38l.17.31.25.44.41.89.07,0a32.67,32.67,0,0,1,1.72,3.52l0,.09,0,0Zm3-4.82c-1.05,0-1.94-1.45-1.94-3.16,0-1.55.65-1.84,1.94-1.84s1.95.29,1.95,1.84C47.69,38.14,46.8,39.59,45.74,39.59Z"/><rect class="cls-1" x="27.33" y="25.29" width="9.47" height="5.32"/></g></g></svg>