<svg xmlns="http://www.w3.org/2000/svg" xmlns:xlink="http://www.w3.org/1999/xlink" width="500" zoomAndPan="magnify" viewBox="0 0 375 374.999991" height="500" preserveAspectRatio="xMidYMid meet" version="1.0"><defs><clipPath id="840647d1c7"><path d="M 62.597656 62.597656 L 312.347656 62.597656 L 312.347656 311 L 62.597656 311 Z M 62.597656 62.597656 " clip-rule="nonzero"/></clipPath><clipPath id="3791d22e19"><path d="M 136 111 L 244 111 L 244 312.347656 L 136 312.347656 Z M 136 111 " clip-rule="nonzero"/></clipPath></defs><g clip-path="url(#840647d1c7)"><path fill="#1877f2" d="M 312.347656 187.472656 C 312.347656 118.507812 256.441406 62.597656 187.472656 62.597656 C 118.507812 62.597656 62.597656 118.507812 62.597656 187.472656 C 62.597656 249.804688 108.265625 301.464844 167.960938 310.832031 L 167.960938 223.570312 L 136.257812 223.570312 L 136.257812 187.472656 L 167.960938 187.472656 L 167.960938 159.960938 C 167.960938 128.664062 186.605469 111.378906 215.128906 111.378906 C 228.792969 111.378906 243.082031 113.816406 243.082031 113.816406 L 243.082031 144.546875 L 227.335938 144.546875 C 211.824219 144.546875 206.984375 154.175781 206.984375 164.050781 L 206.984375 187.472656 L 241.621094 187.472656 L 236.082031 223.570312 L 206.984375 223.570312 L 206.984375 310.832031 C 266.683594 301.464844 312.347656 249.804688 312.347656 187.472656 " fill-opacity="1" fill-rule="nonzero"/></g><g clip-path="url(#3791d22e19)"><path fill="#ffffff" d="M 236.082031 223.570312 L 241.621094 187.472656 L 206.984375 187.472656 L 206.984375 164.050781 C 206.984375 154.175781 211.824219 144.546875 227.335938 144.546875 L 243.082031 144.546875 L 243.082031 113.816406 C 243.082031 113.816406 228.792969 111.378906 215.128906 111.378906 C 186.605469 111.378906 167.960938 128.664062 167.960938 159.960938 L 167.960938 187.472656 L 136.257812 187.472656 L 136.257812 223.570312 L 167.960938 223.570312 L 167.960938 310.832031 C 174.320312 311.828125 180.835938 312.347656 187.472656 312.347656 C 194.113281 312.347656 200.628906 311.828125 206.984375 310.832031 L 206.984375 223.570312 L 236.082031 223.570312 " fill-opacity="1" fill-rule="nonzero"/></g></svg>