<svg xmlns="http://www.w3.org/2000/svg" xmlns:xlink="http://www.w3.org/1999/xlink" width="500" zoomAndPan="magnify" viewBox="0 0 375 374.999991" height="500" preserveAspectRatio="xMidYMid meet" version="1.0"><defs><clipPath id="66a1e6bf53"><path d="M 91.550781 259 L 126 259 L 126 293 L 91.550781 293 Z M 91.550781 259 " clip-rule="nonzero"/></clipPath><clipPath id="136d62defd"><path d="M 189 284 L 229 284 L 229 309.847656 L 189 309.847656 Z M 189 284 " clip-rule="nonzero"/></clipPath><clipPath id="bd37a38d4f"><path d="M 139 65.347656 L 260 65.347656 L 260 183 L 139 183 Z M 139 65.347656 " clip-rule="nonzero"/></clipPath></defs><path fill="#e2e2d3" d="M 277.496094 179.941406 C 276.84375 181.796875 275.6875 183.582031 274.074219 185.132812 C 268.875 190.144531 232.875 196.652344 219.347656 198.949219 C 216.164062 199.492188 214.222656 199.800781 214.222656 199.800781 L 204.019531 185.320312 C 204.019531 185.320312 257.257812 163.0625 268.480469 166.050781 C 276.886719 168.292969 279.445312 174.414062 277.496094 179.941406 Z M 277.496094 179.941406 " fill-opacity="1" fill-rule="nonzero"/><path fill="#afaea0" d="M 277.496094 179.941406 C 276.84375 181.796875 275.6875 183.582031 274.074219 185.132812 C 268.875 190.144531 232.875 196.652344 219.347656 198.949219 C 219.121094 195.257812 218.78125 190.988281 218.78125 190.988281 C 218.78125 190.988281 262.308594 185.609375 272.011719 180.84375 C 273.625 180.054688 275.523438 179.792969 277.496094 179.941406 Z M 277.496094 179.941406 " fill-opacity="1" fill-rule="nonzero"/><path fill="#1c1d23" d="M 204.671875 185.507812 C 208.132812 190.167969 211.488281 194.71875 214.773438 199.410156 L 214.113281 199.132812 L 214.117188 199.132812 C 220.367188 197.457031 226.699219 196.308594 233.027344 195.136719 C 239.351562 193.945312 245.660156 192.679688 251.921875 191.25 C 255.050781 190.527344 258.167969 189.765625 261.246094 188.914062 C 264.320312 188.058594 267.394531 187.132812 270.242188 185.917969 C 270.609375 185.773438 270.9375 185.59375 271.277344 185.433594 C 271.445312 185.347656 271.621094 185.269531 271.78125 185.179688 L 272.242188 184.902344 C 272.390625 184.808594 272.566406 184.722656 272.6875 184.625 L 273.050781 184.332031 C 273.175781 184.253906 273.304688 184.113281 273.4375 183.980469 C 273.5625 183.847656 273.703125 183.722656 273.820312 183.582031 C 274.8125 182.492188 275.632812 181.253906 276.164062 179.910156 C 276.710938 178.574219 276.941406 177.136719 276.835938 175.742188 C 276.734375 174.339844 276.234375 173 275.457031 171.832031 C 274.660156 170.667969 273.566406 169.6875 272.3125 168.921875 C 271.050781 168.164062 269.644531 167.59375 268.171875 167.191406 C 267.550781 167.023438 266.8125 166.953125 266.066406 166.945312 C 265.316406 166.9375 264.546875 166.964844 263.773438 167.039062 C 262.226562 167.175781 260.660156 167.429688 259.101562 167.722656 C 255.984375 168.320312 252.878906 169.109375 249.789062 169.964844 C 246.703125 170.820312 243.632812 171.761719 240.570312 172.746094 C 234.449219 174.714844 228.367188 176.820312 222.324219 179.039062 C 219.300781 180.148438 216.285156 181.28125 213.277344 182.433594 L 208.769531 184.171875 L 206.519531 185.054688 L 205.398438 185.5 L 204.839844 185.726562 L 204.558594 185.835938 L 204.417969 185.894531 L 204.347656 185.921875 C 204.359375 185.917969 204.277344 185.953125 204.363281 185.914062 C 204.511719 185.84375 204.648438 185.65625 204.671875 185.507812 Z M 203.371094 185.132812 C 203.417969 184.976562 203.578125 184.78125 203.746094 184.703125 L 203.828125 184.667969 L 203.898438 184.636719 L 204.039062 184.578125 L 204.320312 184.457031 L 204.875 184.21875 L 205.992188 183.75 L 208.222656 182.8125 L 212.703125 180.972656 C 215.695312 179.761719 218.699219 178.574219 221.710938 177.410156 C 227.738281 175.089844 233.796875 172.84375 239.933594 170.792969 C 243.003906 169.773438 246.085938 168.792969 249.203125 167.890625 C 252.320312 166.992188 255.464844 166.160156 258.671875 165.511719 C 260.277344 165.191406 261.894531 164.90625 263.558594 164.742188 C 264.390625 164.65625 265.238281 164.613281 266.097656 164.613281 C 266.960938 164.617188 267.84375 164.675781 268.78125 164.910156 C 270.425781 165.34375 272.046875 165.96875 273.558594 166.855469 C 275.058594 167.753906 276.445312 168.945312 277.484375 170.4375 C 278.515625 171.933594 279.183594 173.714844 279.320312 175.535156 C 279.464844 177.355469 279.160156 179.183594 278.496094 180.835938 C 277.84375 182.496094 276.859375 183.992188 275.6875 185.289062 C 275.546875 185.457031 275.382812 185.601562 275.234375 185.761719 C 275.082031 185.917969 274.9375 186.070312 274.730469 186.230469 L 274.152344 186.691406 C 273.957031 186.84375 273.769531 186.933594 273.574219 187.058594 L 273 187.40625 C 272.808594 187.511719 272.613281 187.601562 272.421875 187.699219 C 272.039062 187.882812 271.65625 188.089844 271.269531 188.242188 C 268.1875 189.570312 265.070312 190.507812 261.941406 191.394531 C 258.808594 192.269531 255.664062 193.050781 252.507812 193.789062 C 246.203125 195.257812 239.867188 196.550781 233.523438 197.769531 C 227.179688 198.992188 220.8125 200.085938 214.328125 200.46875 L 213.910156 200.539062 L 213.667969 200.191406 C 210.15625 195.226562 206.710938 190.125 203.371094 185.132812 Z M 203.371094 185.132812 " fill-opacity="1" fill-rule="nonzero"/><path fill="#e2e2d3" d="M 276.855469 185.050781 C 269.027344 193.246094 259.703125 188.621094 259.703125 188.621094 L 258.8125 187.824219 C 258.039062 187.132812 257.3125 186.417969 256.632812 185.667969 C 252.207031 180.804688 249.695312 174.746094 249.566406 168.488281 C 249.566406 168.488281 258.53125 160.707031 268.941406 161.625 C 270.453125 161.753906 271.863281 162.167969 273.136719 162.808594 C 280.621094 166.566406 283.539062 178.050781 276.855469 185.050781 Z M 276.855469 185.050781 " fill-opacity="1" fill-rule="nonzero"/><path fill="#afaea0" d="M 276.855469 185.050781 C 269.027344 193.246094 259.703125 188.621094 259.703125 188.621094 L 258.8125 187.824219 C 258.039062 187.132812 257.3125 186.417969 256.632812 185.667969 L 256.949219 184.996094 C 256.949219 184.996094 263.742188 186.476562 270.707031 182.511719 C 276.4375 179.253906 275.6875 169.03125 273.136719 162.808594 C 280.621094 166.566406 283.539062 178.050781 276.855469 185.050781 Z M 276.855469 185.050781 " fill-opacity="1" fill-rule="nonzero"/><path fill="#1c1d23" d="M 250.007812 169 C 250.476562 167.953125 250.136719 168.710938 250.242188 168.480469 L 250.242188 168.515625 L 250.246094 168.5625 L 250.25 168.648438 L 250.257812 168.824219 L 250.273438 169.179688 C 250.289062 169.414062 250.292969 169.648438 250.316406 169.882812 C 250.367188 170.351562 250.402344 170.820312 250.46875 171.289062 C 250.605469 172.222656 250.78125 173.148438 251.023438 174.058594 C 251.496094 175.886719 252.179688 177.65625 253.042969 179.332031 C 253.910156 181.011719 254.957031 182.597656 256.152344 184.0625 C 256.75 184.792969 257.386719 185.496094 258.054688 186.167969 C 258.722656 186.832031 259.425781 187.464844 260.15625 188.113281 L 260.003906 188.011719 C 260.617188 188.210938 261.320312 188.394531 261.992188 188.519531 C 262.675781 188.65625 263.359375 188.742188 264.042969 188.800781 C 265.410156 188.90625 266.773438 188.832031 268.097656 188.601562 C 269.429688 188.386719 270.683594 187.898438 271.898438 187.335938 L 272.773438 186.835938 L 273.214844 186.585938 L 273.621094 186.285156 L 274.4375 185.679688 C 274.582031 185.589844 274.707031 185.472656 274.828125 185.351562 L 275.203125 185.003906 C 277.28125 183.230469 278.648438 180.824219 279.191406 178.191406 C 279.75 175.5625 279.425781 172.753906 278.410156 170.246094 C 277.371094 167.757812 275.65625 165.5 273.355469 164.125 C 272.21875 163.433594 270.957031 162.933594 269.640625 162.714844 C 269.304688 162.679688 268.988281 162.601562 268.636719 162.59375 L 267.597656 162.546875 L 267.078125 162.519531 C 266.902344 162.515625 266.730469 162.535156 266.554688 162.539062 L 265.511719 162.585938 C 259.9375 163.035156 254.496094 165.574219 250.007812 169 Z M 249.121094 167.976562 C 251.425781 166.003906 253.949219 164.433594 256.671875 163.152344 C 257.355469 162.847656 258.039062 162.535156 258.746094 162.28125 C 259.441406 161.992188 260.164062 161.777344 260.886719 161.554688 C 261.242188 161.429688 261.613281 161.347656 261.980469 161.261719 L 263.085938 161 L 264.214844 160.828125 C 264.589844 160.777344 264.960938 160.691406 265.347656 160.683594 L 266.488281 160.605469 C 266.679688 160.597656 266.871094 160.574219 267.0625 160.574219 L 267.636719 160.589844 L 268.785156 160.625 C 269.167969 160.628906 269.570312 160.707031 269.960938 160.746094 C 271.53125 160.976562 273.050781 161.539062 274.421875 162.335938 C 275.792969 163.132812 277.011719 164.179688 278.019531 165.386719 C 279.035156 166.59375 279.863281 167.949219 280.457031 169.398438 C 281.648438 172.289062 282.054688 175.535156 281.421875 178.640625 C 281.113281 180.191406 280.554688 181.699219 279.761719 183.074219 C 278.980469 184.449219 277.941406 185.707031 276.777344 186.71875 L 276.351562 187.117188 C 276.214844 187.253906 276.070312 187.382812 275.910156 187.496094 L 274.96875 188.199219 L 274.496094 188.550781 L 273.984375 188.847656 L 272.960938 189.4375 C 272.605469 189.613281 272.238281 189.757812 271.875 189.914062 L 271.328125 190.140625 C 271.144531 190.210938 270.953125 190.257812 270.761719 190.316406 C 270.382812 190.429688 270.003906 190.546875 269.621094 190.644531 L 268.457031 190.847656 C 266.894531 191.058594 265.3125 191.027344 263.78125 190.757812 C 263.019531 190.617188 262.269531 190.429688 261.539062 190.175781 C 260.800781 189.929688 260.117188 189.628906 259.402344 189.222656 L 259.304688 189.167969 L 259.253906 189.121094 C 258.535156 188.484375 257.796875 187.820312 257.09375 187.121094 C 256.394531 186.417969 255.726562 185.683594 255.101562 184.914062 C 253.847656 183.378906 252.746094 181.714844 251.839844 179.949219 C 250.929688 178.1875 250.210938 176.320312 249.710938 174.394531 C 249.457031 173.433594 249.269531 172.457031 249.128906 171.472656 C 249.054688 170.980469 249.019531 170.484375 248.964844 169.988281 C 248.941406 169.742188 248.9375 169.492188 248.921875 169.246094 L 248.902344 168.871094 L 248.890625 168.589844 L 248.890625 168.542969 L 248.886719 168.519531 L 248.886719 168.503906 C 248.992188 168.269531 248.65625 169.027344 249.121094 167.976562 Z M 249.121094 167.976562 " fill-opacity="1" fill-rule="nonzero"/><path fill="#e2e2d3" d="M 170.214844 175.488281 L 159.585938 182.023438 L 155.125 184.765625 C 155.125 184.765625 128.421875 167.902344 114.28125 156.28125 C 109.910156 152.691406 106.742188 149.597656 105.925781 147.65625 C 102.460938 139.425781 107.105469 130.640625 118.597656 132.324219 C 130.085938 134.015625 170.214844 175.488281 170.214844 175.488281 Z M 170.214844 175.488281 " fill-opacity="1" fill-rule="nonzero"/><path fill="#afaea0" d="M 159.585938 182.023438 L 155.125 184.765625 C 155.125 184.765625 128.421875 167.902344 114.28125 156.28125 L 122.1875 154.820312 C 122.183594 154.820312 147.230469 173.941406 159.585938 182.023438 Z M 159.585938 182.023438 " fill-opacity="1" fill-rule="nonzero"/><path fill="#1c1d23" d="M 170.886719 175.574219 C 165.84375 178.839844 160.667969 182.167969 155.480469 185.339844 L 155.121094 185.558594 L 154.765625 185.335938 C 149.269531 181.933594 143.851562 178.429688 138.464844 174.867188 C 133.082031 171.304688 127.75 167.652344 122.515625 163.851562 C 119.902344 161.949219 117.3125 160.007812 114.769531 157.988281 C 112.234375 155.957031 109.730469 153.882812 107.425781 151.476562 C 107.128906 151.1875 106.859375 150.851562 106.578125 150.535156 C 106.441406 150.371094 106.300781 150.214844 106.164062 150.046875 L 105.773438 149.511719 C 105.648438 149.324219 105.511719 149.167969 105.394531 148.957031 L 105.050781 148.324219 C 104.925781 148.105469 104.855469 147.90625 104.777344 147.707031 C 104.703125 147.503906 104.613281 147.308594 104.550781 147.097656 C 103.984375 145.464844 103.664062 143.722656 103.71875 141.960938 C 103.75 140.199219 104.183594 138.421875 105.019531 136.828125 C 105.851562 135.226562 107.140625 133.867188 108.65625 132.898438 C 110.179688 131.941406 111.902344 131.386719 113.628906 131.148438 C 115.355469 130.917969 117.085938 130.972656 118.765625 131.210938 C 119.714844 131.359375 120.546875 131.648438 121.34375 131.980469 C 122.132812 132.3125 122.898438 132.679688 123.625 133.085938 C 125.09375 133.878906 126.476562 134.773438 127.832031 135.691406 C 133.226562 139.402344 138.179688 143.585938 143.023438 147.878906 C 147.863281 152.179688 152.585938 156.59375 157.175781 161.140625 C 159.472656 163.410156 161.773438 165.675781 164.019531 168 L 167.382812 171.484375 L 169.050781 173.242188 L 169.878906 174.128906 L 170.289062 174.570312 L 170.496094 174.792969 L 170.597656 174.90625 L 170.648438 174.960938 L 170.710938 175.03125 C 170.832031 175.167969 170.902344 175.410156 170.886719 175.574219 Z M 169.542969 175.402344 C 169.503906 175.550781 169.558594 175.773438 169.664062 175.894531 C 169.726562 175.964844 169.664062 175.898438 169.671875 175.910156 L 169.511719 175.75 L 169.296875 175.539062 L 168.863281 175.117188 L 167.996094 174.277344 L 166.265625 172.59375 L 162.78125 169.246094 C 160.445312 167.027344 158.132812 164.785156 155.785156 162.585938 C 151.078125 158.191406 146.363281 153.8125 141.527344 149.578125 C 139.109375 147.460938 136.652344 145.390625 134.167969 143.367188 C 131.6875 141.347656 129.15625 139.378906 126.539062 137.582031 C 125.230469 136.6875 123.898438 135.824219 122.535156 135.082031 C 121.855469 134.699219 121.164062 134.367188 120.472656 134.070312 C 119.78125 133.777344 119.078125 133.542969 118.433594 133.441406 C 116.921875 133.222656 115.398438 133.175781 113.925781 133.363281 C 112.460938 133.566406 111.054688 134.023438 109.839844 134.78125 C 108.636719 135.546875 107.628906 136.597656 106.964844 137.863281 C 106.304688 139.121094 105.9375 140.558594 105.90625 142.019531 C 105.859375 143.484375 106.121094 144.96875 106.605469 146.382812 C 106.65625 146.5625 106.738281 146.734375 106.800781 146.910156 C 106.867188 147.085938 106.933594 147.265625 107.015625 147.394531 L 107.246094 147.828125 C 107.316406 147.972656 107.449219 148.121094 107.546875 148.269531 L 107.863281 148.714844 C 107.976562 148.863281 108.105469 149.007812 108.226562 149.152344 C 108.480469 149.441406 108.707031 149.742188 108.988281 150.015625 C 111.121094 152.289062 113.574219 154.375 116.050781 156.394531 C 118.535156 158.414062 121.089844 160.363281 123.671875 162.28125 C 134.023438 169.90625 144.707031 177.140625 155.488281 184.1875 L 154.773438 184.183594 C 159.644531 181.175781 164.523438 178.320312 169.542969 175.402344 Z M 169.542969 175.402344 " fill-opacity="1" fill-rule="nonzero"/><path fill="#e2e2d3" d="M 135.015625 142.039062 C 132.496094 147.59375 127.964844 152.082031 122.1875 154.820312 C 121.128906 155.328125 120.027344 155.769531 118.886719 156.152344 L 117.753906 156.527344 C 117.753906 156.527344 107.359375 157.101562 103.40625 146.476562 C 101.378906 141.03125 103.160156 135.472656 106.71875 131.789062 C 110.101562 128.289062 115.085938 126.480469 119.925781 128.074219 C 129.84375 131.347656 135.015625 142.039062 135.015625 142.039062 Z M 135.015625 142.039062 " fill-opacity="1" fill-rule="nonzero"/><path fill="#afaea0" d="M 123.765625 153.679688 L 122.1875 154.820312 C 121.128906 155.328125 120.027344 155.769531 118.886719 156.152344 L 117.753906 156.527344 C 117.753906 156.527344 107.359375 157.101562 103.40625 146.476562 C 101.378906 141.03125 103.160156 135.472656 106.71875 131.785156 C 105.894531 136.457031 104.21875 153.492188 123.765625 153.679688 Z M 123.765625 153.679688 " fill-opacity="1" fill-rule="nonzero"/><path fill="#1c1d23" d="M 116.3125 128.175781 C 113.046875 128.175781 109.75 129.613281 107.1875 132.28125 C 103.472656 136.136719 102.265625 141.488281 104.039062 146.242188 C 107.621094 155.863281 116.578125 155.886719 117.628906 155.855469 L 118.667969 155.507812 C 125.667969 153.164062 131.332031 148.273438 134.261719 142.050781 C 133.367188 140.367188 128.355469 131.570312 119.710938 128.714844 C 118.605469 128.355469 117.457031 128.175781 116.3125 128.175781 Z M 117.550781 157.210938 C 115.929688 157.210938 106.511719 156.765625 102.769531 146.714844 C 100.816406 141.46875 102.136719 135.578125 106.214844 131.339844 C 110.042969 127.359375 115.378906 125.863281 120.136719 127.429688 C 130.21875 130.757812 135.40625 141.292969 135.625 141.742188 L 135.761719 142.027344 L 135.632812 142.316406 C 132.589844 149.019531 126.566406 154.292969 119.101562 156.792969 L 117.882812 157.199219 L 117.789062 157.207031 C 117.78125 157.207031 117.695312 157.210938 117.550781 157.210938 Z M 117.550781 157.210938 " fill-opacity="1" fill-rule="nonzero"/><path fill="#e2e2d3" d="M 217.003906 304.332031 L 201.175781 307.238281 C 199.636719 307.523438 198.109375 307.414062 196.714844 306.984375 C 193.878906 306.113281 191.566406 303.914062 190.710938 300.960938 C 190.679688 300.855469 190.648438 300.753906 190.625 300.652344 L 181.523438 264.242188 C 180.535156 260.277344 166.109375 247.046875 165.945312 240.90625 L 166.820312 240.742188 L 175.265625 239.195312 L 171.261719 223.160156 C 169.988281 218.054688 173.503906 212.945312 178.851562 212.121094 L 185.601562 211.082031 C 189.921875 210.417969 194.09375 212.792969 195.585938 216.769531 L 222.820312 289.164062 L 224.03125 292.390625 C 225.992188 297.589844 222.632812 303.296875 217.003906 304.332031 Z M 217.003906 304.332031 " fill-opacity="1" fill-rule="nonzero"/><path fill="#afaea0" d="M 200.175781 291.03125 L 196.714844 306.984375 C 193.878906 306.113281 191.566406 303.914062 190.710938 300.960938 C 190.679688 300.859375 190.648438 300.753906 190.625 300.652344 L 181.523438 264.242188 C 180.535156 260.277344 166.109375 247.046875 165.945312 240.90625 L 166.820312 240.742188 L 184.707031 249.898438 Z M 200.175781 291.03125 " fill-opacity="1" fill-rule="nonzero"/><path fill="#1c1d23" d="M 225.34375 291.890625 C 225.8125 293.152344 226.042969 294.507812 225.992188 295.859375 C 225.945312 297.210938 225.625 298.546875 225.0625 299.773438 C 223.945312 302.230469 221.832031 304.179688 219.34375 305.183594 C 219.023438 305.296875 218.710938 305.421875 218.394531 305.523438 L 217.417969 305.761719 C 216.8125 305.890625 216.269531 305.984375 215.6875 306.097656 L 212.265625 306.746094 L 205.425781 308.042969 L 202.003906 308.695312 C 201.71875 308.746094 201.453125 308.804688 201.09375 308.851562 C 200.761719 308.898438 200.425781 308.957031 200.085938 308.960938 C 199.746094 308.976562 199.410156 309.003906 199.070312 308.976562 C 198.730469 308.964844 198.390625 308.953125 198.050781 308.898438 C 195.351562 308.578125 192.78125 307.1875 191.046875 305.046875 C 190.824219 304.785156 190.636719 304.492188 190.433594 304.214844 C 190.246094 303.925781 190.082031 303.621094 189.910156 303.324219 C 189.753906 303.015625 189.617188 302.703125 189.472656 302.386719 L 189.144531 301.433594 C 189.027344 301.03125 188.96875 300.78125 188.898438 300.496094 L 188.683594 299.652344 L 188.257812 297.964844 L 186.554688 291.210938 L 183.226562 277.6875 L 179.972656 264.371094 C 179.835938 264.007812 179.558594 263.535156 179.289062 263.09375 C 179 262.644531 178.6875 262.1875 178.359375 261.734375 C 177.703125 260.824219 176.996094 259.917969 176.28125 259.015625 C 174.859375 257.207031 173.394531 255.390625 171.964844 253.539062 C 170.550781 251.675781 169.144531 249.792969 167.902344 247.757812 C 167.28125 246.746094 166.691406 245.703125 166.191406 244.589844 C 165.699219 243.480469 165.285156 242.277344 165.269531 240.921875 L 165.222656 240.347656 L 165.824219 240.238281 L 175.140625 238.527344 L 175.144531 238.523438 L 174.609375 239.355469 L 170.511719 223.414062 C 170.132812 221.984375 170.101562 220.433594 170.421875 218.972656 C 170.742188 217.507812 171.410156 216.125 172.339844 214.953125 C 173.265625 213.78125 174.460938 212.816406 175.808594 212.167969 C 176.488281 211.84375 177.191406 211.582031 177.921875 211.410156 C 178.675781 211.234375 179.332031 211.144531 180.011719 211.035156 L 184.074219 210.386719 C 184.761719 210.28125 185.390625 210.15625 186.171875 210.082031 C 186.542969 210.042969 186.921875 210.042969 187.296875 210.039062 C 187.671875 210.066406 188.050781 210.0625 188.425781 210.128906 C 191.425781 210.484375 194.226562 212.292969 195.785156 214.921875 C 195.964844 215.257812 196.164062 215.585938 196.300781 215.941406 L 196.523438 216.460938 L 196.707031 216.945312 L 197.441406 218.863281 L 201.847656 230.394531 Z M 222.722656 292.878906 L 199.863281 231.144531 L 197.007812 223.429688 L 195.578125 219.570312 L 194.867188 217.640625 L 194.6875 217.160156 L 194.507812 216.734375 C 194.402344 216.445312 194.238281 216.1875 194.101562 215.917969 C 192.882812 213.804688 190.632812 212.300781 188.179688 211.984375 C 187.875 211.925781 187.566406 211.929688 187.257812 211.902344 C 186.949219 211.90625 186.640625 211.898438 186.332031 211.929688 C 185.742188 211.976562 185.023438 212.101562 184.355469 212.195312 L 180.285156 212.800781 C 179.609375 212.898438 178.90625 212.992188 178.324219 213.125 C 177.71875 213.257812 177.128906 213.46875 176.5625 213.730469 C 175.433594 214.25 174.429688 215.042969 173.644531 216.011719 C 172.0625 217.9375 171.40625 220.59375 172.039062 223.035156 L 175.921875 239.027344 L 176.09375 239.734375 L 175.386719 239.859375 L 166.070312 241.574219 L 166.625 240.886719 L 166.625 240.890625 C 166.742188 241.867188 167.191406 242.875 167.710938 243.84375 C 168.242188 244.808594 168.878906 245.746094 169.546875 246.660156 C 170.902344 248.484375 172.363281 250.253906 173.875 251.992188 L 178.441406 257.25 C 179.199219 258.140625 179.953125 259.042969 180.691406 259.992188 C 181.058594 260.460938 181.421875 260.953125 181.773438 261.46875 C 182.121094 262.003906 182.476562 262.515625 182.777344 263.230469 C 182.851562 263.414062 182.917969 263.632812 182.984375 263.832031 L 183.097656 264.265625 L 183.320312 265.109375 L 183.757812 266.792969 L 184.636719 270.167969 L 186.355469 276.921875 L 189.785156 290.429688 L 191.460938 297.191406 L 192.277344 300.476562 C 192.550781 301.4375 192.984375 302.25 193.582031 302.996094 C 194.769531 304.472656 196.5625 305.464844 198.464844 305.722656 C 198.703125 305.769531 198.941406 305.773438 199.183594 305.785156 C 199.421875 305.8125 199.664062 305.789062 199.90625 305.785156 C 200.144531 305.785156 200.386719 305.742188 200.628906 305.714844 C 200.847656 305.691406 201.148438 305.636719 201.433594 305.585938 L 204.863281 304.976562 L 211.71875 303.757812 L 215.148438 303.144531 C 215.710938 303.042969 216.3125 302.945312 216.84375 302.839844 L 217.558594 302.671875 C 217.792969 302.597656 218.019531 302.507812 218.253906 302.433594 C 220.066406 301.722656 221.625 300.328125 222.457031 298.554688 C 223.292969 296.785156 223.390625 294.722656 222.722656 292.878906 Z M 222.722656 292.878906 " fill-opacity="1" fill-rule="nonzero"/><path fill="#e2e2d3" d="M 178.8125 232.167969 L 173.890625 245.21875 C 172.453125 246.363281 169.84375 248.007812 166.8125 249.84375 C 159.699219 254.136719 150.261719 259.425781 148.1875 261.40625 L 122.222656 286.195312 L 121.046875 287.3125 C 120.519531 287.820312 119.945312 288.246094 119.335938 288.59375 C 115.996094 290.492188 111.628906 290.035156 108.609375 287.246094 L 96.785156 276.328125 C 92.582031 272.441406 92.789062 265.828125 97.226562 262.472656 L 98.882812 261.222656 L 161.664062 213.757812 C 165.050781 211.199219 169.847656 211.417969 173.144531 214.285156 L 178.292969 218.773438 C 182.375 222.332031 182.613281 228.535156 178.8125 232.167969 Z M 178.8125 232.167969 " fill-opacity="1" fill-rule="nonzero"/><path fill="#ffffff" d="M 135.90625 239.042969 L 105.867188 260.390625 L 102.691406 259.890625 L 101 259.617188 L 99.296875 259.351562 L 133.183594 233.925781 L 133.703125 234.898438 L 134.21875 235.875 Z M 135.90625 239.042969 " fill-opacity="1" fill-rule="nonzero"/><path fill="#afaea0" d="M 167.933594 247.222656 C 167.910156 247.367188 167.496094 248.324219 166.8125 249.84375 C 159.699219 254.136719 150.257812 259.425781 148.1875 261.40625 L 122.21875 286.195312 L 121.046875 287.3125 C 120.515625 287.820312 119.945312 288.246094 119.335938 288.59375 L 120.472656 269.757812 L 152.328125 245.269531 C 152.332031 245.265625 168.097656 246.25 167.933594 247.222656 Z M 167.933594 247.222656 " fill-opacity="1" fill-rule="nonzero"/><path fill="#1c1d23" d="M 178.226562 231.804688 L 178.179688 231.925781 L 173.347656 244.820312 C 173.125 244.949219 172.914062 245.078125 172.707031 245.214844 L 172.394531 245.421875 L 172.019531 245.648438 C 171.523438 245.960938 171.03125 246.277344 170.519531 246.578125 C 169.519531 247.195312 168.488281 247.78125 167.46875 248.371094 C 167.464844 248.371094 167.464844 248.375 167.457031 248.375 L 161.246094 251.878906 C 159.171875 253.039062 157.101562 254.226562 155.03125 255.421875 C 153.996094 256.015625 152.96875 256.632812 151.945312 257.257812 C 150.917969 257.890625 149.898438 258.523438 148.875 259.230469 L 148.109375 259.777344 L 147.316406 260.429688 L 146.011719 261.652344 L 143.421875 264.113281 L 138.242188 269.039062 L 127.917969 278.917969 L 122.757812 283.859375 L 120.175781 286.328125 C 119.941406 286.554688 119.691406 286.765625 119.4375 286.957031 C 118.878906 287.371094 118.277344 287.707031 117.621094 287.945312 C 115.71875 288.664062 113.527344 288.570312 111.65625 287.71875 C 111.417969 287.625 111.195312 287.496094 110.976562 287.371094 C 110.746094 287.253906 110.535156 287.101562 110.324219 286.957031 C 110.105469 286.820312 109.914062 286.648438 109.714844 286.484375 C 109.527344 286.335938 109.304688 286.128906 109.082031 285.921875 L 106.457031 283.503906 L 101.203125 278.664062 L 98.574219 276.242188 C 97.644531 275.398438 96.925781 274.734375 96.359375 273.863281 C 95.191406 272.160156 94.78125 269.980469 95.179688 267.980469 C 95.378906 266.976562 95.777344 266.019531 96.355469 265.179688 C 96.511719 264.980469 96.640625 264.761719 96.816406 264.578125 C 96.992188 264.398438 97.160156 264.203125 97.339844 264.023438 L 97.921875 263.527344 C 98.132812 263.355469 98.390625 263.167969 98.621094 262.988281 L 102.695312 259.890625 L 134.222656 235.878906 L 144.089844 228.359375 L 155.445312 219.683594 L 161.117188 215.339844 L 161.828125 214.796875 L 162.179688 214.527344 L 162.511719 214.292969 C 162.726562 214.136719 162.957031 214 163.191406 213.867188 C 163.414062 213.730469 163.664062 213.632812 163.902344 213.515625 C 164.882812 213.082031 165.957031 212.882812 167.027344 212.871094 C 168.101562 212.871094 169.183594 213.0625 170.1875 213.472656 C 170.683594 213.679688 171.171875 213.917969 171.621094 214.21875 C 171.851562 214.359375 172.078125 214.515625 172.285156 214.691406 L 172.605469 214.945312 L 172.945312 215.234375 L 175.65625 217.5625 L 177.007812 218.726562 L 177.6875 219.308594 C 177.902344 219.5 178.082031 219.691406 178.285156 219.878906 C 179.820312 221.429688 180.746094 223.574219 180.769531 225.765625 L 180.769531 225.914062 C 180.769531 228.054688 179.894531 230.179688 178.34375 231.679688 Z M 179.425781 218.765625 C 179.195312 218.542969 178.960938 218.296875 178.734375 218.097656 L 178.066406 217.507812 L 176.726562 216.328125 L 174.042969 213.960938 L 173.710938 213.667969 L 173.335938 213.363281 C 173.089844 213.148438 172.824219 212.964844 172.550781 212.789062 C 172.011719 212.421875 171.429688 212.128906 170.832031 211.871094 C 169.636719 211.367188 168.332031 211.113281 167.027344 211.097656 C 165.722656 211.089844 164.40625 211.324219 163.195312 211.839844 C 162.898438 211.976562 162.589844 212.09375 162.304688 212.265625 C 162.015625 212.417969 161.734375 212.582031 161.464844 212.773438 L 161.066406 213.050781 L 160.703125 213.320312 L 159.992188 213.851562 L 154.261719 218.125 L 142.820312 226.683594 L 133.179688 233.925781 L 99.296875 259.351562 L 97.113281 260.988281 C 96.867188 261.175781 96.640625 261.335938 96.390625 261.542969 L 95.613281 262.203125 C 95.375 262.441406 95.144531 262.691406 94.914062 262.941406 C 94.679688 263.195312 94.5 263.480469 94.292969 263.753906 C 93.511719 264.875 92.972656 266.15625 92.710938 267.488281 C 92.175781 270.148438 92.722656 273.015625 94.238281 275.265625 C 94.402344 275.558594 94.640625 275.808594 94.839844 276.078125 C 95.039062 276.355469 95.273438 276.597656 95.507812 276.835938 L 95.859375 277.199219 C 95.980469 277.320312 96.078125 277.40625 96.191406 277.511719 L 96.847656 278.121094 L 99.46875 280.542969 L 104.710938 285.394531 L 107.332031 287.824219 C 107.546875 288.027344 107.757812 288.222656 108.03125 288.449219 C 108.289062 288.664062 108.546875 288.890625 108.832031 289.070312 C 109.105469 289.265625 109.386719 289.464844 109.683594 289.625 C 109.976562 289.789062 110.273438 289.957031 110.585938 290.085938 C 113.054688 291.210938 115.96875 291.351562 118.535156 290.394531 C 119.820312 289.925781 121.011719 289.164062 121.984375 288.226562 L 124.570312 285.765625 L 140.097656 270.988281 L 147.832031 263.570312 L 149.113281 262.332031 L 149.691406 261.839844 L 150.371094 261.335938 C 152.230469 260 154.28125 258.761719 156.28125 257.503906 L 162.355469 253.757812 C 164.382812 252.507812 166.410156 251.25 168.410156 249.933594 C 169.414062 249.28125 170.410156 248.621094 171.398438 247.933594 C 171.894531 247.601562 172.386719 247.238281 172.871094 246.875 L 173.234375 246.609375 L 173.640625 246.285156 C 173.914062 246.0625 174.179688 245.835938 174.4375 245.613281 L 179.390625 232.546875 C 181.199219 230.796875 182.25 228.28125 182.242188 225.757812 C 182.261719 223.183594 181.222656 220.617188 179.425781 218.765625 Z M 179.425781 218.765625 " fill-opacity="1" fill-rule="nonzero"/><path fill="#afaea0" d="M 128.253906 229.191406 L 127.273438 233.597656 C 126.847656 235.507812 127.917969 237.425781 129.765625 238.0625 C 136.796875 240.492188 153.945312 246.21875 167.730469 249.296875 C 181.554688 252.378906 200.238281 254.996094 207.890625 256.007812 C 209.863281 256.269531 211.707031 254.980469 212.140625 253.035156 L 213.964844 244.851562 C 214.4375 242.722656 213.042969 240.621094 210.894531 240.234375 L 132.679688 226.246094 C 130.65625 225.882812 128.703125 227.179688 128.253906 229.191406 Z M 128.253906 229.191406 " fill-opacity="1" fill-rule="nonzero"/><path fill="#e2e2d3" d="M 128.460938 227.117188 L 127.476562 231.527344 C 127.054688 233.433594 128.125 235.351562 129.96875 235.988281 C 137 238.417969 154.148438 244.148438 167.933594 247.222656 C 181.761719 250.308594 200.445312 252.921875 208.097656 253.933594 C 210.070312 254.195312 211.914062 252.90625 212.34375 250.960938 L 214.167969 242.777344 C 214.644531 240.644531 213.25 238.546875 211.097656 238.160156 L 132.882812 224.175781 C 130.859375 223.8125 128.910156 225.109375 128.460938 227.117188 Z M 128.460938 227.117188 " fill-opacity="1" fill-rule="nonzero"/><path fill="#1c1d23" d="M 131.996094 226.859375 C 130.539062 226.859375 129.246094 227.867188 128.917969 229.335938 L 127.933594 233.746094 C 127.582031 235.316406 128.464844 236.898438 129.984375 237.421875 C 136.777344 239.765625 154.066406 245.550781 167.875 248.632812 C 181.726562 251.722656 200.535156 254.347656 207.980469 255.332031 C 209.613281 255.546875 211.121094 254.496094 211.480469 252.886719 L 213.304688 244.703125 C 213.492188 243.855469 213.332031 242.988281 212.847656 242.261719 C 212.367188 241.535156 211.628906 241.054688 210.773438 240.902344 L 132.558594 226.914062 C 132.371094 226.878906 132.183594 226.859375 131.996094 226.859375 Z M 208.410156 256.714844 C 208.210938 256.714844 208.007812 256.703125 207.804688 256.675781 C 200.339844 255.691406 181.484375 253.058594 167.582031 249.953125 C 153.703125 246.859375 136.355469 241.054688 129.542969 238.703125 C 127.371094 237.953125 126.109375 235.695312 126.613281 233.449219 L 127.59375 229.039062 C 128.125 226.667969 130.40625 225.148438 132.796875 225.574219 L 211.011719 239.5625 C 212.234375 239.78125 213.289062 240.472656 213.976562 241.507812 C 214.667969 242.542969 214.898438 243.78125 214.628906 244.992188 L 212.800781 253.179688 C 212.332031 255.285156 210.5 256.714844 208.410156 256.714844 Z M 208.410156 256.714844 " fill-opacity="1" fill-rule="nonzero"/><path fill="#e2e2d3" d="M 220.859375 240.207031 C 219.128906 247.457031 210.609375 249.820312 201.0625 250.046875 C 186.925781 250.378906 170.53125 246.054688 170.53125 246.054688 C 170.53125 246.054688 153.847656 243 141.203125 236.691406 C 136.179688 234.183594 131.785156 231.164062 129.332031 227.613281 C 127.609375 225.125 126.832031 222.378906 127.460938 219.367188 C 130.332031 205.507812 152.1875 172.378906 162.292969 157.585938 C 165.394531 153.042969 167.390625 150.230469 167.390625 150.230469 L 190.410156 156.910156 L 214.09375 160.644531 C 214.09375 160.644531 225.15625 222.214844 220.859375 240.207031 Z M 220.859375 240.207031 " fill-opacity="1" fill-rule="nonzero"/><path fill="#afaea0" d="M 173.679688 170.128906 C 173.679688 170.128906 170.003906 173.175781 166.808594 178.402344 C 163.617188 183.625 150.226562 195.601562 145.09375 197.886719 C 139.964844 200.171875 128.671875 221.617188 129.625 226.183594 C 129.761719 226.828125 129.636719 227.289062 129.332031 227.609375 C 127.609375 225.125 126.835938 222.375 127.460938 219.367188 C 130.332031 205.507812 152.1875 172.375 162.292969 157.582031 Z M 173.679688 170.128906 " fill-opacity="1" fill-rule="nonzero"/><path fill="#1c1d23" d="M 219.390625 239.855469 C 220.03125 236.800781 220.234375 233.503906 220.347656 230.226562 C 220.441406 226.941406 220.382812 223.628906 220.253906 220.3125 C 219.976562 213.683594 219.421875 207.042969 218.753906 200.417969 C 218.070312 193.789062 217.265625 187.167969 216.371094 180.558594 C 215.480469 173.949219 214.503906 167.347656 213.425781 160.769531 L 213.988281 161.316406 L 190.304688 157.582031 L 190.265625 157.578125 L 190.222656 157.566406 L 167.203125 150.878906 L 167.945312 150.621094 C 161.542969 159.828125 155.34375 169.195312 149.375 178.691406 C 146.402344 183.445312 143.492188 188.238281 140.695312 193.09375 C 137.921875 197.957031 135.210938 202.863281 132.832031 207.90625 C 131.644531 210.421875 130.515625 212.972656 129.617188 215.574219 C 129.378906 216.21875 129.203125 216.875 128.992188 217.527344 C 128.789062 218.179688 128.660156 218.835938 128.492188 219.492188 C 128.253906 220.746094 128.238281 222.007812 128.5 223.238281 C 129.054688 225.699219 130.65625 227.894531 132.609375 229.707031 C 134.574219 231.53125 136.859375 233.058594 139.265625 234.386719 C 141.667969 235.71875 144.191406 236.859375 146.75 237.917969 C 149.324219 238.953125 151.945312 239.867188 154.597656 240.714844 C 157.246094 241.558594 159.929688 242.308594 162.632812 242.992188 C 165.324219 243.675781 168.0625 244.296875 170.765625 244.804688 L 170.804688 244.8125 L 170.859375 244.824219 C 173.015625 245.367188 175.246094 245.84375 177.457031 246.273438 C 179.671875 246.707031 181.898438 247.09375 184.128906 247.417969 C 188.59375 248.085938 193.082031 248.535156 197.558594 248.636719 C 199.792969 248.679688 202.03125 248.65625 204.234375 248.453125 C 206.4375 248.261719 208.617188 247.925781 210.691406 247.34375 C 212.753906 246.753906 214.714844 245.894531 216.289062 244.65625 C 217.875 243.433594 218.914062 241.75 219.390625 239.855469 Z M 222.328125 240.554688 C 221.707031 243.082031 220.164062 245.449219 218.121094 246.984375 C 216.085938 248.542969 213.773438 249.496094 211.464844 250.140625 C 209.144531 250.765625 206.796875 251.101562 204.464844 251.285156 C 202.128906 251.476562 199.800781 251.480469 197.488281 251.414062 C 192.855469 251.269531 188.265625 250.769531 183.726562 250.050781 C 181.457031 249.695312 179.195312 249.285156 176.945312 248.824219 C 174.691406 248.359375 172.464844 247.867188 170.210938 247.28125 L 170.304688 247.304688 C 167.492188 246.746094 164.757812 246.097656 162.015625 245.378906 C 159.277344 244.660156 156.558594 243.875 153.863281 242.988281 C 151.171875 242.105469 148.5 241.144531 145.871094 240.058594 C 143.25 238.953125 140.65625 237.753906 138.160156 236.339844 C 135.667969 234.929688 133.253906 233.300781 131.117188 231.285156 C 130.066406 230.261719 129.050781 229.167969 128.246094 227.882812 C 127.4375 226.609375 126.757812 225.207031 126.449219 223.675781 C 126.136719 222.15625 126.171875 220.5625 126.476562 219.0625 C 126.664062 218.359375 126.8125 217.636719 127.03125 216.949219 C 127.261719 216.265625 127.457031 215.566406 127.710938 214.902344 C 128.671875 212.199219 129.84375 209.613281 131.074219 207.066406 C 133.53125 201.964844 136.304688 197.054688 139.136719 192.1875 C 141.992188 187.332031 144.957031 182.550781 147.980469 177.808594 C 154.046875 168.332031 160.335938 159.015625 166.835938 149.835938 L 166.839844 149.832031 L 167.117188 149.441406 L 167.582031 149.574219 L 190.601562 156.261719 L 190.519531 156.242188 L 214.199219 159.976562 L 214.671875 160.050781 L 214.757812 160.523438 C 215.992188 167.101562 217.117188 173.6875 218.167969 180.292969 C 219.214844 186.894531 220.171875 193.515625 221.011719 200.15625 C 221.835938 206.796875 222.542969 213.460938 222.980469 220.167969 C 223.1875 223.523438 223.324219 226.890625 223.308594 230.277344 C 223.277344 233.671875 223.125 237.082031 222.328125 240.554688 Z M 222.328125 240.554688 " fill-opacity="1" fill-rule="nonzero"/><path fill="#ff2e57" d="M 204.003906 178.65625 C 204.003906 178.65625 204.960938 207.839844 220.773438 214.984375 L 220.777344 214.984375 C 219.578125 200.390625 217.214844 184.167969 215.5625 173.800781 C 211.332031 175.359375 204.003906 178.65625 204.003906 178.65625 Z M 204.003906 178.65625 " fill-opacity="1" fill-rule="nonzero"/><path fill="#1c1d23" d="M 204.703125 179.085938 C 204.90625 182.6875 206.765625 206.703125 220 213.84375 C 218.820312 200.09375 216.679688 185.195312 215.023438 174.726562 C 211.421875 176.105469 206.207031 178.414062 204.703125 179.085938 Z M 221.53125 215.871094 L 220.496094 215.601562 C 204.480469 208.367188 203.367188 179.886719 203.324219 178.679688 L 203.308594 178.226562 L 203.722656 178.039062 C 203.796875 178.003906 211.121094 174.714844 215.328125 173.164062 L 216.101562 172.878906 L 216.230469 173.691406 C 217.953125 184.511719 220.261719 200.445312 221.449219 214.925781 Z M 221.53125 215.871094 " fill-opacity="1" fill-rule="nonzero"/><path fill="#ff2e57" d="M 169.757812 168.761719 C 169.757812 168.761719 156.492188 194.769531 139.144531 194.515625 L 139.136719 194.511719 C 146.425781 181.816406 155.457031 168.132812 161.355469 159.449219 C 164.523438 162.660156 169.757812 168.761719 169.757812 168.761719 Z M 169.757812 168.761719 " fill-opacity="1" fill-rule="nonzero"/><path fill="#1c1d23" d="M 161.449219 160.519531 C 155.503906 169.289062 147.234375 181.871094 140.324219 193.8125 C 155.335938 192.972656 167.226562 172.023438 168.941406 168.851562 C 167.859375 167.601562 164.125 163.300781 161.449219 160.519531 Z M 139.402344 195.191406 C 139.3125 195.191406 139.222656 195.191406 139.132812 195.191406 L 139.007812 195.179688 L 138.085938 194.992188 L 138.550781 194.175781 C 145.777344 181.578125 154.636719 168.132812 160.792969 159.070312 L 161.257812 158.390625 L 161.835938 158.976562 C 164.988281 162.167969 170.214844 168.257812 170.269531 168.320312 L 170.566406 168.664062 L 170.359375 169.070312 C 169.8125 170.140625 156.832031 195.191406 139.402344 195.191406 Z M 139.402344 195.191406 " fill-opacity="1" fill-rule="nonzero"/><path fill="#e2e2d3" d="M 208.679688 215.878906 L 201.0625 250.042969 C 186.929688 250.378906 170.535156 246.050781 170.535156 246.050781 C 170.535156 246.050781 156.832031 243.546875 144.855469 238.382812 C 143.613281 237.84375 142.390625 237.28125 141.203125 236.6875 L 148.820312 202.523438 C 149.535156 199.324219 152.703125 197.316406 155.890625 198.027344 L 162.75 199.558594 L 204.1875 208.808594 C 207.382812 209.519531 209.394531 212.683594 208.679688 215.878906 Z M 208.679688 215.878906 " fill-opacity="1" fill-rule="nonzero"/><path fill="#afaea0" d="M 165.390625 201.019531 C 165.390625 201.019531 154.199219 198.867188 152.332031 203.21875 C 150.765625 206.867188 146.277344 230.722656 144.855469 238.382812 C 143.613281 237.84375 142.390625 237.28125 141.203125 236.6875 L 148.820312 202.523438 C 149.53125 199.324219 152.699219 197.316406 155.886719 198.03125 L 162.75 199.558594 Z M 165.390625 201.019531 " fill-opacity="1" fill-rule="nonzero"/><path fill="#1c1d23" d="M 207.851562 215.695312 C 208.035156 214.792969 208.011719 213.84375 207.703125 212.972656 C 207.421875 212.097656 206.871094 211.316406 206.175781 210.71875 C 205.824219 210.421875 205.429688 210.179688 205.015625 209.980469 C 204.804688 209.898438 204.59375 209.796875 204.371094 209.742188 L 204.039062 209.648438 L 203.652344 209.558594 L 200.507812 208.855469 L 187.929688 206.050781 L 162.777344 200.441406 L 156.492188 199.035156 L 155.703125 198.859375 C 155.476562 198.832031 155.253906 198.765625 155.023438 198.761719 C 154.5625 198.707031 154.101562 198.761719 153.648438 198.832031 C 153.199219 198.921875 152.761719 199.070312 152.347656 199.269531 C 151.941406 199.488281 151.546875 199.730469 151.210938 200.046875 C 150.871094 200.359375 150.5625 200.703125 150.324219 201.097656 C 150.070312 201.480469 149.882812 201.90625 149.75 202.347656 L 149.65625 202.679688 L 149.566406 203.066406 L 149.390625 203.851562 L 149.042969 205.425781 L 147.632812 211.714844 L 144.769531 224.28125 L 143.332031 230.5625 L 141.859375 236.839844 L 141.5 236.085938 L 141.503906 236.085938 C 143.792969 237.199219 146.128906 238.226562 148.519531 239.136719 C 150.910156 240.039062 153.324219 240.886719 155.773438 241.632812 C 158.21875 242.386719 160.683594 243.082031 163.167969 243.707031 C 165.648438 244.332031 168.15625 244.910156 170.652344 245.390625 L 170.679688 245.394531 L 170.703125 245.402344 C 173.167969 246.027344 175.683594 246.570312 178.191406 247.058594 C 180.707031 247.550781 183.234375 247.96875 185.769531 248.328125 C 188.304688 248.691406 190.851562 248.949219 193.398438 249.148438 C 195.945312 249.339844 198.496094 249.40625 201.042969 249.371094 L 200.398438 249.898438 L 202.234375 241.34375 L 204.105469 232.796875 Z M 209.511719 216.0625 L 205.636719 233.132812 L 203.699219 241.664062 L 201.722656 250.191406 L 201.601562 250.71875 L 201.078125 250.71875 C 198.480469 250.753906 195.882812 250.6875 193.300781 250.496094 C 190.71875 250.292969 188.144531 250.03125 185.585938 249.664062 C 183.023438 249.300781 180.476562 248.875 177.9375 248.386719 C 175.398438 247.890625 172.882812 247.347656 170.359375 246.707031 L 170.410156 246.71875 C 167.855469 246.226562 165.347656 245.648438 162.839844 245.015625 C 160.335938 244.382812 157.84375 243.683594 155.375 242.921875 C 152.898438 242.167969 150.457031 241.3125 148.035156 240.398438 C 145.613281 239.472656 143.238281 238.429688 140.898438 237.292969 L 140.425781 237.074219 L 140.539062 236.539062 L 141.871094 230.234375 L 145.984375 211.34375 L 147.382812 205.054688 L 147.734375 203.480469 L 147.910156 202.695312 L 148 202.296875 L 148.121094 201.851562 C 148.296875 201.265625 148.546875 200.699219 148.886719 200.183594 C 149.207031 199.65625 149.617188 199.191406 150.070312 198.78125 C 150.519531 198.359375 151.046875 198.03125 151.585938 197.746094 C 152.136719 197.476562 152.722656 197.28125 153.328125 197.160156 C 153.929688 197.058594 154.550781 197 155.160156 197.066406 C 155.46875 197.074219 155.765625 197.15625 156.070312 197.199219 L 156.859375 197.375 L 163.144531 198.777344 L 188.296875 204.390625 L 200.875 207.195312 L 204.019531 207.898438 L 204.417969 207.988281 L 204.859375 208.109375 C 205.15625 208.191406 205.4375 208.316406 205.722656 208.433594 C 206.277344 208.695312 206.800781 209.023438 207.273438 209.417969 C 208.203125 210.21875 208.929688 211.261719 209.3125 212.429688 C 209.722656 213.59375 209.761719 214.867188 209.511719 216.0625 Z M 209.511719 216.0625 " fill-opacity="1" fill-rule="nonzero"/><path fill="#1c1d23" d="M 137.195312 271.117188 C 130.699219 252.085938 116.253906 249.828125 115.644531 249.742188 L 116.011719 247.074219 C 116.6875 247.167969 132.6875 249.582031 139.742188 270.246094 Z M 137.195312 271.117188 " fill-opacity="1" fill-rule="nonzero"/><path fill="#1c1d23" d="M 185.703125 277.214844 L 183.789062 275.320312 C 184.269531 274.835938 195.804688 263.480469 216.5625 270.234375 L 215.726562 272.792969 C 196.613281 266.574219 186.136719 276.777344 185.703125 277.214844 Z M 185.703125 277.214844 " fill-opacity="1" fill-rule="nonzero"/><path fill="#e2e2d3" d="M 121.8125 288.734375 C 117.105469 293.828125 109.601562 291.1875 102.019531 284.191406 C 101.050781 283.292969 100.121094 282.367188 99.261719 281.421875 C 95.316406 277.128906 92.621094 272.480469 92.507812 268.554688 C 92.449219 266.617188 93.019531 264.859375 94.367188 263.394531 C 96.941406 260.601562 101.085938 259.804688 105.554688 260.792969 C 109.257812 261.617188 113.171875 263.664062 116.601562 266.835938 C 117.605469 267.765625 118.519531 268.742188 119.335938 269.753906 C 124.675781 276.355469 125.886719 284.316406 121.8125 288.734375 Z M 121.8125 288.734375 " fill-opacity="1" fill-rule="nonzero"/><path fill="#ffffff" d="M 105.554688 260.796875 C 105.042969 260.914062 95.445312 263.15625 92.507812 268.554688 C 92.449219 266.617188 93.019531 264.859375 94.367188 263.394531 C 96.941406 260.605469 101.085938 259.808594 105.554688 260.796875 Z M 105.554688 260.796875 " fill-opacity="1" fill-rule="nonzero"/><path fill="#afaea0" d="M 121.8125 288.734375 C 117.105469 293.828125 109.601562 291.1875 102.019531 284.191406 C 101.050781 283.292969 100.121094 282.367188 99.261719 281.421875 C 103.261719 283.726562 107.738281 284.183594 110.320312 284.957031 C 118.015625 287.253906 119.335938 269.753906 119.335938 269.753906 C 124.675781 276.355469 125.886719 284.316406 121.8125 288.734375 Z M 121.8125 288.734375 " fill-opacity="1" fill-rule="nonzero"/><g clip-path="url(#66a1e6bf53)"><path fill="#1c1d23" d="M 120.84375 287.839844 C 122.019531 286.609375 122.757812 284.957031 122.96875 283.164062 C 123.199219 281.371094 122.964844 279.480469 122.453125 277.660156 C 121.410156 274.003906 119.246094 270.621094 116.488281 267.871094 C 113.738281 265.109375 110.355469 262.894531 106.621094 261.785156 C 104.765625 261.230469 102.816406 260.960938 100.914062 261.125 C 99.019531 261.285156 97.175781 261.921875 95.75 263.09375 C 95.039062 263.6875 94.433594 264.386719 94.015625 265.171875 C 93.582031 265.957031 93.378906 266.847656 93.324219 267.746094 C 93.226562 269.566406 93.796875 271.429688 94.609375 273.152344 C 95.433594 274.886719 96.523438 276.515625 97.738281 278.042969 C 98.960938 279.570312 100.304688 281.007812 101.738281 282.347656 C 103.167969 283.695312 104.675781 284.957031 106.25 286.097656 C 107.824219 287.230469 109.480469 288.234375 111.207031 288.953125 C 112.933594 289.664062 114.734375 290.074219 116.421875 289.96875 C 118.101562 289.835938 119.625 289.09375 120.84375 287.839844 Z M 122.777344 289.628906 L 122.160156 290.230469 C 121.949219 290.429688 121.757812 290.640625 121.507812 290.804688 C 121.035156 291.148438 120.570312 291.511719 120.027344 291.757812 C 119.757812 291.882812 119.507812 292.050781 119.222656 292.136719 L 118.382812 292.421875 C 118.101562 292.53125 117.808594 292.554688 117.519531 292.613281 C 117.230469 292.65625 116.9375 292.726562 116.648438 292.738281 C 114.304688 292.902344 112.101562 292.277344 110.152344 291.398438 C 108.191406 290.507812 106.425781 289.351562 104.773438 288.089844 C 103.128906 286.816406 101.582031 285.453125 100.148438 283.976562 C 97.285156 281.03125 94.683594 277.75 92.96875 273.902344 C 92.148438 271.976562 91.546875 269.851562 91.730469 267.632812 C 91.835938 266.535156 92.140625 265.429688 92.691406 264.457031 C 93.242188 263.476562 93.996094 262.648438 94.839844 261.972656 C 96.566406 260.621094 98.699219 259.914062 100.800781 259.757812 C 102.914062 259.597656 105.015625 259.898438 107.007812 260.472656 C 111 261.65625 114.601562 263.882812 117.632812 266.6875 C 119.152344 268.09375 120.507812 269.679688 121.691406 271.398438 C 122.871094 273.121094 123.847656 275.007812 124.523438 277.023438 C 125.199219 279.035156 125.554688 281.210938 125.363281 283.425781 C 125.191406 285.625 124.328125 287.886719 122.777344 289.628906 Z M 122.777344 289.628906 " fill-opacity="1" fill-rule="nonzero"/></g><path fill="#e2e2d3" d="M 226.675781 299.976562 C 224.484375 303.675781 219.144531 306.199219 212.113281 307.492188 C 201.96875 309.355469 192.144531 307.957031 190.890625 301.140625 C 190.019531 296.40625 193.21875 291.570312 198.648438 288.429688 C 198.65625 288.425781 198.65625 288.425781 198.65625 288.425781 C 201.050781 287.042969 203.882812 285.984375 206.988281 285.417969 C 217.132812 283.550781 226.367188 287.566406 227.617188 294.382812 C 228 296.472656 227.648438 298.34375 226.675781 299.976562 Z M 226.675781 299.976562 " fill-opacity="1" fill-rule="nonzero"/><path fill="#afaea0" d="M 226.675781 299.976562 C 224.484375 303.675781 219.144531 306.199219 212.113281 307.492188 C 201.96875 309.355469 192.144531 307.957031 190.890625 301.140625 C 190.019531 296.40625 193.21875 291.570312 198.648438 288.429688 C 198.554688 288.710938 194.550781 300.488281 208.308594 302.210938 C 216.402344 303.21875 222.765625 301.554688 226.675781 299.976562 Z M 226.675781 299.976562 " fill-opacity="1" fill-rule="nonzero"/><g clip-path="url(#136d62defd)"><path fill="#1c1d23" d="M 226.734375 294.546875 C 226.4375 292.769531 225.5 291.109375 224.136719 289.816406 C 222.789062 288.511719 221.089844 287.535156 219.277344 286.867188 C 215.632812 285.519531 211.570312 285.359375 207.726562 286.027344 C 203.875 286.695312 200.117188 288.152344 197.070312 290.523438 C 195.554688 291.703125 194.21875 293.101562 193.257812 294.699219 C 192.292969 296.285156 191.753906 298.082031 191.84375 299.839844 C 191.898438 300.71875 192.09375 301.574219 192.449219 302.328125 C 192.804688 303.082031 193.351562 303.734375 194 304.289062 C 195.316406 305.398438 197.082031 306.0625 198.914062 306.449219 C 200.757812 306.835938 202.6875 306.972656 204.621094 306.945312 C 206.558594 306.910156 208.507812 306.746094 210.441406 306.453125 C 214.300781 305.851562 218.179688 304.964844 221.535156 303.175781 C 223.195312 302.28125 224.703125 301.121094 225.699219 299.640625 C 226.6875 298.160156 227.019531 296.355469 226.734375 294.546875 Z M 228.503906 294.222656 L 228.609375 295.042969 C 228.644531 295.320312 228.699219 295.59375 228.679688 295.875 C 228.675781 296.433594 228.6875 296.996094 228.5625 297.554688 C 228.414062 298.679688 227.945312 299.742188 227.390625 300.710938 C 226.191406 302.617188 224.464844 304.042969 222.644531 305.128906 C 220.816406 306.222656 218.855469 306.996094 216.875 307.621094 C 214.890625 308.238281 212.875 308.707031 210.835938 309.023438 C 206.765625 309.640625 202.554688 309.832031 198.367188 308.914062 C 197.328125 308.667969 196.289062 308.34375 195.28125 307.890625 C 194.28125 307.433594 193.292969 306.867188 192.4375 306.089844 C 191.582031 305.316406 190.839844 304.363281 190.375 303.277344 C 189.902344 302.195312 189.691406 301.042969 189.664062 299.917969 C 189.625 297.636719 190.394531 295.449219 191.582031 293.648438 C 192.765625 291.835938 194.316406 290.339844 196.015625 289.113281 C 199.4375 286.671875 203.421875 285.210938 207.496094 284.59375 C 211.570312 283.992188 215.796875 284.203125 219.753906 285.542969 C 221.71875 286.226562 223.625 287.214844 225.226562 288.65625 C 226.832031 290.070312 228.0625 292.035156 228.503906 294.222656 Z M 228.503906 294.222656 " fill-opacity="1" fill-rule="nonzero"/></g><path fill="#1c1d23" d="M 241.667969 195.492188 C 229.804688 188.738281 234.402344 173.320312 234.449219 173.167969 L 236.160156 173.695312 C 235.984375 174.273438 231.945312 187.898438 242.554688 193.9375 Z M 241.667969 195.492188 " fill-opacity="1" fill-rule="nonzero"/><path fill="#1c1d23" d="M 130.753906 169.359375 L 130.53125 167.578125 C 140.882812 166.296875 145.867188 152.585938 145.914062 152.449219 L 147.605469 153.050781 C 147.390625 153.65625 142.207031 167.9375 130.753906 169.359375 Z M 130.753906 169.359375 " fill-opacity="1" fill-rule="nonzero"/><path fill="#afaea0" d="M 165.394531 212.171875 C 165.394531 215.78125 162.472656 218.707031 158.867188 218.707031 C 158.210938 218.707031 157.578125 218.613281 156.984375 218.429688 C 154.292969 217.625 152.332031 215.125 152.332031 212.171875 C 152.332031 208.886719 154.753906 206.179688 157.902344 205.714844 C 158.214844 205.664062 158.539062 205.640625 158.867188 205.640625 C 162.472656 205.640625 165.394531 208.566406 165.394531 212.171875 Z M 165.394531 212.171875 " fill-opacity="1" fill-rule="nonzero"/><path fill="#e2e2d3" d="M 165.394531 212.171875 C 165.394531 215.78125 162.472656 218.707031 158.867188 218.707031 C 158.210938 218.707031 157.578125 218.613281 156.984375 218.429688 C 161.902344 213.847656 159.296875 208.046875 157.902344 205.714844 C 158.214844 205.664062 158.539062 205.640625 158.867188 205.640625 C 162.472656 205.640625 165.394531 208.566406 165.394531 212.171875 Z M 165.394531 212.171875 " fill-opacity="1" fill-rule="nonzero"/><path fill="#1c1d23" d="M 158.863281 206.320312 C 155.636719 206.320312 153.011719 208.945312 153.011719 212.171875 C 153.011719 215.398438 155.636719 218.027344 158.863281 218.027344 C 162.09375 218.027344 164.714844 215.398438 164.714844 212.171875 C 164.714844 208.945312 162.089844 206.320312 158.863281 206.320312 Z M 158.863281 219.382812 C 154.890625 219.382812 151.65625 216.148438 151.65625 212.171875 C 151.65625 208.199219 154.890625 204.964844 158.863281 204.964844 C 162.839844 204.964844 166.070312 208.199219 166.070312 212.171875 C 166.070312 216.148438 162.835938 219.382812 158.863281 219.382812 Z M 158.863281 219.382812 " fill-opacity="1" fill-rule="nonzero"/><path fill="#e2e2d3" d="M 138.6875 105.519531 L 144.320312 78.90625 L 147.414062 79.394531 L 143.882812 103.179688 Z M 138.6875 105.519531 " fill-opacity="1" fill-rule="nonzero"/><path fill="#1c1d23" d="M 144.851562 79.675781 L 139.625 104.351562 L 143.269531 102.714844 L 146.648438 79.957031 Z M 137.746094 106.683594 L 143.789062 78.136719 L 148.183594 78.828125 L 144.496094 103.644531 Z M 137.746094 106.683594 " fill-opacity="1" fill-rule="nonzero"/><path fill="#e2e2d3" d="M 143.714844 146.675781 C 143.714844 146.675781 142.980469 146.398438 141.886719 145.925781 C 139.648438 144.953125 135.929688 143.140625 134.015625 141.140625 C 131.164062 138.15625 132.660156 114.316406 133.941406 110.136719 C 134.683594 107.703125 139.21875 105.015625 142.867188 103.203125 C 145.46875 101.910156 147.617188 101.058594 147.617188 101.058594 Z M 143.714844 146.675781 " fill-opacity="1" fill-rule="nonzero"/><path fill="#afaea0" d="M 143.714844 146.675781 C 143.714844 146.675781 142.980469 146.398438 141.886719 145.925781 C 131.75 133.980469 141.320312 104.953125 141.320312 104.953125 L 142.863281 103.203125 C 145.464844 101.910156 147.617188 101.058594 147.617188 101.058594 Z M 143.714844 146.675781 " fill-opacity="1" fill-rule="nonzero"/><path fill="#1c1d23" d="M 147.867188 101.6875 C 145.644531 102.671875 143.425781 103.75 141.320312 104.953125 C 140.261719 105.554688 139.238281 106.203125 138.257812 106.878906 C 137.285156 107.566406 136.351562 108.3125 135.632812 109.140625 C 135.285156 109.554688 135 109.996094 134.878906 110.386719 C 134.734375 110.863281 134.632812 111.480469 134.539062 112.058594 C 134.359375 113.246094 134.230469 114.460938 134.117188 115.675781 C 133.882812 118.113281 133.726562 120.566406 133.625 123.015625 C 133.519531 125.46875 133.460938 127.921875 133.492188 130.367188 C 133.53125 132.804688 133.605469 135.261719 133.941406 137.601562 C 133.988281 137.890625 134.027344 138.1875 134.089844 138.460938 L 134.175781 138.882812 L 134.28125 139.285156 C 134.3125 139.421875 134.355469 139.546875 134.398438 139.664062 C 134.445312 139.777344 134.476562 139.925781 134.53125 140.007812 C 134.582031 140.097656 134.625 140.230469 134.671875 140.285156 C 134.695312 140.3125 134.714844 140.34375 134.734375 140.375 L 134.761719 140.421875 L 134.835938 140.496094 C 135.585938 141.289062 136.550781 141.988281 137.542969 142.640625 C 139.546875 143.925781 141.742188 145.046875 143.949219 146.039062 L 143.476562 147.308594 C 142.265625 146.917969 141.109375 146.457031 139.953125 145.957031 C 138.792969 145.460938 137.660156 144.902344 136.550781 144.261719 C 135.445312 143.613281 134.363281 142.894531 133.367188 141.9375 L 133.273438 141.847656 L 133.160156 141.710938 L 132.945312 141.429688 C 132.804688 141.238281 132.742188 141.074219 132.644531 140.894531 C 132.542969 140.710938 132.5 140.550781 132.429688 140.378906 C 132.363281 140.210938 132.304688 140.039062 132.261719 139.878906 L 132.121094 139.386719 L 132.007812 138.898438 C 131.929688 138.574219 131.878906 138.257812 131.820312 137.9375 C 131.601562 136.664062 131.503906 135.402344 131.417969 134.144531 C 131.339844 132.890625 131.300781 131.636719 131.296875 130.386719 C 131.273438 127.886719 131.339844 125.398438 131.464844 122.910156 C 131.597656 120.425781 131.785156 117.941406 132.054688 115.460938 C 132.199219 114.21875 132.363281 112.980469 132.582031 111.726562 C 132.707031 111.089844 132.808594 110.484375 133.035156 109.78125 C 133.308594 108.996094 133.753906 108.410156 134.207031 107.886719 C 135.136719 106.867188 136.179688 106.097656 137.238281 105.382812 C 138.300781 104.671875 139.40625 104.054688 140.519531 103.472656 C 142.75 102.316406 145.019531 101.300781 147.375 100.417969 Z M 147.867188 101.6875 " fill-opacity="1" fill-rule="nonzero"/><path fill="#e2e2d3" d="M 264.191406 128.382812 L 268.296875 101.492188 L 265.230469 100.855469 L 260.152344 124.359375 Z M 264.191406 128.382812 " fill-opacity="1" fill-rule="nonzero"/><path fill="#1c1d23" d="M 260.890625 124.140625 L 263.722656 126.960938 L 267.53125 102.023438 L 265.75 101.65625 Z M 264.65625 129.804688 L 259.414062 124.578125 L 264.710938 100.054688 L 269.066406 100.957031 Z M 264.65625 129.804688 " fill-opacity="1" fill-rule="nonzero"/><path fill="#e2e2d3" d="M 256.003906 163.363281 C 254.449219 164.109375 252.269531 164.539062 250.257812 164.785156 C 247.453125 165.128906 244.976562 165.125 244.976562 165.125 L 257.402344 121.058594 C 257.402344 121.058594 259.535156 122.992188 261.792969 125.511719 C 264.394531 128.398438 267.152344 132.046875 267.003906 134.375 C 266.726562 138.738281 259.726562 161.578125 256.003906 163.363281 Z M 256.003906 163.363281 " fill-opacity="1" fill-rule="nonzero"/><path fill="#afaea0" d="M 250.257812 164.785156 C 247.453125 165.128906 244.976562 165.125 244.976562 165.125 L 257.402344 121.058594 C 257.402344 121.058594 259.535156 122.992188 261.792969 125.511719 C 261.605469 130.324219 260.238281 151.324219 250.257812 164.785156 Z M 250.257812 164.785156 " fill-opacity="1" fill-rule="nonzero"/><path fill="#1c1d23" d="M 244.976562 165.800781 L 244.980469 164.445312 C 245.054688 164.445312 252.175781 164.449219 255.710938 162.753906 C 258.882812 161.230469 266.019531 139.207031 266.328125 134.335938 C 266.539062 131.03125 259.628906 123.992188 256.945312 121.558594 L 257.855469 120.554688 C 258.894531 121.492188 267.96875 129.871094 267.683594 134.421875 C 267.414062 138.632812 260.441406 161.988281 256.296875 163.972656 C 252.484375 165.804688 245.28125 165.804688 244.976562 165.800781 Z M 244.976562 165.800781 " fill-opacity="1" fill-rule="nonzero"/><path fill="#e2e2d3" d="M 244.996094 165.078125 C 244.484375 165.664062 243.964844 166.234375 243.417969 166.789062 C 242.21875 168.035156 240.9375 169.207031 239.578125 170.308594 C 236.691406 172.648438 233.480469 174.652344 229.9375 176.308594 C 219.355469 181.242188 205.894531 182.972656 189.828125 180.6875 C 173.992188 177.160156 162 170.792969 153.84375 162.445312 C 151.113281 159.648438 148.808594 156.636719 146.933594 153.429688 C 146.808594 153.21875 146.6875 153.003906 146.566406 152.789062 C 137.097656 135.972656 139.671875 114.046875 151.828125 90.855469 C 155.40625 84.035156 160.300781 78.859375 166.03125 75.09375 C 178.515625 66.890625 194.960938 65.375 210.328125 68.101562 C 223.027344 70.480469 235.394531 75.832031 244.269531 84.464844 C 251.03125 91.039062 255.765625 99.519531 257.058594 110.027344 C 257.550781 113.976562 257.832031 117.816406 257.917969 121.542969 C 258.355469 139.429688 254.164062 154.515625 244.996094 165.078125 Z M 244.996094 165.078125 " fill-opacity="1" fill-rule="nonzero"/><path fill="#ffffff" d="M 244.269531 84.464844 C 237.472656 80.234375 226.265625 75.019531 208.433594 71.878906 C 191.40625 68.882812 176.300781 71.796875 166.035156 75.09375 C 178.515625 66.890625 194.960938 65.375 210.328125 68.101562 C 223.027344 70.480469 235.398438 75.832031 244.269531 84.464844 Z M 244.269531 84.464844 " fill-opacity="1" fill-rule="nonzero"/><path fill="#afaea0" d="M 243.417969 166.789062 C 242.21875 168.035156 240.9375 169.207031 239.578125 170.308594 C 236.691406 172.648438 233.480469 174.652344 229.9375 176.308594 C 219.355469 181.242188 205.894531 182.972656 189.828125 180.6875 C 173.992188 177.160156 162 170.792969 153.84375 162.445312 C 151.113281 159.648438 148.808594 156.636719 146.933594 153.429688 C 146.808594 153.21875 146.6875 153.003906 146.566406 152.789062 C 144.445312 143.875 143.410156 127.167969 152.144531 110.40625 C 166.652344 82.5625 180.988281 77.894531 207.703125 82.761719 C 232.003906 87.191406 253.503906 104.449219 249.0625 142.703125 C 247.960938 152.191406 245.902344 160.164062 243.417969 166.789062 Z M 243.417969 166.789062 " fill-opacity="1" fill-rule="nonzero"/><g clip-path="url(#bd37a38d4f)"><path fill="#1c1d23" d="M 244.242188 164.425781 C 248.378906 159.625 251.382812 153.917969 253.378906 147.894531 C 254.394531 144.882812 255.121094 141.769531 255.664062 138.632812 C 256.203125 135.488281 256.5625 132.3125 256.707031 129.117188 C 257.042969 122.734375 256.707031 116.304688 255.898438 109.953125 C 255.089844 103.695312 252.890625 97.636719 249.394531 92.398438 C 247.648438 89.78125 245.605469 87.359375 243.339844 85.15625 C 241.070312 82.964844 238.566406 81.003906 235.921875 79.253906 C 230.632812 75.746094 224.738281 73.164062 218.652344 71.296875 C 215.605469 70.363281 212.488281 69.621094 209.355469 69.078125 C 206.214844 68.554688 203.035156 68.207031 199.851562 68.054688 C 193.488281 67.773438 187.074219 68.28125 180.921875 69.839844 C 177.851562 70.625 174.851562 71.675781 171.988281 73.011719 C 169.121094 74.34375 166.417969 76.007812 163.925781 77.933594 C 161.429688 79.863281 159.160156 82.078125 157.199219 84.550781 C 155.222656 87.019531 153.558594 89.691406 152.140625 92.558594 C 149.214844 98.269531 146.71875 104.203125 144.894531 110.335938 L 144.214844 112.636719 L 143.660156 114.964844 L 143.378906 116.132812 L 143.238281 116.714844 L 143.132812 117.300781 L 142.707031 119.65625 C 142.636719 120.050781 142.558594 120.441406 142.5 120.835938 L 142.355469 122.023438 L 142.070312 124.394531 C 141.988281 125.1875 141.972656 125.984375 141.917969 126.777344 L 141.851562 127.96875 L 141.816406 128.566406 L 141.824219 129.160156 C 141.855469 130.75 141.804688 132.34375 141.988281 133.921875 C 142.0625 134.714844 142.097656 135.507812 142.195312 136.292969 C 142.316406 137.078125 142.433594 137.859375 142.542969 138.648438 C 142.605469 139.039062 142.644531 139.4375 142.726562 139.824219 L 142.976562 140.988281 C 143.148438 141.761719 143.300781 142.542969 143.492188 143.3125 L 144.1875 145.59375 C 144.304688 145.96875 144.40625 146.359375 144.542969 146.730469 L 144.988281 147.835938 C 145.296875 148.570312 145.578125 149.316406 145.910156 150.039062 L 147.023438 152.152344 C 147.214844 152.503906 147.394531 152.859375 147.589844 153.203125 C 147.792969 153.546875 148 153.886719 148.214844 154.226562 C 148.636719 154.898438 149.082031 155.5625 149.539062 156.210938 C 151.378906 158.816406 153.496094 161.21875 155.824219 163.398438 C 160.484375 167.769531 165.960938 171.222656 171.765625 173.917969 C 177.578125 176.613281 183.742188 178.519531 190.007812 179.925781 L 189.945312 179.917969 C 194.847656 180.582031 199.792969 180.945312 204.730469 180.835938 C 207.195312 180.796875 209.65625 180.597656 212.101562 180.324219 C 214.546875 180.027344 216.96875 179.582031 219.359375 179.019531 C 221.75 178.457031 224.089844 177.703125 226.375 176.824219 C 228.65625 175.941406 230.878906 174.902344 232.992188 173.675781 C 237.226562 171.234375 241.066406 168.121094 244.242188 164.425781 Z M 245.746094 165.730469 C 242.394531 169.582031 238.351562 172.808594 233.925781 175.308594 C 231.71875 176.566406 229.398438 177.628906 227.03125 178.527344 C 224.65625 179.421875 222.234375 180.179688 219.769531 180.746094 C 217.300781 181.308594 214.808594 181.746094 212.300781 182.03125 C 209.792969 182.296875 207.277344 182.480469 204.753906 182.5 C 199.71875 182.582031 194.691406 182.164062 189.722656 181.472656 L 189.691406 181.464844 L 189.664062 181.460938 C 183.3125 180.003906 177.054688 178.042969 171.132812 175.265625 C 165.222656 172.496094 159.625 168.9375 154.851562 164.425781 C 152.464844 162.175781 150.296875 159.6875 148.414062 156.996094 C 147.941406 156.324219 147.488281 155.640625 147.054688 154.945312 C 146.839844 154.59375 146.625 154.242188 146.417969 153.890625 C 146.214844 153.535156 146.03125 153.164062 145.835938 152.804688 L 144.675781 150.628906 C 144.332031 149.882812 144.011719 149.128906 143.675781 148.375 L 143.171875 147.25 C 143.011719 146.871094 142.890625 146.476562 142.746094 146.089844 L 141.917969 143.765625 C 141.679688 142.976562 141.484375 142.175781 141.265625 141.378906 L 140.945312 140.183594 C 140.839844 139.785156 140.792969 139.375 140.714844 138.96875 C 140.566406 138.160156 140.429688 137.34375 140.292969 136.53125 C 140.179688 135.714844 140.132812 134.890625 140.054688 134.070312 C 139.863281 132.429688 139.90625 130.78125 139.871094 129.136719 L 139.863281 128.519531 L 139.894531 127.902344 L 139.960938 126.671875 C 140.011719 125.851562 140.027344 125.027344 140.109375 124.214844 L 140.398438 121.765625 L 140.539062 120.542969 C 140.601562 120.140625 140.679688 119.738281 140.75 119.332031 L 141.179688 116.910156 L 141.289062 116.304688 L 141.710938 114.511719 L 142.277344 112.117188 L 142.964844 109.761719 C 144.8125 103.480469 147.335938 97.429688 150.292969 91.613281 C 153.164062 85.707031 157.347656 80.292969 162.613281 76.246094 C 165.230469 74.210938 168.066406 72.453125 171.0625 71.050781 C 174.058594 69.640625 177.183594 68.535156 180.378906 67.707031 C 186.777344 66.074219 193.398438 65.546875 199.953125 65.832031 C 203.234375 65.980469 206.496094 66.335938 209.734375 66.875 C 212.976562 67.433594 216.167969 68.1875 219.308594 69.140625 C 225.578125 71.0625 231.667969 73.714844 237.175781 77.355469 C 239.929688 79.171875 242.542969 81.214844 244.929688 83.511719 C 247.308594 85.816406 249.464844 88.363281 251.3125 91.125 C 255.019531 96.648438 257.328125 103.085938 258.160156 109.664062 C 258.980469 116.144531 259.269531 122.695312 258.898438 129.238281 C 258.734375 132.507812 258.351562 135.769531 257.777344 139.003906 C 257.199219 142.234375 256.433594 145.441406 255.367188 148.554688 C 253.261719 154.789062 250.101562 160.730469 245.746094 165.730469 Z M 245.746094 165.730469 " fill-opacity="1" fill-rule="nonzero"/></g><path fill="#1c1d23" d="M 247.21875 147.417969 C 245.066406 159.230469 238.726562 169.25 229.941406 176.3125 C 219.359375 181.246094 205.898438 182.972656 189.832031 180.691406 C 173.992188 177.160156 162.003906 170.796875 153.84375 162.449219 C 148.109375 152.742188 145.707031 141.128906 147.859375 129.316406 C 152.710938 102.667969 178.882812 85.125 206.320312 90.125 C 233.757812 95.125 252.070312 120.773438 247.21875 147.417969 Z M 247.21875 147.417969 " fill-opacity="1" fill-rule="nonzero"/><path fill="#ffffff" d="M 154.765625 138.359375 C 153.179688 138.476562 154.820312 150.945312 162.40625 160.609375 C 170.964844 171.515625 186.007812 174.550781 186.554688 172.574219 C 187.351562 169.699219 176.417969 169.308594 166.578125 159.71875 C 158.210938 151.566406 156.519531 138.226562 154.765625 138.359375 Z M 154.765625 138.359375 " fill-opacity="1" fill-rule="nonzero"/><path fill="#ffffff" d="M 240.875 130.605469 C 242.003906 130.382812 241.960938 125.730469 240.09375 120.933594 C 238.121094 115.851562 233.617188 112.210938 232.6875 112.800781 C 232.03125 113.214844 233.054688 114.636719 235.589844 119.75 C 239.152344 126.929688 239.84375 130.808594 240.875 130.605469 Z M 240.875 130.605469 " fill-opacity="1" fill-rule="nonzero"/><path fill="#ffffff" d="M 230.625 109.132812 C 229.867188 107.625 227.234375 107.394531 226.785156 108.085938 C 226.546875 108.460938 226.933594 109.097656 227.101562 109.371094 C 227.945312 110.742188 229.972656 111.449219 230.621094 110.832031 C 231.015625 110.460938 230.875 109.632812 230.625 109.132812 Z M 230.625 109.132812 " fill-opacity="1" fill-rule="nonzero"/></svg>