<svg xmlns="http://www.w3.org/2000/svg" xmlns:xlink="http://www.w3.org/1999/xlink" width="500" zoomAndPan="magnify" viewBox="0 0 375 374.999991" height="500" preserveAspectRatio="xMidYMid meet" version="1.0"><defs><filter x="0%" y="0%" width="100%" height="100%" id="8650aa0cbc"><feColorMatrix values="0 0 0 0 1 0 0 0 0 1 0 0 0 0 1 0 0 0 1 0" color-interpolation-filters="sRGB"/></filter><clipPath id="92cc6a4e34"><path d="M 25.222656 220 L 328 220 L 328 278 L 25.222656 278 Z M 25.222656 220 " clip-rule="nonzero"/></clipPath><clipPath id="9b94427c0d"><path d="M 85 250 L 131 250 L 131 282.386719 L 85 282.386719 Z M 85 250 " clip-rule="nonzero"/></clipPath><clipPath id="c230324c52"><path d="M 276 104 L 349.972656 104 L 349.972656 166 L 276 166 Z M 276 104 " clip-rule="nonzero"/></clipPath><clipPath id="295d344952"><path d="M 111 92.636719 L 243 92.636719 L 243 225 L 111 225 Z M 111 92.636719 " clip-rule="nonzero"/></clipPath><clipPath id="56b6895900"><path d="M 111 92.636719 L 243 92.636719 L 243 225 L 111 225 Z M 111 92.636719 " clip-rule="nonzero"/></clipPath><mask id="5af1cc9e59"><g filter="url(#8650aa0cbc)"><rect x="-37.5" width="450" fill="#000000" y="-37.499999" height="449.999989" fill-opacity="0.4"/></g></mask><clipPath id="1c16d4d8bf"><path d="M 1 0.121094 L 39 0.121094 L 39 34.921875 L 1 34.921875 Z M 1 0.121094 " clip-rule="nonzero"/></clipPath><clipPath id="6f2bd74ff0"><path d="M 0.441406 0.121094 L 39 0.121094 L 39 34.921875 L 0.441406 34.921875 Z M 0.441406 0.121094 " clip-rule="nonzero"/></clipPath><clipPath id="6a07070710"><rect x="0" width="40" y="0" height="35"/></clipPath><mask id="f3916380a2"><g filter="url(#8650aa0cbc)"><rect x="-37.5" width="450" fill="#000000" y="-37.499999" height="449.999989" fill-opacity="0.4"/></g></mask><clipPath id="5c05a807f0"><path d="M 0.121094 0.28125 L 21 0.28125 L 21 14.679688 L 0.121094 14.679688 Z M 0.121094 0.28125 " clip-rule="nonzero"/></clipPath><clipPath id="859e3333b7"><rect x="0" width="22" y="0" height="15"/></clipPath></defs><g clip-path="url(#92cc6a4e34)"><path fill="#102770" d="M 327.96875 248.976562 C 327.96875 249.449219 327.910156 249.921875 327.789062 250.394531 C 327.667969 250.867188 327.484375 251.339844 327.242188 251.808594 C 327 252.28125 326.695312 252.75 326.332031 253.21875 C 325.96875 253.6875 325.542969 254.152344 325.0625 254.617188 C 324.578125 255.082031 324.035156 255.542969 323.433594 256 C 322.832031 256.460938 322.171875 256.917969 321.453125 257.367188 C 320.734375 257.820312 319.957031 258.269531 319.121094 258.714844 C 318.285156 259.164062 317.394531 259.605469 316.449219 260.039062 C 315.5 260.476562 314.496094 260.910156 313.4375 261.339844 C 312.378906 261.765625 311.265625 262.1875 310.097656 262.605469 C 308.929688 263.023438 307.707031 263.433594 306.433594 263.839844 C 305.160156 264.246094 303.835938 264.644531 302.460938 265.039062 C 301.082031 265.433594 299.65625 265.820312 298.179688 266.199219 C 296.707031 266.582031 295.179688 266.953125 293.609375 267.320312 C 292.039062 267.683594 290.421875 268.042969 288.757812 268.394531 C 287.09375 268.746094 285.386719 269.085938 283.632812 269.421875 C 281.882812 269.757812 280.089844 270.082031 278.253906 270.398438 C 276.417969 270.71875 274.542969 271.027344 272.625 271.328125 C 270.710938 271.628906 268.757812 271.917969 266.769531 272.199219 C 264.78125 272.480469 262.753906 272.753906 260.695312 273.015625 C 258.636719 273.28125 256.542969 273.535156 254.417969 273.777344 C 252.292969 274.019531 250.136719 274.253906 247.953125 274.476562 C 245.769531 274.699219 243.554688 274.910156 241.316406 275.113281 C 239.078125 275.316406 236.8125 275.507812 234.523438 275.6875 C 232.234375 275.871094 229.925781 276.039062 227.59375 276.199219 C 225.261719 276.359375 222.910156 276.507812 220.539062 276.644531 C 218.167969 276.78125 215.78125 276.910156 213.378906 277.023438 C 210.972656 277.140625 208.558594 277.242188 206.128906 277.335938 C 203.699219 277.425781 201.257812 277.507812 198.808594 277.578125 C 196.355469 277.648438 193.898438 277.703125 191.433594 277.75 C 188.96875 277.796875 186.5 277.832031 184.023438 277.855469 C 181.550781 277.878906 179.074219 277.890625 176.597656 277.890625 C 174.117188 277.890625 171.644531 277.878906 169.167969 277.855469 C 166.695312 277.832031 164.222656 277.796875 161.757812 277.75 C 159.292969 277.703125 156.835938 277.648438 154.386719 277.578125 C 151.933594 277.507812 149.496094 277.425781 147.066406 277.335938 C 144.636719 277.242188 142.21875 277.140625 139.816406 277.023438 C 137.414062 276.910156 135.027344 276.78125 132.65625 276.644531 C 130.285156 276.507812 127.933594 276.359375 125.601562 276.199219 C 123.269531 276.039062 120.957031 275.871094 118.667969 275.691406 C 116.378906 275.507812 114.117188 275.316406 111.875 275.113281 C 109.636719 274.910156 107.425781 274.699219 105.238281 274.476562 C 103.054688 274.253906 100.898438 274.019531 98.773438 273.777344 C 96.648438 273.535156 94.558594 273.28125 92.496094 273.015625 C 90.4375 272.753906 88.414062 272.480469 86.421875 272.199219 C 84.433594 271.917969 82.480469 271.628906 80.566406 271.328125 C 78.652344 271.027344 76.777344 270.71875 74.941406 270.398438 C 73.105469 270.082031 71.3125 269.757812 69.558594 269.421875 C 67.808594 269.085938 66.097656 268.746094 64.4375 268.394531 C 62.773438 268.042969 61.15625 267.683594 59.582031 267.320312 C 58.011719 266.953125 56.488281 266.582031 55.011719 266.199219 C 53.535156 265.820312 52.109375 265.433594 50.734375 265.039062 C 49.355469 264.644531 48.03125 264.246094 46.757812 263.839844 C 45.484375 263.433594 44.265625 263.023438 43.097656 262.605469 C 41.929688 262.1875 40.816406 261.765625 39.757812 261.339844 C 38.695312 260.910156 37.691406 260.476562 36.746094 260.039062 C 35.796875 259.605469 34.90625 259.164062 34.070312 258.714844 C 33.238281 258.269531 32.460938 257.820312 31.742188 257.367188 C 31.023438 256.917969 30.359375 256.460938 29.757812 256 C 29.15625 255.542969 28.613281 255.082031 28.132812 254.617188 C 27.648438 254.152344 27.222656 253.6875 26.859375 253.21875 C 26.496094 252.75 26.195312 252.28125 25.953125 251.808594 C 25.707031 251.339844 25.527344 250.867188 25.40625 250.394531 C 25.285156 249.921875 25.222656 249.449219 25.222656 248.976562 C 25.222656 248.503906 25.285156 248.027344 25.40625 247.554688 C 25.527344 247.085938 25.707031 246.613281 25.953125 246.140625 C 26.195312 245.671875 26.496094 245.199219 26.859375 244.734375 C 27.222656 244.265625 27.648438 243.796875 28.132812 243.335938 C 28.613281 242.871094 29.15625 242.410156 29.757812 241.949219 C 30.359375 241.492188 31.023438 241.035156 31.742188 240.582031 C 32.460938 240.128906 33.238281 239.679688 34.070312 239.234375 C 34.90625 238.789062 35.796875 238.347656 36.746094 237.910156 C 37.691406 237.472656 38.695312 237.039062 39.757812 236.613281 C 40.816406 236.183594 41.929688 235.761719 43.097656 235.34375 C 44.265625 234.925781 45.484375 234.515625 46.757812 234.109375 C 48.03125 233.703125 49.355469 233.304688 50.734375 232.910156 C 52.109375 232.519531 53.535156 232.128906 55.011719 231.75 C 56.488281 231.371094 58.011719 230.996094 59.582031 230.632812 C 61.15625 230.265625 62.773438 229.90625 64.4375 229.558594 C 66.097656 229.207031 67.808594 228.863281 69.558594 228.53125 C 71.3125 228.195312 73.105469 227.867188 74.941406 227.550781 C 76.777344 227.234375 78.652344 226.925781 80.566406 226.625 C 82.480469 226.324219 84.433594 226.03125 86.421875 225.75 C 88.414062 225.46875 90.4375 225.195312 92.496094 224.933594 C 94.558594 224.671875 96.648438 224.417969 98.773438 224.175781 C 100.898438 223.929688 103.054688 223.699219 105.238281 223.476562 C 107.425781 223.25 109.636719 223.039062 111.875 222.835938 C 114.117188 222.632812 116.378906 222.441406 118.667969 222.261719 C 120.957031 222.082031 123.269531 221.910156 125.601562 221.75 C 127.933594 221.589844 130.285156 221.441406 132.65625 221.304688 C 135.027344 221.167969 137.414062 221.042969 139.816406 220.925781 C 142.21875 220.8125 144.636719 220.707031 147.066406 220.617188 C 149.496094 220.523438 151.933594 220.441406 154.386719 220.375 C 156.835938 220.304688 159.292969 220.246094 161.757812 220.199219 C 164.222656 220.152344 166.695312 220.117188 169.167969 220.09375 C 171.644531 220.070312 174.117188 220.058594 176.597656 220.058594 C 179.074219 220.058594 181.550781 220.070312 184.023438 220.09375 C 186.5 220.117188 188.96875 220.152344 191.433594 220.199219 C 193.898438 220.246094 196.355469 220.304688 198.808594 220.375 C 201.257812 220.441406 203.699219 220.523438 206.128906 220.617188 C 208.558594 220.707031 210.972656 220.8125 213.378906 220.925781 C 215.78125 221.042969 218.167969 221.167969 220.539062 221.304688 C 222.910156 221.441406 225.261719 221.589844 227.59375 221.75 C 229.925781 221.910156 232.234375 222.082031 234.523438 222.261719 C 236.8125 222.441406 239.078125 222.632812 241.316406 222.835938 C 243.554688 223.039062 245.769531 223.25 247.953125 223.476562 C 250.136719 223.699219 252.292969 223.929688 254.417969 224.175781 C 256.542969 224.417969 258.636719 224.671875 260.695312 224.933594 C 262.753906 225.195312 264.78125 225.46875 266.769531 225.75 C 268.757812 226.03125 270.710938 226.324219 272.625 226.625 C 274.542969 226.925781 276.417969 227.234375 278.253906 227.550781 C 280.089844 227.867188 281.882812 228.195312 283.632812 228.53125 C 285.386719 228.863281 287.09375 229.207031 288.757812 229.558594 C 290.421875 229.90625 292.039062 230.265625 293.609375 230.632812 C 295.179688 230.996094 296.707031 231.371094 298.179688 231.75 C 299.65625 232.128906 301.082031 232.519531 302.460938 232.910156 C 303.835938 233.304688 305.160156 233.703125 306.433594 234.109375 C 307.707031 234.515625 308.929688 234.925781 310.097656 235.34375 C 311.265625 235.761719 312.378906 236.183594 313.4375 236.613281 C 314.496094 237.039062 315.5 237.472656 316.449219 237.910156 C 317.394531 238.347656 318.285156 238.789062 319.121094 239.234375 C 319.957031 239.679688 320.734375 240.128906 321.453125 240.582031 C 322.171875 241.035156 322.832031 241.492188 323.433594 241.949219 C 324.035156 242.410156 324.578125 242.871094 325.0625 243.335938 C 325.542969 243.796875 325.96875 244.265625 326.332031 244.734375 C 326.695312 245.199219 327 245.671875 327.242188 246.140625 C 327.484375 246.613281 327.667969 247.085938 327.789062 247.558594 C 327.910156 248.027344 327.96875 248.503906 327.96875 248.976562 Z M 327.96875 248.976562 " fill-opacity="1" fill-rule="nonzero"/></g><path fill="#ffffff" d="M 222.082031 263.253906 L 130.878906 263.253906 C 122.039062 263.253906 114.871094 256.09375 114.871094 247.257812 L 114.871094 207.710938 C 114.871094 198.875 122.039062 191.710938 130.878906 191.710938 L 222.082031 191.710938 C 230.921875 191.710938 238.089844 198.875 238.089844 207.710938 L 238.089844 247.257812 C 238.085938 256.09375 230.921875 263.253906 222.082031 263.253906 Z M 222.082031 263.253906 " fill-opacity="1" fill-rule="nonzero"/><path fill="#102770" d="M 222.082031 263.527344 L 130.878906 263.527344 C 121.902344 263.527344 114.601562 256.226562 114.601562 247.257812 L 114.601562 207.710938 C 114.601562 198.738281 121.902344 191.441406 130.878906 191.441406 L 222.082031 191.441406 C 231.058594 191.441406 238.359375 198.738281 238.359375 207.710938 L 238.359375 247.257812 C 238.359375 256.226562 231.054688 263.527344 222.082031 263.527344 Z M 130.878906 191.984375 C 122.203125 191.984375 115.144531 199.039062 115.144531 207.710938 L 115.144531 247.257812 C 115.144531 255.929688 122.203125 262.984375 130.878906 262.984375 L 222.082031 262.984375 C 230.757812 262.984375 237.816406 255.929688 237.816406 247.257812 L 237.816406 207.710938 C 237.816406 199.039062 230.757812 191.984375 222.082031 191.984375 Z M 130.878906 191.984375 " fill-opacity="1" fill-rule="nonzero"/><path fill="#102770" d="M 215.042969 254.71875 L 141.765625 254.71875 C 135.035156 254.71875 129.578125 249.265625 129.578125 242.539062 L 129.578125 212.429688 C 129.578125 205.703125 135.035156 200.25 141.765625 200.25 L 215.042969 200.25 C 221.773438 200.25 227.226562 205.703125 227.226562 212.429688 L 227.226562 242.539062 C 227.226562 249.265625 221.773438 254.71875 215.042969 254.71875 Z M 215.042969 254.71875 " fill-opacity="0.298" fill-rule="nonzero"/><path fill="#102770" d="M 222.082031 264.957031 L 130.878906 264.957031 C 121.113281 264.957031 113.171875 257.019531 113.171875 247.257812 L 113.171875 207.710938 C 113.171875 197.949219 121.113281 190.011719 130.878906 190.011719 L 222.082031 190.011719 C 231.847656 190.011719 239.789062 197.949219 239.789062 207.710938 L 239.789062 247.257812 C 239.789062 257.019531 231.847656 264.957031 222.082031 264.957031 Z M 130.878906 193.414062 C 122.992188 193.414062 116.578125 199.828125 116.578125 207.710938 L 116.578125 247.257812 C 116.578125 255.140625 122.992188 261.554688 130.878906 261.554688 L 222.082031 261.554688 C 229.96875 261.554688 236.386719 255.140625 236.386719 247.257812 L 236.386719 207.710938 C 236.386719 199.828125 229.96875 193.414062 222.082031 193.414062 Z M 130.878906 193.414062 " fill-opacity="1" fill-rule="nonzero"/><path fill="#ffffff" d="M 236.445312 252.59375 C 236.332031 252.597656 236.210938 252.601562 236.09375 252.605469 L 238.25 260.3125 C 228.996094 263.546875 219.5625 266.085938 210.023438 267.9375 C 197.289062 270.414062 184.359375 271.652344 171.425781 271.652344 C 162.113281 271.652344 152.800781 271.007812 143.550781 269.722656 C 133.710938 268.355469 123.941406 266.261719 114.324219 263.4375 L 103.6875 260.3125 C 103.6875 260.3125 104.46875 256.953125 105.953125 252.226562 C 108.550781 243.933594 113.304688 231.421875 119.777344 225.417969 C 121.425781 223.882812 123.113281 222.558594 124.808594 221.421875 C 143.363281 208.980469 163.5625 218.796875 163.5625 218.796875 L 190.015625 218.796875 C 190.015625 218.796875 195.441406 209.550781 238.019531 211.386719 C 238.503906 211.402344 238.996094 211.425781 239.488281 211.449219 C 265.347656 212.691406 279.4375 205.40625 279.4375 205.40625 L 296.246094 215.667969 L 298.855469 217.257812 C 298.855469 217.257812 292.496094 250.460938 237.320312 252.5625 C 237.03125 252.574219 236.738281 252.582031 236.445312 252.59375 Z M 236.445312 252.59375 " fill-opacity="1" fill-rule="nonzero"/><path fill="#102770" d="M 171.425781 271.921875 C 162.121094 271.921875 152.730469 271.269531 143.511719 269.988281 C 133.652344 268.621094 123.808594 266.503906 114.246094 263.695312 L 103.367188 260.5 L 103.421875 260.25 C 103.429688 260.214844 104.222656 256.828125 105.695312 252.144531 C 108.519531 243.121094 113.226562 231.125 119.589844 225.21875 C 121.183594 223.738281 122.886719 222.382812 124.65625 221.195312 C 128.917969 218.335938 133.625 216.417969 138.640625 215.496094 C 142.652344 214.757812 146.867188 214.648438 151.171875 215.175781 C 158.082031 216.015625 163.035156 218.25 163.617188 218.523438 L 189.871094 218.523438 C 190.269531 217.988281 192.09375 215.976562 197.964844 214.144531 C 201.863281 212.929688 206.761719 212.039062 212.527344 211.5 C 219.722656 210.824219 228.304688 210.695312 238.027344 211.113281 C 238.496094 211.132812 238.980469 211.152344 239.460938 211.175781 L 239.496094 211.179688 C 252.808594 211.816406 262.925781 210.148438 269.066406 208.636719 C 275.722656 206.996094 279.273438 205.183594 279.308594 205.167969 L 279.445312 205.097656 L 279.574219 205.175781 L 296.382812 215.433594 L 299.148438 217.121094 L 299.113281 217.304688 C 299.097656 217.394531 298.695312 219.449219 297.238281 222.589844 C 295.898438 225.480469 293.375 229.859375 288.964844 234.308594 C 284.011719 239.308594 277.734375 243.378906 270.308594 246.40625 C 261.039062 250.1875 249.945312 252.347656 237.328125 252.832031 C 237.039062 252.84375 236.746094 252.851562 236.453125 252.863281 L 236.441406 252.863281 L 238.574219 260.480469 L 238.335938 260.566406 C 229.152344 263.773438 219.644531 266.34375 210.074219 268.203125 C 197.390625 270.671875 184.386719 271.921875 171.425781 271.921875 Z M 104.011719 260.125 L 114.402344 263.175781 C 123.933594 265.976562 133.757812 268.089844 143.585938 269.453125 C 152.78125 270.730469 162.148438 271.378906 171.425781 271.378906 C 184.351562 271.378906 197.320312 270.132812 209.972656 267.671875 C 219.4375 265.835938 228.835938 263.300781 237.917969 260.140625 L 235.738281 252.347656 L 236.4375 252.320312 C 236.730469 252.3125 237.019531 252.304688 237.304688 252.289062 C 265.699219 251.210938 280.847656 241.722656 288.554688 233.957031 C 296.21875 226.238281 298.25 218.644531 298.546875 217.386719 L 296.105469 215.894531 L 279.421875 205.714844 C 278.703125 206.0625 275.199219 207.679688 269.222656 209.15625 C 263.042969 210.679688 252.863281 212.359375 239.472656 211.71875 L 239.4375 211.714844 C 238.957031 211.695312 238.476562 211.671875 238.007812 211.652344 C 216.179688 210.714844 204.355469 212.746094 198.277344 214.613281 C 191.695312 216.640625 190.261719 218.910156 190.246094 218.933594 L 190.167969 219.066406 L 163.496094 219.066406 L 163.441406 219.039062 C 163.390625 219.011719 158.332031 216.589844 151.089844 215.707031 C 144.417969 214.898438 134.46875 215.269531 124.960938 221.644531 C 123.214844 222.816406 121.53125 224.152344 119.960938 225.613281 C 113.679688 231.4375 109.019531 243.34375 106.210938 252.304688 C 104.976562 256.246094 104.21875 259.261719 104.011719 260.125 Z M 104.011719 260.125 " fill-opacity="1" fill-rule="nonzero"/><path fill="#102770" d="M 238.25 260.3125 C 228.996094 263.546875 219.5625 266.085938 210.023438 267.9375 C 197.289062 270.414062 184.359375 271.652344 171.425781 271.652344 C 162.113281 271.652344 152.800781 271.007812 143.550781 269.722656 C 133.710938 268.355469 123.941406 266.261719 114.324219 263.4375 L 103.6875 260.3125 C 103.6875 260.3125 104.46875 256.953125 105.953125 252.226562 C 106.683594 251.996094 107.433594 251.859375 108.195312 251.824219 C 127.894531 250.921875 145.535156 265.636719 178.210938 265.25 C 225.429688 264.6875 234.777344 245.878906 234.777344 245.878906 L 237.320312 252.5625 C 237.03125 252.574219 236.738281 252.582031 236.445312 252.59375 C 236.332031 252.597656 236.210938 252.601562 236.09375 252.605469 Z M 238.25 260.3125 " fill-opacity="0.298" fill-rule="nonzero"/><path fill="#102770" d="M 298.851562 217.257812 C 298.851562 217.257812 292.425781 250.808594 236.445312 252.59375 L 232.304688 235.945312 C 232.304688 235.945312 282.019531 236.226562 296.246094 215.667969 Z M 298.851562 217.257812 " fill-opacity="0.298" fill-rule="nonzero"/><path fill="#102770" d="M 171.425781 275.652344 C 162.035156 275.652344 152.558594 274.824219 143.257812 273.195312 C 142.441406 273.050781 141.847656 272.34375 141.847656 271.519531 L 141.847656 269.277344 C 141.847656 264.234375 143.421875 259.472656 146.28125 255.875 C 149.230469 252.164062 153.1875 250.117188 157.425781 250.117188 L 196.15625 250.117188 C 200.390625 250.117188 204.347656 252.160156 207.292969 255.871094 C 210.152344 259.46875 211.726562 264.226562 211.726562 269.273438 C 211.726562 270.058594 211.191406 270.738281 210.429688 270.925781 C 197.625 274.0625 184.503906 275.652344 171.425781 275.652344 Z M 145.253906 270.082031 C 153.910156 271.519531 162.707031 272.246094 171.425781 272.246094 C 183.773438 272.246094 196.164062 270.800781 208.277344 267.941406 C 207.75 259.878906 202.515625 253.523438 196.15625 253.523438 L 157.421875 253.523438 C 150.710938 253.523438 145.253906 260.589844 145.253906 269.28125 Z M 145.253906 270.082031 " fill-opacity="1" fill-rule="nonzero"/><path fill="#102770" d="M 103.6875 262.015625 C 103.558594 262.015625 103.429688 262 103.300781 261.972656 C 102.382812 261.757812 101.8125 260.84375 102.027344 259.929688 C 102.089844 259.664062 103.566406 253.375 106.320312 245.820312 C 110.066406 235.550781 114.203125 228.265625 118.617188 224.167969 C 123.308594 219.8125 128.640625 216.734375 134.457031 215.023438 C 139.101562 213.660156 144.058594 213.160156 149.191406 213.542969 C 156.800781 214.113281 162.457031 216.4375 163.933594 217.097656 L 189.222656 217.097656 C 191.691406 214.570312 201.84375 207.941406 239.5625 209.75 C 252.640625 210.378906 262.574219 208.753906 268.601562 207.277344 C 275.132812 205.683594 278.617188 203.914062 278.652344 203.898438 C 279.179688 203.625 279.8125 203.648438 280.320312 203.957031 L 299.738281 215.804688 C 300.339844 216.171875 300.652344 216.867188 300.527344 217.5625 C 300.460938 217.925781 298.804688 226.597656 289.96875 235.496094 C 284.832031 240.667969 278.308594 244.855469 270.578125 247.941406 C 261.003906 251.765625 249.535156 253.894531 236.492188 254.28125 C 235.550781 254.300781 234.765625 253.566406 234.738281 252.628906 C 234.710938 251.6875 235.453125 250.902344 236.390625 250.875 C 264.914062 250.039062 279.957031 240.746094 287.554688 233.097656 C 293.871094 226.734375 296.183594 220.519531 296.898438 218.058594 L 279.328125 207.339844 C 277.855469 207.996094 274.570312 209.316406 269.566406 210.546875 C 263.292969 212.09375 252.96875 213.800781 239.402344 213.152344 C 216.960938 212.074219 204.925781 214.085938 198.78125 215.964844 C 193.003906 217.726562 191.496094 219.644531 191.488281 219.660156 C 191.179688 220.179688 190.621094 220.503906 190.019531 220.503906 L 163.5625 220.503906 C 163.304688 220.503906 163.050781 220.445312 162.816406 220.332031 C 162.761719 220.304688 156.898438 217.511719 148.8125 216.929688 C 138.101562 216.160156 128.722656 219.4375 120.9375 226.664062 C 111.28125 235.628906 105.40625 260.453125 105.347656 260.703125 C 105.160156 261.484375 104.460938 262.015625 103.6875 262.015625 Z M 103.6875 262.015625 " fill-opacity="1" fill-rule="nonzero"/><path fill="#102770" d="M 238.019531 211.382812 C 234.589844 217.914062 227.339844 223.601562 217.296875 227.316406 C 207.699219 230.871094 194.242188 234.039062 176.789062 234.042969 L 176.761719 234.042969 C 159.308594 234.039062 145.863281 230.875 136.269531 227.316406 C 131.890625 225.695312 128.039062 223.699219 124.808594 221.417969 C 143.363281 208.980469 163.5625 218.796875 163.5625 218.796875 L 190.015625 218.796875 C 190.015625 218.796875 195.4375 209.550781 238.019531 211.382812 Z M 238.019531 211.382812 " fill-opacity="0.298" fill-rule="nonzero"/><path fill="#ffffff" d="M 88.28125 258.496094 C 88.28125 258.496094 84.488281 266.589844 90.5 273.5625 C 96.511719 280.53125 113.429688 282.160156 120.429688 279.410156 C 127.941406 276.457031 128.710938 265.511719 129.246094 261.914062 C 130.769531 251.714844 94.082031 247.066406 88.28125 258.496094 Z M 88.28125 258.496094 " fill-opacity="1" fill-rule="nonzero"/><path fill="#102770" d="M 111.878906 280.945312 C 104.082031 280.945312 94.542969 278.664062 90.292969 273.738281 C 87.128906 270.066406 86.683594 266.089844 86.863281 263.398438 C 87.0625 260.484375 87.996094 258.46875 88.035156 258.382812 L 88.039062 258.375 C 89.824219 254.851562 94.660156 252.511719 101.644531 251.78125 C 107.789062 251.140625 114.808594 251.828125 120.421875 253.617188 C 123.328125 254.542969 125.6875 255.734375 127.246094 257.058594 C 129.011719 258.5625 129.777344 260.207031 129.515625 261.957031 C 129.46875 262.265625 129.421875 262.621094 129.367188 263.035156 C 129.074219 265.277344 128.625 268.667969 127.378906 271.917969 C 125.859375 275.867188 123.554688 278.472656 120.527344 279.664062 C 118.375 280.507812 115.292969 280.945312 111.878906 280.945312 Z M 88.523438 258.613281 C 88.480469 258.710938 87.589844 260.691406 87.40625 263.453125 C 87.230469 266.039062 87.664062 269.859375 90.703125 273.382812 C 93.359375 276.460938 98.617188 278.824219 105.136719 279.863281 C 110.921875 280.789062 116.886719 280.511719 120.328125 279.15625 C 127.046875 276.519531 128.25 267.363281 128.828125 262.964844 C 128.882812 262.546875 128.929688 262.1875 128.980469 261.875 C 129.429688 258.863281 126.25 256.042969 120.257812 254.132812 C 114.792969 252.390625 107.683594 251.695312 101.703125 252.320312 C 94.90625 253.027344 90.230469 255.261719 88.523438 258.613281 Z M 88.523438 258.613281 " fill-opacity="1" fill-rule="nonzero"/><path fill="#102770" d="M 129.246094 261.914062 C 128.710938 265.507812 127.941406 276.457031 120.429688 279.410156 C 113.429688 282.164062 96.511719 280.53125 90.5 273.5625 C 86.191406 268.5625 86.917969 262.996094 87.679688 260.238281 C 88.183594 261.476562 89.058594 262.765625 90.5 264 C 96.511719 269.167969 113.425781 270.378906 120.429688 268.335938 C 125.707031 266.796875 127.660156 262.328125 128.53125 258.886719 C 129.144531 259.824219 129.40625 260.839844 129.246094 261.914062 Z M 129.246094 261.914062 " fill-opacity="0.298" fill-rule="nonzero"/><g clip-path="url(#9b94427c0d)"><path fill="#102770" d="M 111.890625 282.382812 C 109.628906 282.382812 107.226562 282.195312 104.824219 281.8125 C 100.730469 281.15625 93.253906 279.359375 89.210938 274.671875 C 86.453125 271.476562 85.148438 267.542969 85.4375 263.296875 C 85.65625 260.121094 86.695312 257.867188 86.742188 257.773438 C 86.75 257.757812 86.753906 257.742188 86.761719 257.726562 C 91.183594 249.007812 109.601562 248.660156 120.855469 252.25 C 123.988281 253.246094 126.449219 254.496094 128.175781 255.964844 C 130.875 258.261719 131.164062 260.605469 130.933594 262.164062 C 130.886719 262.460938 130.839844 262.8125 130.789062 263.222656 C 130.503906 265.390625 130.023438 269.019531 128.714844 272.429688 C 127.046875 276.769531 124.46875 279.648438 121.050781 280.992188 C 118.71875 281.910156 115.476562 282.382812 111.890625 282.382812 Z M 89.816406 259.234375 C 89.726562 259.445312 88.972656 261.226562 88.828125 263.652344 C 88.628906 266.980469 89.625 269.941406 91.789062 272.449219 C 94.226562 275.273438 99.171875 277.464844 105.363281 278.453125 C 110.914062 279.335938 116.582031 279.09375 119.804688 277.828125 C 125.738281 275.496094 126.867188 266.90625 127.410156 262.777344 C 127.464844 262.355469 127.515625 261.988281 127.5625 261.664062 C 127.890625 259.484375 124.921875 257.121094 119.820312 255.496094 C 114.535156 253.8125 107.648438 253.140625 101.851562 253.746094 C 95.667969 254.386719 91.285156 256.386719 89.816406 259.234375 Z M 89.816406 259.234375 " fill-opacity="1" fill-rule="nonzero"/></g><path fill="#102770" d="M 240.257812 269.621094 C 239.492188 269.621094 238.796875 269.101562 238.605469 268.328125 L 229.1875 230.472656 C 228.960938 229.558594 229.515625 228.636719 230.429688 228.410156 C 231.34375 228.183594 232.265625 228.738281 232.492188 229.652344 L 241.910156 267.507812 C 242.136719 268.417969 241.582031 269.34375 240.667969 269.570312 C 240.53125 269.601562 240.394531 269.621094 240.257812 269.621094 Z M 240.257812 269.621094 " fill-opacity="1" fill-rule="nonzero"/><path fill="#ffffff" d="M 280.042969 201.191406 L 288.59375 200.28125 L 279.480469 114.738281 C 279.230469 112.378906 277.109375 110.667969 274.75 110.917969 C 272.390625 111.171875 270.679688 113.289062 270.929688 115.648438 Z M 280.042969 201.191406 " fill-opacity="1" fill-rule="nonzero"/><path fill="#102770" d="M 288.59375 200.277344 L 280.042969 201.1875 L 270.929688 115.648438 C 270.914062 115.492188 270.910156 115.339844 270.910156 115.183594 C 270.910156 113.152344 272.34375 111.386719 274.335938 110.980469 L 281.371094 176.984375 C 281.648438 179.570312 283.96875 181.445312 286.554688 181.167969 Z M 288.59375 200.277344 " fill-opacity="0.298" fill-rule="nonzero"/><path fill="#ffffff" d="M 346.386719 157.59375 L 340.554688 160 C 340.554688 160 319.925781 161.28125 317.515625 159.761719 C 317.332031 159.644531 317.144531 159.535156 316.960938 159.421875 C 316.953125 159.417969 316.949219 159.40625 316.945312 159.40625 C 314.910156 158.1875 313.566406 158.554688 311.546875 157.984375 C 311.542969 157.984375 309.496094 158.550781 309.457031 158.554688 C 301.6875 156.390625 295.710938 157.695312 290.53125 160.144531 C 290.523438 160.144531 290.441406 159.21875 290.441406 159.21875 C 286.019531 161.308594 283.226562 163.597656 283.226562 163.597656 L 278.402344 118.324219 C 278.402344 118.324219 278.734375 117.773438 279.394531 116.902344 C 279.929688 116.207031 280.683594 115.296875 281.652344 114.308594 C 281.65625 114.300781 281.667969 114.296875 281.667969 114.292969 C 281.714844 114.246094 281.761719 114.199219 281.816406 114.140625 C 281.824219 114.125 281.839844 114.113281 281.855469 114.101562 C 285.667969 110.273438 292.625 105.390625 302.691406 106.417969 C 303.199219 106.46875 303.710938 106.535156 304.230469 106.621094 C 306.996094 107.046875 309.980469 107.933594 313.183594 109.386719 C 314.019531 109.761719 314.625 109.820312 315.175781 109.855469 C 315.832031 109.894531 316.425781 109.902344 317.25 110.351562 C 323.835938 113.980469 333.878906 111.75 340.890625 108.890625 L 344.839844 143.90625 Z M 346.386719 157.59375 " fill-opacity="1" fill-rule="nonzero"/><path fill="#102770" d="M 331.625 127.859375 C 331.992188 126.722656 332.378906 125.570312 332.390625 124.339844 C 332.3125 124.191406 332.246094 124.039062 332.167969 123.890625 C 331.855469 123.703125 331.558594 123.476562 331.226562 123.320312 C 328.878906 122.1875 326.417969 121.433594 323.828125 121.144531 C 320.445312 120.765625 317.191406 121.183594 314.144531 122.769531 C 313.042969 123.34375 312.003906 124.03125 310.953125 124.6875 C 310.671875 124.867188 310.46875 124.925781 310.164062 124.707031 C 309.449219 124.191406 308.636719 123.863281 307.785156 123.648438 C 305.503906 123.085938 303.296875 123.417969 301.140625 124.238281 C 298.800781 125.132812 296.777344 126.546875 294.84375 128.109375 C 294.019531 128.769531 294.101562 129.707031 295.023438 130.234375 C 295.605469 130.5625 296.191406 130.886719 296.773438 131.214844 C 298.171875 131.996094 299.566406 132.773438 300.960938 133.554688 C 300.949219 133.601562 300.949219 133.625 300.9375 133.648438 C 300.917969 133.675781 300.898438 133.703125 300.875 133.730469 C 300.089844 134.40625 300.09375 135.175781 300.613281 136 C 300.667969 136.089844 300.707031 136.195312 300.753906 136.289062 C 301.007812 136.808594 301.265625 137.335938 301.539062 137.878906 C 300.964844 138.164062 300.410156 138.394531 299.902344 138.699219 C 299.644531 138.855469 299.394531 139.105469 299.253906 139.371094 C 299.023438 139.804688 299.167969 140.324219 299.527344 140.648438 C 299.910156 140.996094 300.359375 141.074219 300.824219 140.863281 C 301.410156 140.601562 301.980469 140.304688 302.582031 140.007812 C 302.949219 140.757812 303.292969 141.464844 303.640625 142.167969 C 304.039062 142.964844 304.386719 143.15625 305.265625 143.09375 C 305.425781 143.078125 305.585938 143.074219 305.773438 143.066406 C 305.75 143.246094 305.734375 143.394531 305.714844 143.53125 C 305.390625 145.707031 305.058594 147.882812 304.746094 150.054688 C 304.597656 151.085938 305.304688 151.726562 306.3125 151.472656 C 307.222656 151.246094 308.136719 150.996094 309.039062 150.71875 C 311.121094 150.070312 313.082031 149.164062 314.777344 147.773438 C 316.902344 146.019531 318.3125 143.871094 318.421875 141.019531 C 318.425781 140.910156 318.554688 140.742188 318.660156 140.703125 C 319.605469 140.332031 320.566406 140 321.515625 139.621094 C 323.65625 138.765625 325.5 137.46875 327.074219 135.789062 C 329.210938 133.507812 330.671875 130.828125 331.625 127.859375 Z M 302.601562 131.761719 C 300.988281 130.855469 299.316406 129.917969 297.597656 128.953125 C 299.898438 127.3125 302.257812 125.953125 305.113281 125.75 C 306.347656 125.660156 307.695312 125.957031 308.425781 126.441406 C 306.5 128.207031 304.566406 129.96875 302.601562 131.761719 Z M 315.34375 143.523438 C 314.625 144.835938 313.558594 145.808594 312.328125 146.617188 C 310.792969 147.609375 309.117188 148.242188 307.332031 148.769531 C 307.632812 146.769531 307.917969 144.8125 308.203125 142.894531 C 310.832031 142.433594 313.402344 141.984375 315.984375 141.53125 C 315.945312 142.207031 315.691406 142.886719 315.34375 143.523438 Z M 327 132.058594 C 325.847656 133.753906 324.480469 135.234375 322.730469 136.335938 C 321.382812 137.183594 319.925781 137.785156 318.421875 138.277344 C 314.335938 139.617188 310.117188 140.261719 305.851562 140.664062 C 305.644531 140.679688 305.527344 140.648438 305.433594 140.441406 C 305.230469 139.988281 304.996094 139.539062 304.777344 139.085938 C 304.761719 139.058594 304.761719 139.023438 304.746094 138.945312 C 304.867188 138.882812 304.992188 138.824219 305.121094 138.761719 C 307.769531 137.457031 310.425781 136.164062 313.074219 134.855469 C 313.839844 134.488281 314.039062 133.625 313.523438 133.003906 C 313.164062 132.566406 312.601562 132.457031 312.03125 132.734375 C 310.4375 133.511719 308.851562 134.289062 307.261719 135.070312 C 306.074219 135.652344 304.902344 136.230469 303.667969 136.835938 C 303.398438 136.285156 303.132812 135.777344 302.90625 135.253906 C 302.867188 135.160156 302.964844 134.964844 303.058594 134.878906 C 304.648438 133.296875 306.226562 131.703125 307.859375 130.164062 C 309.472656 128.636719 311.234375 127.277344 313.113281 126.082031 C 314.875 124.949219 316.726562 124.011719 318.8125 123.644531 C 320.148438 123.410156 321.492188 123.339844 322.84375 123.460938 C 322.96875 123.46875 323.117188 123.621094 323.179688 123.75 C 324.179688 125.757812 325.160156 127.761719 326.144531 129.769531 C 326.441406 130.367188 326.726562 130.976562 327.039062 131.570312 C 327.128906 131.75 327.117188 131.886719 327 132.058594 Z M 328.285156 129.789062 C 327.304688 127.78125 326.34375 125.832031 325.386719 123.871094 C 325.394531 123.832031 325.414062 123.789062 325.429688 123.75 C 326.90625 124.234375 328.386719 124.722656 329.878906 125.210938 C 329.519531 126.855469 328.976562 128.316406 328.285156 129.789062 Z M 328.285156 129.789062 " fill-opacity="1" fill-rule="nonzero"/><path fill="#ffffff" d="M 327.039062 131.570312 C 326.730469 130.976562 326.441406 130.367188 326.144531 129.769531 C 325.160156 127.761719 324.179688 125.753906 323.183594 123.75 C 323.121094 123.621094 322.96875 123.46875 322.84375 123.460938 C 321.496094 123.339844 320.148438 123.410156 318.8125 123.644531 C 316.726562 124.007812 314.875 124.949219 313.113281 126.082031 C 311.234375 127.277344 309.476562 128.632812 307.859375 130.164062 C 306.226562 131.703125 304.648438 133.296875 303.058594 134.878906 C 302.964844 134.964844 302.867188 135.160156 302.90625 135.253906 C 303.132812 135.777344 303.398438 136.285156 303.671875 136.835938 C 304.902344 136.230469 306.078125 135.652344 307.261719 135.070312 C 308.851562 134.289062 310.441406 133.511719 312.03125 132.734375 C 312.601562 132.460938 313.167969 132.566406 313.527344 133.003906 C 314.039062 133.625 313.839844 134.484375 313.074219 134.855469 C 310.425781 136.164062 307.769531 137.457031 305.121094 138.761719 C 304.992188 138.824219 304.867188 138.882812 304.746094 138.945312 C 304.761719 139.023438 304.761719 139.058594 304.777344 139.085938 C 304.996094 139.539062 305.234375 139.988281 305.433594 140.441406 C 305.527344 140.648438 305.644531 140.679688 305.851562 140.664062 C 310.117188 140.257812 314.335938 139.617188 318.421875 138.277344 C 319.929688 137.785156 321.382812 137.183594 322.734375 136.335938 C 324.480469 135.234375 325.847656 133.753906 327.003906 132.058594 C 327.117188 131.886719 327.128906 131.75 327.039062 131.570312 Z M 322.476562 133.421875 C 320.457031 134.394531 318.042969 133.574219 317.066406 131.582031 C 316.085938 129.589844 316.914062 127.175781 318.921875 126.183594 C 320.890625 125.210938 323.308594 126.046875 324.292969 128.039062 C 325.265625 130.019531 324.445312 132.472656 322.476562 133.421875 Z M 322.476562 133.421875 " fill-opacity="1" fill-rule="nonzero"/><path fill="#ec1c24" d="M 328.285156 129.785156 C 327.300781 127.785156 326.34375 125.832031 325.382812 123.871094 C 325.394531 123.832031 325.414062 123.792969 325.425781 123.75 C 326.902344 124.234375 328.382812 124.722656 329.878906 125.210938 C 329.523438 126.851562 328.976562 128.316406 328.285156 129.785156 Z M 328.285156 129.785156 " fill-opacity="1" fill-rule="nonzero"/><path fill="#ec1c24" d="M 308.429688 126.441406 C 306.5 128.203125 304.566406 129.96875 302.601562 131.765625 C 300.984375 130.855469 299.3125 129.914062 297.59375 128.953125 C 299.898438 127.3125 302.257812 125.949219 305.113281 125.75 C 306.347656 125.660156 307.691406 125.957031 308.429688 126.441406 Z M 308.429688 126.441406 " fill-opacity="1" fill-rule="nonzero"/><path fill="#ec1c24" d="M 312.324219 146.617188 C 310.792969 147.609375 309.117188 148.246094 307.332031 148.769531 C 307.628906 146.769531 307.917969 144.8125 308.199219 142.894531 C 310.832031 142.433594 313.398438 141.984375 315.988281 141.53125 C 315.945312 142.210938 315.691406 142.886719 315.34375 143.527344 C 314.625 144.839844 313.5625 145.808594 312.324219 146.617188 Z M 312.324219 146.617188 " fill-opacity="1" fill-rule="nonzero"/><path fill="#102770" d="M 324.292969 128.039062 C 323.308594 126.046875 320.894531 125.210938 318.925781 126.183594 C 316.917969 127.175781 316.085938 129.589844 317.070312 131.582031 C 318.042969 133.574219 320.460938 134.394531 322.480469 133.421875 C 324.445312 132.472656 325.265625 130.019531 324.292969 128.039062 Z M 321.585938 131.726562 C 320.5625 132.222656 319.292969 131.785156 318.777344 130.757812 C 318.242188 129.703125 318.707031 128.394531 319.796875 127.882812 C 320.816406 127.394531 322.109375 127.851562 322.601562 128.878906 C 323.113281 129.945312 322.660156 131.207031 321.585938 131.726562 Z M 321.585938 131.726562 " fill-opacity="1" fill-rule="nonzero"/><path fill="#22a7f0" d="M 321.585938 131.726562 C 320.5625 132.222656 319.292969 131.785156 318.777344 130.757812 C 318.246094 129.703125 318.707031 128.394531 319.796875 127.882812 C 320.820312 127.394531 322.109375 127.851562 322.601562 128.875 C 323.113281 129.945312 322.664062 131.210938 321.585938 131.726562 Z M 321.585938 131.726562 " fill-opacity="1" fill-rule="nonzero"/><path fill="#102770" d="M 283.695312 203.234375 C 282.578125 203.234375 281.503906 202.855469 280.625 202.144531 C 279.605469 201.324219 278.964844 200.152344 278.828125 198.847656 L 269.988281 115.878906 C 269.851562 114.578125 270.226562 113.300781 271.050781 112.28125 C 271.875 111.261719 273.042969 110.625 274.347656 110.488281 C 275.652344 110.347656 276.929688 110.726562 277.949219 111.546875 C 278.96875 112.371094 279.605469 113.539062 279.746094 114.84375 L 288.582031 197.8125 C 288.722656 199.113281 288.34375 200.394531 287.523438 201.410156 C 286.699219 202.429688 285.527344 203.066406 284.222656 203.207031 C 284.046875 203.226562 283.871094 203.234375 283.695312 203.234375 Z M 274.871094 113.863281 C 274.816406 113.863281 274.761719 113.867188 274.707031 113.871094 C 274.308594 113.914062 273.953125 114.109375 273.699219 114.421875 C 273.449219 114.730469 273.332031 115.125 273.375 115.519531 L 282.214844 198.488281 C 282.253906 198.886719 282.449219 199.246094 282.761719 199.496094 C 283.074219 199.746094 283.464844 199.863281 283.863281 199.820312 C 284.261719 199.777344 284.621094 199.585938 284.871094 199.273438 C 285.125 198.960938 285.238281 198.570312 285.195312 198.171875 L 276.359375 115.203125 C 276.316406 114.804688 276.121094 114.449219 275.808594 114.195312 C 275.539062 113.980469 275.210938 113.863281 274.871094 113.863281 Z M 274.871094 113.863281 " fill-opacity="1" fill-rule="nonzero"/><g clip-path="url(#c230324c52)"><path fill="#102770" d="M 283.230469 165.304688 C 282.628906 165.304688 282.046875 164.988281 281.738281 164.425781 C 281.28125 163.605469 281.578125 162.570312 282.398438 162.113281 C 282.5625 162.023438 286.425781 159.90625 292.734375 158.347656 C 298.539062 156.914062 307.617188 155.710938 317.902344 158.101562 C 327.582031 160.351562 335.050781 159.550781 339.609375 158.480469 C 342.867188 157.714844 345.148438 156.707031 346.332031 156.105469 L 339.519531 111.214844 C 333.300781 113.289062 321.890625 115.21875 312.476562 110.9375 C 303.449219 106.832031 295.21875 106.980469 288.023438 111.375 C 282.632812 114.664062 279.890625 119.15625 279.863281 119.203125 C 279.375 120.007812 278.332031 120.269531 277.523438 119.785156 C 276.71875 119.300781 276.457031 118.253906 276.941406 117.449219 C 277.070312 117.234375 280.152344 112.191406 286.246094 108.46875 C 289.851562 106.269531 293.761719 104.988281 297.875 104.660156 C 302.96875 104.253906 308.355469 105.324219 313.886719 107.839844 C 322.691406 111.84375 334.46875 109.722656 340.234375 107.320312 C 340.71875 107.121094 341.269531 107.152344 341.726562 107.410156 C 342.183594 107.664062 342.496094 108.121094 342.574219 108.636719 L 349.875 156.761719 C 349.976562 157.417969 349.683594 158.074219 349.125 158.441406 C 349 158.523438 346.03125 160.441406 340.582031 161.75 C 335.636719 162.933594 327.550781 163.839844 317.128906 161.417969 C 307.550781 159.191406 299.085938 160.300781 293.667969 161.625 C 287.761719 163.066406 284.085938 165.074219 284.050781 165.09375 C 283.789062 165.234375 283.507812 165.304688 283.230469 165.304688 Z M 283.230469 165.304688 " fill-opacity="1" fill-rule="nonzero"/></g><path fill="#ffffff" d="M 292.1875 226.9375 C 292.1875 226.9375 284.089844 230.730469 277.117188 224.71875 C 270.140625 218.710938 268.511719 201.800781 271.261719 194.804688 C 274.214844 187.296875 285.144531 185.691406 288.765625 185.992188 C 303.394531 187.199219 303.625 221.140625 292.1875 226.9375 Z M 292.1875 226.9375 " fill-opacity="1" fill-rule="nonzero"/><path fill="#102770" d="M 286.25 228.386719 C 283.632812 228.386719 280.167969 227.707031 276.9375 224.925781 C 269.851562 218.820312 268.234375 201.773438 271.011719 194.707031 C 272.652344 190.539062 276.625 188.332031 279.671875 187.214844 C 283.109375 185.957031 286.808594 185.558594 288.789062 185.722656 C 294.226562 186.171875 298.269531 191.144531 299.882812 199.363281 C 300.921875 204.671875 300.785156 210.703125 299.5 215.90625 C 298.117188 221.527344 295.5625 225.527344 292.308594 227.175781 L 292.300781 227.179688 C 292.21875 227.222656 290.199219 228.152344 287.285156 228.351562 C 286.960938 228.375 286.613281 228.386719 286.25 228.386719 Z M 287.847656 186.226562 C 285.820312 186.226562 282.75 186.664062 279.859375 187.722656 C 276.917969 188.800781 273.082031 190.921875 271.515625 194.902344 C 270.164062 198.34375 269.886719 204.304688 270.808594 210.089844 C 271.851562 216.601562 274.214844 221.859375 277.292969 224.515625 C 280.820312 227.550781 284.640625 227.984375 287.230469 227.8125 C 289.992188 227.628906 291.976562 226.734375 292.070312 226.691406 C 295.179688 225.113281 297.632812 221.238281 298.976562 215.773438 C 300.238281 210.644531 300.375 204.699219 299.351562 199.464844 C 297.789062 191.5 293.921875 186.6875 288.746094 186.257812 C 288.476562 186.238281 288.175781 186.226562 287.847656 186.226562 Z M 287.847656 186.226562 " fill-opacity="1" fill-rule="nonzero"/><path fill="#102770" d="M 292.1875 226.9375 C 292.1875 226.9375 284.09375 230.726562 277.113281 224.71875 C 271.878906 220.207031 269.652344 209.546875 270.035156 201.554688 C 270.359375 205.835938 272.636719 210.710938 277.113281 212.960938 C 284.089844 216.464844 292.1875 214.257812 292.1875 214.257812 C 296.957031 212.84375 299.703125 208.574219 300.210938 204.027344 C 300.847656 213.589844 298.050781 223.964844 292.1875 226.9375 Z M 292.1875 226.9375 " fill-opacity="0.298" fill-rule="nonzero"/><path fill="#ffffff" d="M 270.734375 196.476562 C 270.359375 197.945312 270.125 199.671875 270.035156 201.550781 C 269.890625 199.648438 270.132812 197.863281 270.734375 196.476562 Z M 270.734375 196.476562 " fill-opacity="1" fill-rule="nonzero"/><path fill="#ffffff" d="M 300.210938 204.023438 C 300.03125 201.390625 299.597656 198.820312 298.894531 196.480469 C 300.074219 198.769531 300.503906 201.441406 300.210938 204.023438 Z M 300.210938 204.023438 " fill-opacity="1" fill-rule="nonzero"/><path fill="#102770" d="M 286.230469 229.820312 C 282.425781 229.820312 278.910156 228.511719 276.003906 226.007812 C 271.3125 221.964844 269.515625 214.496094 268.859375 210.402344 C 267.867188 204.199219 268.183594 197.984375 269.679688 194.183594 C 271.132812 190.492188 274.414062 187.617188 279.175781 185.871094 C 282.839844 184.527344 286.703125 184.113281 288.90625 184.292969 C 295.03125 184.800781 299.542969 190.191406 301.289062 199.085938 C 302.367188 204.59375 302.222656 210.847656 300.894531 216.246094 C 299.40625 222.28125 296.589844 226.613281 292.957031 228.453125 C 292.941406 228.460938 292.925781 228.46875 292.910156 228.476562 C 292.816406 228.523438 290.558594 229.5625 287.382812 229.78125 C 286.996094 229.804688 286.613281 229.820312 286.230469 229.820312 Z M 292.1875 226.9375 Z M 287.882812 187.660156 C 286.175781 187.660156 283.246094 188.007812 280.351562 189.066406 C 277.683594 190.042969 274.21875 191.941406 272.847656 195.429688 C 271.582031 198.648438 271.335938 204.316406 272.222656 209.867188 C 273.210938 216.050781 275.398438 220.996094 278.226562 223.429688 C 284.144531 228.53125 291.039062 225.585938 291.445312 225.40625 C 294.164062 224.007812 296.34375 220.46875 297.585938 215.433594 C 298.800781 210.5 298.929688 204.777344 297.945312 199.742188 C 297.269531 196.292969 295.007812 188.214844 288.625 187.6875 C 288.414062 187.667969 288.167969 187.660156 287.882812 187.660156 Z M 287.882812 187.660156 " fill-opacity="1" fill-rule="nonzero"/><path fill="#fff2bd" d="M 99.582031 235.800781 L 95.359375 236.453125 C 94.515625 236.582031 93.847656 237.246094 93.71875 238.09375 L 93.066406 242.3125 L 92.414062 238.09375 C 92.285156 237.246094 91.621094 236.582031 90.773438 236.453125 L 86.550781 235.800781 L 90.773438 235.148438 C 91.621094 235.019531 92.285156 234.355469 92.414062 233.507812 L 93.066406 229.289062 L 93.71875 233.507812 C 93.851562 234.355469 94.515625 235.019531 95.359375 235.148438 Z M 99.582031 235.800781 " fill-opacity="1" fill-rule="nonzero"/><path fill="#fff2bd" d="M 86.550781 254.847656 L 82.585938 255.460938 C 81.792969 255.582031 81.167969 256.207031 81.046875 257 L 80.433594 260.960938 L 79.820312 257 C 79.699219 256.207031 79.074219 255.582031 78.28125 255.460938 L 74.316406 254.847656 L 78.28125 254.234375 C 79.074219 254.113281 79.699219 253.492188 79.820312 252.695312 L 80.433594 248.734375 L 81.046875 252.695312 C 81.167969 253.492188 81.792969 254.113281 82.585938 254.234375 Z M 86.550781 254.847656 " fill-opacity="1" fill-rule="nonzero"/><path fill="#fff2bd" d="M 64.488281 243.109375 L 61.535156 243.566406 C 60.941406 243.65625 60.476562 244.121094 60.386719 244.710938 L 59.929688 247.667969 L 59.476562 244.710938 C 59.382812 244.121094 58.917969 243.65625 58.328125 243.566406 L 55.371094 243.109375 L 58.328125 242.652344 C 58.917969 242.5625 59.382812 242.097656 59.476562 241.507812 L 59.929688 238.550781 L 60.386719 241.507812 C 60.476562 242.097656 60.941406 242.5625 61.535156 242.652344 Z M 64.488281 243.109375 " fill-opacity="1" fill-rule="nonzero"/><path fill="#fff2bd" d="M 297.917969 246.28125 L 294.933594 246.742188 C 294.335938 246.832031 293.867188 247.300781 293.773438 247.898438 L 293.3125 250.882812 L 292.855469 247.898438 C 292.761719 247.300781 292.292969 246.832031 291.695312 246.742188 L 288.710938 246.28125 L 291.695312 245.820312 C 292.292969 245.730469 292.761719 245.261719 292.855469 244.664062 L 293.3125 241.679688 L 293.773438 244.664062 C 293.867188 245.261719 294.335938 245.730469 294.933594 245.820312 Z M 297.917969 246.28125 " fill-opacity="1" fill-rule="nonzero"/><path fill="#fff2bd" d="M 271.785156 257.835938 L 268.6875 258.3125 C 268.066406 258.410156 267.578125 258.894531 267.484375 259.515625 L 267.003906 262.613281 L 266.527344 259.515625 C 266.429688 258.894531 265.941406 258.410156 265.324219 258.3125 L 262.226562 257.835938 L 265.324219 257.355469 C 265.941406 257.261719 266.429688 256.773438 266.527344 256.15625 L 267.003906 253.058594 L 267.484375 256.15625 C 267.578125 256.773438 268.066406 257.261719 268.6875 257.355469 Z M 271.785156 257.835938 " fill-opacity="1" fill-rule="nonzero"/><path fill="#102770" d="M 346.386719 157.59375 L 340.554688 160 C 340.554688 160 319.925781 161.28125 317.515625 159.761719 C 317.332031 159.644531 317.144531 159.535156 316.960938 159.421875 C 316.953125 159.417969 316.949219 159.40625 316.945312 159.40625 C 314.910156 158.1875 313.566406 158.554688 311.546875 157.984375 C 311.542969 157.984375 309.496094 158.550781 309.457031 158.554688 C 301.6875 156.390625 295.710938 157.695312 290.53125 160.144531 C 290.523438 160.144531 290.441406 159.21875 290.441406 159.21875 C 286.019531 161.308594 283.226562 163.597656 283.226562 163.597656 L 278.402344 118.324219 C 278.402344 118.324219 278.734375 117.773438 279.394531 116.902344 C 280.359375 126.269531 283.125 149.878906 286.753906 152.164062 C 288.765625 153.4375 292.359375 151.855469 297.019531 150.675781 C 298.800781 150.226562 303.199219 146.644531 303.3125 144.816406 L 304.230469 106.621094 L 304.242188 106.003906 C 307.886719 106.371094 309.78125 107.445312 314.140625 109.425781 C 314.566406 109.617188 314.902344 109.75 315.175781 109.851562 C 316.238281 110.230469 316.453125 110.085938 317.839844 110.847656 L 316.574219 146.265625 C 316.335938 148.417969 319.910156 150.453125 319.910156 150.453125 C 331.804688 155.546875 341.074219 147.148438 344.839844 143.902344 Z M 346.386719 157.59375 " fill-opacity="0.2" fill-rule="nonzero"/><path fill="#ffffff" d="M 121.53125 187.199219 L 110.285156 187.199219 C 104.847656 187.199219 100.441406 182.792969 100.441406 177.359375 L 100.441406 153.035156 C 100.441406 147.601562 104.847656 143.195312 110.285156 143.195312 L 121.53125 143.195312 Z M 121.53125 187.199219 " fill-opacity="1" fill-rule="nonzero"/><path fill="#ffffff" d="M 232.046875 143.195312 L 243.292969 143.195312 C 248.730469 143.195312 253.136719 147.601562 253.136719 153.035156 L 253.136719 177.359375 C 253.136719 182.792969 248.730469 187.199219 243.292969 187.199219 L 232.046875 187.199219 Z M 232.046875 143.195312 " fill-opacity="1" fill-rule="nonzero"/><path fill="#102770" d="M 121.53125 175.75 L 121.53125 187.199219 L 113.359375 187.199219 C 106.222656 187.199219 100.441406 181.417969 100.441406 174.289062 L 100.441406 162.835938 C 100.441406 169.96875 106.222656 175.75 113.359375 175.75 Z M 121.53125 175.75 " fill-opacity="0.298" fill-rule="nonzero"/><path fill="#102770" d="M 253.136719 162.835938 L 253.136719 174.289062 C 253.136719 181.417969 247.351562 187.199219 240.222656 187.199219 L 232.046875 187.199219 L 232.046875 175.75 L 240.222656 175.75 C 247.351562 175.75 253.136719 169.96875 253.136719 162.835938 Z M 253.136719 162.835938 " fill-opacity="0.298" fill-rule="nonzero"/><path fill="#102770" d="M 121.53125 188.902344 L 110.285156 188.902344 C 103.917969 188.902344 98.738281 183.726562 98.738281 177.359375 L 98.738281 153.035156 C 98.738281 146.671875 103.917969 141.496094 110.285156 141.496094 L 121.53125 141.496094 C 122.472656 141.496094 123.234375 142.257812 123.234375 143.195312 L 123.234375 187.199219 C 123.234375 188.140625 122.472656 188.902344 121.53125 188.902344 Z M 110.285156 144.898438 C 105.796875 144.898438 102.144531 148.550781 102.144531 153.035156 L 102.144531 177.359375 C 102.144531 181.847656 105.796875 185.496094 110.285156 185.496094 L 119.828125 185.496094 L 119.828125 144.898438 Z M 110.285156 144.898438 " fill-opacity="1" fill-rule="nonzero"/><path fill="#102770" d="M 243.292969 188.902344 L 232.046875 188.902344 C 231.105469 188.902344 230.34375 188.140625 230.34375 187.199219 L 230.34375 143.195312 C 230.34375 142.257812 231.105469 141.492188 232.046875 141.492188 L 243.292969 141.492188 C 249.660156 141.492188 254.839844 146.671875 254.839844 153.035156 L 254.839844 177.359375 C 254.839844 183.726562 249.660156 188.902344 243.292969 188.902344 Z M 233.75 185.496094 L 243.292969 185.496094 C 247.78125 185.496094 251.433594 181.847656 251.433594 177.359375 L 251.433594 153.035156 C 251.433594 148.550781 247.78125 144.898438 243.292969 144.898438 L 233.75 144.898438 Z M 233.75 185.496094 " fill-opacity="1" fill-rule="nonzero"/><g clip-path="url(#295d344952)"><path fill="#102770" d="M 176.789062 224.148438 C 176.78125 224.148438 176.773438 224.148438 176.761719 224.148438 C 176.761719 224.148438 176.761719 224.148438 176.757812 224.148438 C 168.546875 224.144531 160.582031 222.910156 153.085938 220.484375 C 146.867188 218.46875 140.914062 215.613281 135.394531 212.003906 C 128.964844 207.796875 123.441406 202.019531 119.425781 195.292969 C 115.4375 188.617188 112.890625 180.949219 112.054688 173.105469 C 110.398438 157.589844 111.585938 135.082031 126.648438 115.960938 C 131.007812 110.433594 136.359375 105.777344 142.5625 102.125 C 147.511719 99.214844 153.003906 96.933594 158.890625 95.347656 C 168.566406 92.742188 176.003906 92.878906 176.789062 92.902344 C 177.574219 92.878906 185.011719 92.742188 194.6875 95.347656 C 200.574219 96.933594 206.070312 99.214844 211.015625 102.125 C 217.21875 105.777344 222.570312 110.433594 226.929688 115.960938 C 241.988281 135.078125 243.179688 157.582031 241.527344 173.09375 C 240.691406 180.9375 238.140625 188.613281 234.152344 195.285156 C 230.132812 202.015625 224.605469 207.792969 218.175781 212 C 212.652344 215.613281 206.695312 218.464844 200.472656 220.480469 C 192.972656 222.910156 185.003906 224.144531 176.792969 224.148438 C 176.792969 224.148438 176.789062 224.148438 176.789062 224.148438 Z M 176.191406 96.089844 C 174.316406 96.089844 167.722656 96.261719 159.621094 98.460938 C 150.851562 100.835938 138.449219 106.144531 129.160156 117.9375 C 114.761719 136.214844 113.640625 157.84375 115.230469 172.765625 C 116.851562 187.957031 124.839844 201.28125 137.144531 209.332031 C 148.929688 217.042969 162.261719 220.953125 176.777344 220.953125 C 191.292969 220.953125 204.632812 217.039062 216.425781 209.328125 C 228.738281 201.277344 236.730469 187.945312 238.347656 172.757812 C 239.9375 157.835938 238.8125 136.210938 224.417969 117.941406 C 215.128906 106.144531 202.726562 100.835938 193.957031 98.460938 C 184.382812 95.867188 176.921875 96.09375 176.84375 96.097656 C 176.808594 96.097656 176.765625 96.097656 176.730469 96.097656 C 176.71875 96.09375 176.535156 96.089844 176.191406 96.089844 Z M 176.191406 96.089844 " fill-opacity="1" fill-rule="nonzero"/></g><path fill="#ffffff" d="M 176.761719 222.550781 C 194.230469 222.550781 207.695312 216.945312 217.300781 210.664062 C 230.042969 202.332031 238.289062 188.390625 239.9375 172.929688 C 241.597656 157.324219 240.28125 135.5 225.671875 116.957031 C 207.113281 93.398438 176.789062 94.507812 176.789062 94.507812 C 176.789062 94.507812 146.460938 93.398438 127.90625 116.957031 C 113.292969 135.5 111.976562 157.332031 113.640625 172.9375 C 115.292969 188.394531 123.527344 202.332031 136.269531 210.667969 C 145.867188 216.945312 159.324219 222.550781 176.789062 222.550781 Z M 176.761719 222.550781 " fill-opacity="1" fill-rule="nonzero"/><path fill="#102770" d="M 239.933594 172.925781 C 238.285156 188.386719 230.046875 202.332031 217.300781 210.664062 C 207.703125 216.941406 194.242188 222.546875 176.789062 222.550781 L 176.761719 222.550781 C 159.3125 222.546875 145.859375 216.9375 136.265625 210.664062 C 123.523438 202.335938 115.292969 188.394531 113.640625 172.9375 C 113.113281 168.007812 112.882812 162.460938 113.28125 156.589844 C 113.371094 158.035156 113.496094 159.445312 113.640625 160.804688 C 115.292969 176.257812 123.523438 190.195312 136.265625 198.53125 C 145.859375 204.804688 159.3125 210.410156 176.761719 210.414062 L 176.789062 210.414062 C 194.242188 210.410156 207.703125 204.804688 217.300781 198.527344 C 230.046875 190.191406 238.285156 176.253906 239.933594 160.792969 C 240.078125 159.429688 240.203125 158.023438 240.292969 156.578125 C 240.691406 162.449219 240.460938 167.996094 239.933594 172.925781 Z M 239.933594 172.925781 " fill-opacity="0.298" fill-rule="nonzero"/><g clip-path="url(#56b6895900)"><path fill="#102770" d="M 176.789062 224.253906 C 176.78125 224.253906 176.773438 224.253906 176.761719 224.253906 C 168.539062 224.25 160.5625 223.015625 153.054688 220.582031 C 146.824219 218.566406 140.863281 215.707031 135.335938 212.09375 C 128.894531 207.878906 123.359375 202.085938 119.332031 195.347656 C 115.339844 188.660156 112.785156 180.972656 111.949219 173.117188 C 110.292969 157.582031 111.480469 135.046875 126.566406 115.898438 C 130.929688 110.355469 136.292969 105.695312 142.507812 102.035156 C 147.464844 99.121094 152.964844 96.835938 158.863281 95.246094 C 168.539062 92.640625 175.980469 92.773438 176.789062 92.796875 C 177.59375 92.773438 185.039062 92.640625 194.714844 95.246094 C 200.609375 96.835938 206.113281 99.121094 211.070312 102.035156 C 217.28125 105.691406 222.644531 110.355469 227.011719 115.898438 C 242.089844 135.042969 243.285156 157.574219 241.628906 173.105469 C 240.792969 180.964844 238.238281 188.652344 234.242188 195.339844 C 230.210938 202.082031 224.675781 207.875 218.230469 212.089844 C 212.699219 215.707031 206.734375 218.5625 200.503906 220.582031 C 192.992188 223.015625 185.015625 224.25 176.792969 224.253906 C 176.792969 224.253906 176.789062 224.253906 176.789062 224.253906 Z M 176.191406 96.195312 C 174.320312 96.195312 167.734375 96.367188 159.640625 98.5625 C 150.890625 100.9375 138.511719 106.234375 129.242188 118.003906 C 114.867188 136.25 113.746094 157.851562 115.335938 172.753906 C 116.953125 187.910156 124.921875 201.210938 137.199219 209.242188 C 148.96875 216.941406 162.28125 220.847656 176.773438 220.847656 C 191.269531 220.847656 204.589844 216.941406 216.367188 209.238281 C 228.652344 201.207031 236.628906 187.902344 238.242188 172.746094 C 239.832031 157.84375 238.707031 136.25 224.335938 118.003906 C 215.035156 106.199219 202.613281 100.902344 193.828125 98.535156 C 184.285156 95.964844 176.921875 96.199219 176.851562 96.203125 C 176.808594 96.203125 176.765625 96.203125 176.726562 96.203125 C 176.714844 96.199219 176.53125 96.195312 176.191406 96.195312 Z M 176.191406 96.195312 " fill-opacity="1" fill-rule="nonzero"/></g><path fill="#102770" d="M 176.765625 211.796875 C 192.542969 211.796875 204.707031 207.550781 213.382812 202.789062 C 224.894531 196.476562 232.34375 185.914062 233.828125 174.195312 C 235.332031 162.371094 234.140625 145.835938 220.945312 131.785156 C 204.183594 113.933594 176.789062 114.773438 176.789062 114.773438 C 176.789062 114.773438 149.394531 113.933594 132.628906 131.785156 C 119.433594 145.839844 118.242188 162.378906 119.75 174.203125 C 121.238281 185.917969 128.679688 196.480469 140.1875 202.792969 C 148.855469 207.550781 161.011719 211.796875 176.789062 211.796875 Z M 176.765625 211.796875 " fill-opacity="1" fill-rule="nonzero"/><path fill="#102770" d="M 176.789062 213.359375 C 176.78125 213.359375 176.773438 213.359375 176.765625 213.359375 C 176.765625 213.359375 176.761719 213.359375 176.761719 213.359375 C 163.105469 213.355469 150.546875 210.261719 139.433594 204.164062 C 133.601562 200.964844 128.589844 196.5625 124.933594 191.429688 C 121.292969 186.3125 118.960938 180.425781 118.195312 174.402344 C 116.6875 162.535156 117.765625 145.324219 131.492188 130.714844 C 135.441406 126.503906 140.292969 122.964844 145.910156 120.195312 C 150.378906 117.988281 155.339844 116.261719 160.652344 115.058594 C 169.394531 113.082031 176.105469 113.191406 176.789062 113.210938 C 177.472656 113.191406 184.183594 113.082031 192.925781 115.058594 C 198.242188 116.257812 203.199219 117.988281 207.667969 120.195312 C 213.285156 122.964844 218.136719 126.503906 222.089844 130.714844 C 235.808594 145.324219 236.890625 162.53125 235.382812 174.394531 C 234.617188 180.417969 232.285156 186.308594 228.640625 191.425781 C 224.984375 196.558594 219.96875 200.960938 214.132812 204.160156 C 203.011719 210.261719 190.449219 213.355469 176.792969 213.359375 C 176.792969 213.359375 176.789062 213.359375 176.789062 213.359375 Z M 176.25 116.332031 C 174.546875 116.332031 168.585938 116.464844 161.257812 118.128906 C 153.335938 119.929688 142.140625 123.945312 133.773438 132.855469 C 120.882812 146.578125 119.875 162.808594 121.300781 174.007812 C 122.746094 185.375 129.90625 195.367188 140.941406 201.421875 C 151.589844 207.265625 163.648438 210.230469 176.777344 210.234375 C 189.910156 210.230469 201.972656 207.265625 212.628906 201.417969 C 223.671875 195.363281 230.832031 185.367188 232.277344 174 C 233.699219 162.804688 232.691406 146.578125 219.804688 132.855469 C 211.417969 123.921875 200.183594 119.90625 192.234375 118.109375 C 183.585938 116.15625 176.902344 116.335938 176.835938 116.335938 C 176.804688 116.339844 176.773438 116.339844 176.738281 116.335938 C 176.730469 116.335938 176.5625 116.332031 176.25 116.332031 Z M 176.25 116.332031 " fill-opacity="1" fill-rule="nonzero"/><g mask="url(#5af1cc9e59)"><g transform="matrix(1, 0, 0, 1, 127, 123)"><g clip-path="url(#6a07070710)"><g clip-path="url(#1c16d4d8bf)"><path fill="#ffffff" d="M 5.972656 33.816406 C 3.691406 35.300781 0.75 33.335938 1.230469 30.660156 C 1.394531 29.765625 1.59375 28.882812 1.820312 28.007812 C 2.597656 25.1875 3.757812 22.503906 5.238281 19.992188 C 6.710938 17.476562 8.515625 15.148438 10.578125 13.035156 C 12.644531 10.921875 15.015625 9.082031 17.539062 7.457031 C 22.03125 4.308594 26.96875 2.335938 30.578125 1.183594 C 33.484375 0.253906 36.621094 1.671875 37.847656 4.464844 C 39.117188 7.359375 37.910156 10.746094 35.089844 12.167969 C 33.429688 13.007812 31.757812 13.90625 30.75 14.59375 C 28.792969 15.773438 26.933594 17.089844 25.109375 18.460938 C 23.28125 19.832031 21.507812 21.292969 19.738281 22.8125 C 17.949219 24.316406 16.144531 25.859375 14.257812 27.417969 C 12.375 28.984375 10.421875 30.578125 8.332031 32.195312 C 7.730469 32.648438 6.882812 33.226562 5.972656 33.816406 Z M 5.972656 33.816406 " fill-opacity="1" fill-rule="nonzero"/></g><g clip-path="url(#6f2bd74ff0)"><path fill="#102770" d="M 4.28125 34.828125 C 3.59375 34.828125 2.90625 34.625 2.292969 34.21875 C 1.074219 33.410156 0.480469 32.011719 0.738281 30.570312 C 0.890625 29.738281 1.085938 28.859375 1.335938 27.882812 C 2.113281 25.0625 3.28125 22.328125 4.804688 19.738281 C 6.265625 17.246094 8.085938 14.871094 10.21875 12.683594 C 12.167969 10.695312 14.535156 8.796875 17.257812 7.039062 C 21.878906 3.804688 26.96875 1.808594 30.425781 0.707031 C 33.585938 -0.300781 36.972656 1.230469 38.304688 4.265625 C 39.683594 7.40625 38.371094 11.074219 35.3125 12.617188 C 33.324219 13.621094 31.886719 14.425781 31.03125 15.007812 C 31.023438 15.011719 31.015625 15.019531 31.007812 15.023438 C 29.3125 16.042969 27.585938 17.230469 25.40625 18.859375 C 23.78125 20.078125 22.082031 21.453125 20.0625 23.195312 C 19.410156 23.738281 18.761719 24.289062 18.109375 24.839844 C 16.964844 25.804688 15.78125 26.808594 14.574219 27.804688 C 12.347656 29.660156 10.457031 31.179688 8.636719 32.589844 C 8.082031 33.011719 7.28125 33.566406 6.242188 34.238281 C 5.636719 34.632812 4.960938 34.828125 4.28125 34.828125 Z M 32.398438 1.398438 C 31.847656 1.398438 31.285156 1.480469 30.730469 1.660156 C 27.335938 2.742188 22.34375 4.695312 17.824219 7.863281 C 17.816406 7.867188 17.8125 7.871094 17.808594 7.875 C 15.144531 9.589844 12.832031 11.445312 10.933594 13.382812 C 8.859375 15.511719 7.085938 17.820312 5.667969 20.246094 C 4.1875 22.757812 3.054688 25.414062 2.304688 28.140625 C 2.058594 29.085938 1.871094 29.941406 1.722656 30.746094 C 1.535156 31.789062 1.96875 32.800781 2.847656 33.386719 C 3.722656 33.96875 4.816406 33.972656 5.699219 33.398438 C 6.710938 32.738281 7.496094 32.199219 8.023438 31.796875 C 9.835938 30.394531 11.714844 28.882812 13.933594 27.03125 C 15.140625 26.035156 16.320312 25.039062 17.460938 24.074219 C 18.117188 23.519531 18.765625 22.972656 19.414062 22.429688 C 21.449219 20.679688 23.164062 19.289062 24.804688 18.058594 C 27.007812 16.410156 28.757812 15.210938 30.480469 14.171875 C 31.371094 13.566406 32.84375 12.742188 34.863281 11.722656 C 37.441406 10.421875 38.550781 7.320312 37.386719 4.667969 C 36.496094 2.632812 34.511719 1.398438 32.398438 1.398438 Z M 5.972656 33.816406 Z M 5.972656 33.816406 " fill-opacity="1" fill-rule="nonzero"/></g></g></g></g><g mask="url(#f3916380a2)"><g transform="matrix(1, 0, 0, 1, 171, 119)"><g clip-path="url(#859e3333b7)"><g clip-path="url(#5c05a807f0)"><path fill="#ffffff" d="M 5.863281 13.03125 C 5.863281 13.03125 1.453125 12.199219 0.878906 6.449219 C 0.304688 0.699219 7.972656 0.382812 10.914062 1.085938 C 13.855469 1.785156 19.289062 1.46875 20.246094 6.066406 C 21.207031 10.667969 18.519531 16.546875 5.863281 13.03125 Z M 5.863281 13.03125 " fill-opacity="1" fill-rule="nonzero"/><path fill="#102770" d="M 12.628906 14.59375 C 10.792969 14.59375 8.53125 14.289062 5.746094 13.519531 C 5.566406 13.480469 4.449219 13.214844 3.277344 12.289062 C 2.128906 11.386719 0.695312 9.644531 0.378906 6.5 C 0.199219 4.71875 0.734375 3.269531 1.964844 2.195312 C 4.523438 -0.0390625 9.175781 0.15625 11.03125 0.597656 C 11.59375 0.730469 12.269531 0.832031 12.984375 0.933594 C 15.902344 1.359375 19.898438 1.9375 20.738281 5.964844 C 21.285156 8.597656 20.640625 11.003906 18.96875 12.566406 C 17.855469 13.609375 15.925781 14.59375 12.628906 14.59375 Z M 8.289062 1.308594 C 6.300781 1.308594 4.003906 1.742188 2.621094 2.949219 C 1.652344 3.796875 1.230469 4.957031 1.378906 6.398438 C 1.90625 11.6875 5.792969 12.507812 5.960938 12.539062 C 5.972656 12.539062 5.984375 12.542969 6 12.546875 C 13.34375 14.589844 16.734375 13.285156 18.285156 11.835938 C 19.695312 10.515625 20.230469 8.449219 19.757812 6.167969 C 19.058594 2.828125 15.753906 2.347656 12.839844 1.921875 C 12.101562 1.816406 11.40625 1.714844 10.796875 1.570312 C 10.121094 1.410156 9.238281 1.308594 8.289062 1.308594 Z M 8.289062 1.308594 " fill-opacity="1" fill-rule="nonzero"/></g></g></g></g><path fill="#102770" d="M 136.242188 127.875 C 135.488281 127.875 134.820312 127.339844 134.671875 126.578125 C 133.375 119.792969 128.789062 116.054688 128.742188 116.019531 C 128.054688 115.46875 127.9375 114.464844 128.484375 113.777344 C 129.035156 113.089844 130.035156 112.972656 130.726562 113.515625 C 130.949219 113.695312 136.28125 117.980469 137.8125 125.976562 C 137.976562 126.84375 137.410156 127.679688 136.542969 127.84375 C 136.441406 127.863281 136.339844 127.875 136.242188 127.875 Z M 136.242188 127.875 " fill-opacity="1" fill-rule="nonzero"/><path fill="#102770" d="M 217.335938 127.875 C 217.238281 127.875 217.136719 127.863281 217.035156 127.84375 C 216.167969 127.679688 215.601562 126.84375 215.765625 125.976562 C 217.296875 117.980469 222.625 113.695312 222.851562 113.515625 C 223.542969 112.96875 224.546875 113.085938 225.09375 113.777344 C 225.640625 114.46875 225.523438 115.472656 224.835938 116.019531 C 224.765625 116.074219 220.199219 119.808594 218.902344 126.578125 C 218.757812 127.339844 218.089844 127.875 217.335938 127.875 Z M 217.335938 127.875 " fill-opacity="1" fill-rule="nonzero"/></svg>